<svg width="41" height="40" viewBox="0 0 41 40" fill="none" xmlns="http://www.w3.org/2000/svg">
<path d="M19.9893 39.0865C30.6365 39.0865 39.2677 30.5448 39.2677 20.0081C39.2677 9.47139 30.6365 0.929688 19.9893 0.929688C9.34216 0.929688 0.710938 9.47139 0.710938 20.0081C0.710938 30.5448 9.34216 39.0865 19.9893 39.0865Z" fill="#58B0E0"/>
<path fill-rule="evenodd" clip-rule="evenodd" d="M15.2168 24.8115L25.1411 24.9017V34.5348L15.2168 34.444V24.8115Z" fill="#302E33"/>
<path fill-rule="evenodd" clip-rule="evenodd" d="M34.0753 33.0311C32.2739 34.9443 30.0933 36.4694 27.6696 37.5112C25.246 38.5531 22.6313 39.0892 19.9889 39.0863C19.1887 39.0862 18.3892 39.0373 17.595 38.9399C15.1594 38.5945 12.8029 37.8332 10.6305 36.69C8.79684 35.6802 7.14126 34.3821 5.72852 32.8465L6.5296 30.9325L15.2174 27.0971C15.2174 29.8971 16.0347 33.2837 19.8585 33.3411C24.5814 33.4109 25.143 29.9607 25.143 27.0742L33.1226 30.9529L34.0753 33.0311Z" fill="#857A6E"/>
<path fill-rule="evenodd" clip-rule="evenodd" d="M20.3392 33.3417C18.2542 29.9631 14.4821 29.4599 13.2524 29.2666C9.87086 28.7357 4.16844 26.6241 7.90933 23.2653C14.6256 17.2367 12.213 9.66211 20.0834 9.66211C28.4873 9.66211 25.6193 17.2367 32.3355 23.2653C36.0771 26.6241 30.3746 28.7357 26.9919 29.2666C25.6429 29.4007 24.3426 29.8374 23.1898 30.5435C22.037 31.2496 21.0621 32.2066 20.3392 33.3417Z" fill="#302E33"/>
<path opacity="0.18" fill-rule="evenodd" clip-rule="evenodd" d="M25.6448 27.0166C24.9429 29.4925 23.1442 30.9663 20.2805 30.849C17.8224 30.7483 15.7279 29.369 15.2207 27.0185L25.6448 27.0166Z" fill="black"/>
<path fill-rule="evenodd" clip-rule="evenodd" d="M20.1284 6.13574C33.4056 6.13574 28.231 27.9099 20.1284 27.9099C12.4751 27.9099 6.85128 6.13574 20.1284 6.13574Z" fill="#FFE8BE"/>
<path fill-rule="evenodd" clip-rule="evenodd" d="M12.1662 15.7754C10.2508 16.6027 11.8792 20.5215 13.0846 20.5036C12.5847 18.9705 12.2762 17.3827 12.1662 15.7754Z" fill="#F9DCA4"/>
<path fill-rule="evenodd" clip-rule="evenodd" d="M28.2517 15.7764C30.1671 16.6031 28.5387 20.5225 27.334 20.5046C27.8336 18.9715 28.1418 17.3836 28.2517 15.7764Z" fill="#F9DCA4"/>
<path fill-rule="evenodd" clip-rule="evenodd" d="M12.639 16.8002C10.8734 13.739 10.9027 11.0118 11.7893 9.50409C13.067 7.33075 14.8601 7.22702 15.1053 6.71517C17.6165 1.48001 30.6023 5.45068 30.0601 13.5624C29.7954 13.0211 29.4773 12.507 29.1105 12.0275C29.1105 12.0275 29.0637 15.1091 28.214 16.3229C27.1908 16.6094 18.8175 16.4705 15.703 10.1808C13.2036 11.5811 12.546 14.512 12.6396 16.7996L12.639 16.8002Z" fill="#969696"/>
<path fill-rule="evenodd" clip-rule="evenodd" d="M20.148 29.6668C18.4884 29.6804 10.4046 27.1835 12.2806 13.5859C12.2806 13.5859 12.6861 19.7083 14.0119 21.4816C14.8742 22.6349 15.6497 23.0684 16.3952 21.9422C17.1738 20.7691 18.8571 19.7979 20.1623 20.9068C21.246 19.7645 23.187 20.7759 23.9581 21.9422C24.7037 23.0678 25.4804 22.6356 26.3426 21.4816C27.6684 19.7083 27.956 13.7909 27.956 13.7909C30.1122 28.3622 21.8075 29.6804 20.148 29.6668Z" fill="#969696"/>
<path fill-rule="evenodd" clip-rule="evenodd" d="M17.2578 23.6515C18.0172 22.8916 19.0304 22.4315 20.1078 22.3574C21.1687 22.4506 22.1629 22.9092 22.9172 23.6534C22.4256 23.9775 19.2524 24.7259 17.2578 23.6515Z" fill="#FFE8BE"/>
<path fill-rule="evenodd" clip-rule="evenodd" d="M17.3153 32.6021C15.7367 31.6296 14.0177 30.9007 12.2174 30.4405C9.2364 29.9725 3.84281 29.5032 5.18544 24.2131C8.21383 12.2783 12.4732 3.20702 20.3387 3.31939C28.347 3.433 32.2489 13.0747 35.2124 24.2285C36.4003 28.6975 30.9761 29.9786 28.0326 30.4399C26.2884 30.7963 24.6353 31.4989 23.173 32.5051C18.8288 35.4472 22.0425 35.4064 17.3153 32.6021ZM20.3418 33.3418C21.0647 32.2067 22.0396 31.2497 23.1923 30.5436C24.3451 29.8375 25.6454 29.4008 26.9944 29.2667C30.3772 28.7358 36.0796 26.6242 32.3381 23.2654C25.6218 17.2368 28.4905 9.66222 20.086 9.66222C12.2155 9.66222 14.6281 17.2368 7.91187 23.2654C4.17035 26.6242 9.87278 28.7358 13.2549 29.2667C14.484 29.46 18.2561 29.9626 20.3418 33.3418Z" fill="#7D7062"/>
<path fill-rule="evenodd" clip-rule="evenodd" d="M15.8125 31.9324C15.8125 31.9324 19.5484 33.9428 20.5466 36.8669C21.5511 33.7051 25.3051 31.7256 25.3051 31.7256C25.3051 31.7256 21.3452 33.2395 20.4905 35.2178C19.8834 34.1545 18.801 33.1185 15.8125 31.9324Z" fill="#302E33"/>
<path d="M25.7248 26.1133H32.3223V30.8095H23.8398V27.9918C23.8398 27.4936 24.0384 27.0158 24.3919 26.6635C24.7454 26.3112 25.2248 26.1133 25.7248 26.1133Z" fill="#EDECEC"/>
<path d="M38.9198 26.1133H32.3223V30.8095H40.8047V27.9918C40.8047 27.4936 40.6061 27.0158 40.2526 26.6635C39.8991 26.3112 39.4197 26.1133 38.9198 26.1133Z" fill="#EDECEC"/>
<path d="M38.9198 38.3232H32.3223V33.627H40.8048V36.4447C40.8048 36.9429 40.6062 37.4207 40.2527 37.773C39.8992 38.1253 39.4197 38.3232 38.9198 38.3232ZM29.0236 38.3232H25.7248C25.2249 38.3232 24.7455 38.1253 24.3919 37.773C24.0384 37.4207 23.8398 36.9429 23.8398 36.4447V33.627H29.0236V38.3232Z" fill="#EDECEC"/>
<path d="M32.3223 26.1133H29.0236V30.8095H23.8398V33.6272H29.0236V38.3235H32.3223V33.6272H40.8048V30.8095H32.3223V26.1133Z" fill="#003580"/>
</svg>
