<svg width="895" height="449" viewBox="0 0 895 449" fill="none" xmlns="http://www.w3.org/2000/svg">
<g opacity="0.22">
<path d="M294.489 448.282C267.506 448.282 240.563 447.799 213.661 446.833C175.22 445.452 135.471 444.025 98.525 423.534C72.6799 409.201 49.7901 386.205 32.3308 357.03C20.6613 337.256 12.1047 315.803 6.96154 293.426C-2.63239 252.684 -2.3056 210.235 7.91441 169.646C11.4959 155.73 16.4332 142.199 22.6555 129.246C49.5985 73.4524 98.7404 35.9998 157.481 26.492C157.966 26.429 158.457 26.4185 158.944 26.4607C159.209 26.4749 159.472 26.49 159.74 26.4788L160.086 26.3689C160.972 26.061 161.882 25.8274 162.807 25.6707C253.401 12.1838 349.172 39.4724 439.759 104.584C509.801 154.935 602.627 182.049 723.54 187.473L725.257 187.563C758.917 189.497 791.475 203.374 819.417 227.696C846.997 251.702 867.704 283.73 879.301 320.32C880.727 324.781 882.034 329.425 883.185 334.121C884.258 338.485 884.182 343.053 882.966 347.38C881.749 351.707 879.434 355.645 876.244 358.811V358.82L875.943 359.13C875.219 359.85 874.456 360.542 873.676 361.185L872.759 361.941C865.032 368.306 858.929 373.335 851.624 377.24C846.753 379.827 841.572 381.783 836.206 383.061C806.74 390.245 776.818 396.905 747.27 402.858C689.885 414.428 630.988 423.973 572.216 431.226C480.076 442.587 387.327 448.283 294.489 448.282ZM158.257 28.4368C158.077 28.4351 157.897 28.4473 157.718 28.4734C99.5262 37.8923 50.8495 74.9773 24.1737 130.218C18.0128 143.043 13.1243 156.44 9.57844 170.218C-0.548446 210.447 -0.871161 252.52 8.63743 292.899C13.7302 315.062 22.2039 336.31 33.7608 355.895C51.0492 384.784 73.7049 407.55 99.279 421.731C135.893 442.039 175.455 443.46 213.715 444.833C333.378 449.108 453.191 443.894 572.03 429.238C630.765 421.989 689.623 412.451 746.97 400.887C776.499 394.939 806.4 388.284 835.846 381.104C841.082 379.858 846.139 377.95 850.893 375.426C858.05 371.599 864.095 366.619 871.748 360.314L872.665 359.559C873.335 359.006 873.993 358.414 874.623 357.799L874.804 357.609C881.093 351.27 883.539 342.907 881.514 334.665V334.664C880.374 330.017 879.081 325.424 877.67 321.009C853.98 246.262 792.696 193.439 725.174 189.561L723.466 189.471C668.235 186.993 619.903 180.128 575.715 168.481C522.965 154.579 476.914 133.651 438.839 106.281C348.597 41.4182 253.226 14.2312 163.028 27.654C162.185 27.7994 161.356 28.0143 160.549 28.2966L159.926 28.4709C159.573 28.4868 159.218 28.4825 158.865 28.4582C158.656 28.4475 158.455 28.4368 158.257 28.4368Z" fill="#53ACFF"/>
<path d="M279.322 146.055C276.824 143.659 274.269 130.294 271.08 128.937C273.464 134.206 271.733 135.601 271.72 141.383C271.75 144.666 271.367 147.94 270.579 151.128H216.555V108.966C216.555 105.177 217.301 101.426 218.75 97.9261C220.2 94.4261 222.325 91.2459 225.004 88.5672C227.682 85.8884 230.863 83.7635 234.363 82.3138C237.863 80.8641 241.614 80.1181 245.402 80.1182C246.848 80.1464 248.285 80.3567 249.678 80.7441C254.322 81.9978 258.554 84.4506 261.95 87.8563C265.347 91.262 267.788 95.501 269.029 100.148C273.147 115.202 279.697 140.259 279.322 146.055Z" fill="#2F2E41"/>
<path d="M219.727 197.923L219.754 165.06L200.436 166.786L207.254 187.513L204.063 239.609C202.515 239.956 201.102 240.746 199.996 241.883C198.89 243.019 198.138 244.453 197.833 246.009C197.527 247.566 197.681 249.177 198.276 250.648C198.87 252.118 199.88 253.384 201.181 254.29C202.483 255.196 204.02 255.705 205.605 255.753C207.19 255.801 208.755 255.386 210.109 254.56C211.463 253.734 212.547 252.532 213.23 251.101C213.912 249.669 214.164 248.07 213.953 246.498L219.727 197.923Z" fill="white"/>
<path d="M257.74 432.76L265.544 432.759L269.257 402.657H257.738L257.74 432.76Z" fill="white"/>
<path d="M255.099 428.91L267.436 428.174V433.46L279.165 441.56C279.744 441.96 280.181 442.535 280.41 443.2C280.64 443.866 280.65 444.588 280.441 445.26C280.231 445.932 279.813 446.519 279.245 446.937C278.678 447.354 277.993 447.579 277.289 447.579H262.601L260.069 442.35L259.081 447.579H253.543L255.099 428.91Z" fill="#2F2E41"/>
<path d="M212.614 432.76L220.419 432.759L224.131 402.657H212.613L212.614 432.76Z" fill="white"/>
<path d="M209.974 428.91L222.311 428.174V433.46L234.04 441.56C234.619 441.96 235.056 442.535 235.285 443.2C235.515 443.866 235.525 444.588 235.316 445.26C235.106 445.932 234.688 446.519 234.12 446.937C233.553 447.354 232.868 447.579 232.164 447.579H217.476L214.944 442.35L213.956 447.579H208.418L209.974 428.91Z" fill="#2F2E41"/>
<path d="M250.79 129.571L234.623 129.888L223.211 141.935L214.062 143.276C209.923 143.883 206.118 145.893 203.283 148.968C200.447 152.044 198.753 155.999 198.484 160.174L200.069 168.88H209.58L215.081 201.183C212.942 206.634 212.797 210.937 217.188 212.627L230.819 238.304L271.079 220.235C273.12 216.725 273.775 213.199 271.688 209.771L274.566 160.321H284.243C284.243 151.072 281.115 143.275 271.924 142.246C268.274 141.851 264.606 141.641 260.935 141.618L250.79 129.571Z" fill="#53ACFF"/>
<path d="M271.08 220.235C271.08 220.235 231.771 227.209 217.189 212.627C217.189 212.627 215.708 215.14 213.478 219.308C212.836 220.507 211.597 221.319 210.849 222.771C210.169 224.091 208.419 225.713 207.679 227.21C207.083 228.414 208.039 229.987 207.419 231.288C199.951 246.952 191.226 269.047 193.096 283.636C194.303 293.045 196.794 314.938 199.418 338.453C199.623 340.29 197.962 342.65 198.168 344.502C198.363 346.248 200.424 347.485 200.618 349.236C200.747 350.398 199.308 351.583 199.436 352.744C199.578 354.017 201.287 355.266 201.427 356.534C205.022 389.002 208.313 419.315 208.313 419.315H226.699L230.168 350.083L227.333 324.847L233.99 273.809L243.183 322.311L244.366 349.608L254.081 420.583H271.08V351.875L272.348 348.306L271.08 343.728L272.348 338.796L271.08 333.424V220.235Z" fill="#2F2E41"/>
<path d="M255.756 120.196C253.252 123.523 249.689 125.897 245.655 126.929C241.62 127.96 237.355 127.587 233.561 125.871C229.767 124.154 226.671 121.197 224.782 117.486C222.894 113.775 222.325 109.531 223.171 105.454C224.016 101.376 226.225 97.7085 229.433 95.0541C232.642 92.3997 236.658 90.9171 240.822 90.8505C244.985 90.7839 249.048 92.1372 252.339 94.6875C255.631 97.2379 257.956 100.833 258.931 104.882C258.984 105.101 259.028 105.32 259.072 105.546C259.587 108.084 259.558 110.702 258.986 113.227C258.415 115.752 257.314 118.128 255.756 120.196Z" fill="white"/>
<path d="M251.933 109.739C251.545 107.788 250.561 106.005 249.118 104.635C249.261 106.505 249.001 108.384 248.358 110.145C243.538 110.572 238.696 109.613 234.403 107.381C231.17 105.187 227.055 105.377 222.262 107.381C222.261 105.049 222.72 102.741 223.612 100.587C224.504 98.433 225.812 96.4758 227.461 94.8273C229.109 93.1788 231.066 91.8712 233.22 90.9792C235.374 90.0871 237.683 89.6281 240.014 89.6284H243.184C247.892 89.6293 252.407 91.4999 255.736 94.8289C259.065 98.1579 260.936 102.673 260.936 107.381C258.011 108.43 254.998 109.219 251.933 109.739Z" fill="#2F2E41"/>
<path d="M113.246 336C141.413 336 164.246 313.167 164.246 285C164.246 256.833 141.413 234 113.246 234C85.0796 234 62.2461 256.833 62.2461 285C62.2461 313.167 85.0796 336 113.246 336Z" fill="#53ACFF"/>
<path d="M438.246 102C466.413 102 489.246 79.1665 489.246 51C489.246 22.8335 466.413 0 438.246 0C410.08 0 387.246 22.8335 387.246 51C387.246 79.1665 410.08 102 438.246 102Z" fill="#53ACFF"/>
<path d="M843.246 344C871.413 344 894.246 321.167 894.246 293C894.246 264.833 871.413 242 843.246 242C815.08 242 792.246 264.833 792.246 293C792.246 321.167 815.08 344 843.246 344Z" fill="#53ACFF"/>
<path d="M530.244 56.5619V172.208C530.245 174.61 529.297 176.915 527.608 178.623C525.918 180.33 523.623 181.302 521.221 181.327C521.188 181.331 521.154 181.332 521.121 181.331H507.661C496.892 181.331 486.563 177.053 478.948 169.438C471.333 161.823 467.055 151.494 467.055 140.725V56.5619C467.055 54.1422 468.016 51.8216 469.727 50.1107C471.438 48.3997 473.758 47.4385 476.178 47.4385H481.632C479.105 54.8091 513.397 57.9122 515.28 47.4385H521.121C523.541 47.4385 525.861 48.3997 527.572 50.1107C529.283 51.8217 530.244 54.1422 530.244 56.5619Z" fill="#CCCCCC"/>
<path d="M490.301 38.7909C490.301 38.4739 490.427 38.17 490.651 37.9458C490.876 37.7217 491.179 37.5956 491.496 37.5952H499.627C499.943 37.5961 500.247 37.7225 500.47 37.9466C500.694 38.1708 500.819 38.4744 500.819 38.7909C500.819 39.1074 500.694 39.411 500.47 39.6351C500.247 39.8592 499.943 39.9856 499.627 39.9865H491.496C491.179 39.9861 490.876 39.8601 490.651 39.6359C490.427 39.4118 490.301 39.1079 490.301 38.7909Z" fill="#3F3D56"/>
<path d="M523.914 196H472.498C468.508 195.995 464.684 194.409 461.863 191.588C459.042 188.768 457.456 184.943 457.451 180.954V100.113C457.169 99.91 456.939 99.6429 456.78 99.3335C456.622 99.0242 456.54 98.6815 456.54 98.334V90.2036C456.54 89.8561 456.622 89.5135 456.78 89.2042C456.939 88.8949 457.169 88.6279 457.451 88.4253V86.2431C457.169 86.0405 456.939 85.7734 456.78 85.4642C456.622 85.1549 456.54 84.8123 456.54 84.4648V76.334C456.54 75.9865 456.622 75.6438 456.78 75.3346C456.939 75.0253 457.169 74.7583 457.451 74.5556V70.6118C457.103 70.4246 456.811 70.1461 456.609 69.8062C456.406 69.4663 456.3 69.0778 456.301 68.6821V60.5517C456.3 60.156 456.406 59.7673 456.609 59.4274C456.811 59.0874 457.103 58.8089 457.451 58.6215V47.8149C457.456 43.8258 459.043 40.0014 461.863 37.1808C464.684 34.3601 468.508 32.7735 472.498 32.769H523.914C527.903 32.7735 531.727 34.3602 534.548 37.1808C537.368 40.0015 538.955 43.8259 538.959 47.8149V71.3711C539.23 71.5406 539.454 71.7761 539.609 72.0557C539.764 72.3352 539.845 72.6496 539.845 72.9692V88.4721C539.845 88.7918 539.764 89.1062 539.609 89.3858C539.454 89.6655 539.23 89.9011 538.959 90.0707V180.954C538.955 184.943 537.368 188.767 534.548 191.588C531.727 194.409 527.903 195.995 523.914 196ZM472.498 34.769C469.039 34.7729 465.723 36.1486 463.277 38.5944C460.831 41.0401 459.455 44.3561 459.451 47.8149V60.3228L458.489 60.3599C458.439 60.3616 458.392 60.3825 458.357 60.4182C458.322 60.4539 458.302 60.5017 458.301 60.5518V68.682C458.302 68.732 458.322 68.7797 458.357 68.8154C458.392 68.8511 458.439 68.872 458.489 68.874L459.451 68.9106V75.9599L458.69 76.1474C458.648 76.1575 458.611 76.1814 458.584 76.2151C458.556 76.2488 458.541 76.2906 458.54 76.3339V84.4648C458.541 84.5081 458.556 84.5499 458.584 84.5836C458.611 84.6174 458.648 84.6411 458.69 84.6513L459.451 84.8388V89.8295L458.69 90.017C458.648 90.0272 458.611 90.051 458.584 90.0847C458.556 90.1185 458.541 90.1602 458.54 90.2036V98.3339C458.541 98.3773 458.556 98.4192 458.583 98.453C458.611 98.4868 458.648 98.5107 458.69 98.5209L459.451 98.7084V180.954C459.455 184.413 460.831 187.729 463.277 190.175C465.723 192.62 469.039 193.996 472.498 194H523.914C527.372 193.996 530.688 192.62 533.134 190.174C535.58 187.729 536.955 184.413 536.959 180.954V88.3583H537.845V73.0835H536.959V47.8149C536.955 44.3561 535.58 41.0401 533.134 38.5944C530.688 36.1487 527.372 34.773 523.914 34.769L472.498 34.769Z" fill="#3F3D56"/>
<path d="M504.172 39.9865C504.833 39.9865 505.368 39.4512 505.368 38.7909C505.368 38.1305 504.833 37.5952 504.172 37.5952C503.512 37.5952 502.977 38.1305 502.977 38.7909C502.977 39.4512 503.512 39.9865 504.172 39.9865Z" fill="#3F3D56"/>
<path d="M244.078 270.403H110.291C108.391 270.398 106.57 269.641 105.227 268.298C103.883 266.954 103.126 265.134 103.121 263.234V198.045C103.126 196.145 103.883 194.324 105.226 192.981C106.57 191.637 108.39 190.88 110.29 190.875H244.077C245.977 190.88 247.798 191.637 249.141 192.98C250.485 194.323 251.242 196.144 251.247 198.044V263.233C251.242 265.133 250.485 266.954 249.142 268.297C247.799 269.641 245.978 270.398 244.078 270.403Z" fill="white"/>
<path d="M244.078 270.403H110.291C108.391 270.398 106.57 269.641 105.227 268.298C103.883 266.954 103.126 265.134 103.121 263.234V198.045C103.126 196.145 103.883 194.324 105.226 192.981C106.57 191.637 108.39 190.88 110.29 190.875H244.077C245.977 190.88 247.798 191.637 249.141 192.98C250.485 194.323 251.242 196.144 251.247 198.044V263.233C251.242 265.133 250.485 266.954 249.142 268.297C247.799 269.641 245.978 270.398 244.078 270.403ZM110.291 192.875C108.921 192.879 107.608 193.425 106.639 194.394C105.671 195.363 105.125 196.676 105.121 198.046V263.233C105.125 264.603 105.671 265.916 106.64 266.885C107.609 267.853 108.922 268.399 110.292 268.403H244.076C245.446 268.399 246.759 267.853 247.728 266.884C248.697 265.915 249.243 264.602 249.247 263.232V198.045C249.243 196.675 248.697 195.362 247.728 194.393C246.759 193.425 245.446 192.879 244.076 192.875L110.291 192.875Z" fill="#3F3D56"/>
<path d="M184.355 260.769C157.969 260.769 130.456 260.517 120.191 260.354C118.84 260.326 117.554 259.771 116.607 258.808C115.659 257.845 115.126 256.549 115.121 255.198V201.237C115.122 200.753 115.314 200.289 115.655 199.947C115.997 199.604 116.46 199.411 116.944 199.409H237.42C237.903 199.41 238.367 199.602 238.71 199.943C239.052 200.285 239.245 200.748 239.247 201.232V237.844C239.225 243.82 236.861 249.55 232.662 253.803C228.464 258.057 222.766 260.495 216.79 260.596C207.223 260.721 195.894 260.769 184.355 260.769Z" fill="#CCCCCC"/>
<path d="M230.265 234.48H121.406C120.494 234.477 119.606 234.194 118.861 233.669C118.116 233.144 117.55 232.402 117.242 231.544L104.92 196.978C104.683 196.311 104.609 195.597 104.705 194.896C104.8 194.195 105.063 193.527 105.47 192.948C105.878 192.37 106.418 191.897 107.046 191.57C107.673 191.244 108.37 191.073 109.078 191.071L245.15 190.882C245.797 190.881 246.436 191.022 247.023 191.295C247.609 191.569 248.128 191.967 248.544 192.463C248.96 192.958 249.262 193.539 249.428 194.164C249.595 194.789 249.623 195.443 249.51 196.08L249.615 196.124L249.224 197.036L249.22 197.045L234.325 231.8C233.986 232.596 233.42 233.274 232.698 233.751C231.976 234.227 231.13 234.481 230.265 234.48ZM245.157 192.882L109.082 193.071C108.694 193.072 108.313 193.166 107.969 193.345C107.625 193.523 107.329 193.782 107.105 194.099C106.882 194.416 106.738 194.782 106.686 195.166C106.634 195.55 106.674 195.941 106.804 196.307L119.125 230.872C119.294 231.341 119.604 231.748 120.013 232.036C120.421 232.323 120.908 232.478 121.407 232.48H230.265C230.739 232.48 231.202 232.341 231.597 232.081C231.992 231.82 232.301 231.449 232.487 231.013L247.382 196.257C247.54 195.889 247.604 195.487 247.569 195.088C247.533 194.689 247.399 194.305 247.178 193.97C246.958 193.636 246.657 193.361 246.305 193.171C245.952 192.981 245.557 192.882 245.157 192.882Z" fill="#3F3D56"/>
<path d="M176.981 242.004C181.689 242.004 185.505 238.188 185.505 233.48C185.505 228.772 181.689 224.956 176.981 224.956C172.273 224.956 168.457 228.772 168.457 233.48C168.457 238.188 172.273 242.004 176.981 242.004Z" fill="white"/>
<path d="M498.981 168.004C503.689 168.004 507.505 164.188 507.505 159.48C507.505 154.772 503.689 150.956 498.981 150.956C494.273 150.956 490.457 154.772 490.457 159.48C490.457 164.188 494.273 168.004 498.981 168.004Z" fill="white"/>
<path d="M821.375 283.12L798.605 260.64C797.497 259.537 796.182 258.663 794.735 258.07C793.288 257.476 791.739 257.174 790.175 257.18H790.095C788.52 257.184 786.961 257.501 785.509 258.112C784.057 258.723 782.74 259.617 781.635 260.74C776.544 265.892 773.648 272.818 773.557 280.061C773.466 287.304 776.186 294.3 781.145 299.58C781.385 299.84 781.635 300.09 781.885 300.34C783.27 301.716 784.799 302.94 786.445 303.99C790.947 306.898 796.196 308.437 801.555 308.42H801.725C805.404 308.407 809.043 307.665 812.433 306.237C815.823 304.809 818.897 302.723 821.475 300.1C823.71 297.833 824.954 294.772 824.935 291.589C824.917 288.406 823.636 285.36 821.375 283.12ZM820.055 298.69C815.828 302.949 810.261 305.62 804.294 306.254C798.327 306.888 792.323 305.445 787.295 302.17C785.857 301.218 784.514 300.13 783.285 298.92C778.379 294.074 775.598 287.478 775.555 280.582C775.512 273.687 778.21 267.056 783.055 262.15C783.976 261.211 785.075 260.465 786.287 259.955C787.499 259.445 788.8 259.182 790.115 259.18H790.175C791.477 259.175 792.767 259.427 793.972 259.921C795.176 260.416 796.272 261.142 797.195 262.06L819.965 284.55C821.85 286.414 822.918 288.95 822.935 291.601C822.952 294.252 821.916 296.802 820.055 298.69Z" fill="#3F3D56"/>
<path d="M746.666 209.34L723.896 186.85C721.655 184.626 718.623 183.382 715.466 183.39H715.396C713.818 183.396 712.258 183.715 710.804 184.327C709.35 184.94 708.032 185.835 706.926 186.96C702.717 191.234 699.988 196.745 699.138 202.683C698.289 208.622 699.364 214.676 702.206 219.96L702.216 219.97C703.388 222.131 704.845 224.125 706.546 225.9C706.736 226.12 706.956 226.34 707.176 226.56C712.405 231.75 719.478 234.656 726.846 234.64H727.026C730.705 234.624 734.344 233.88 737.734 232.45C741.124 231.021 744.197 228.934 746.776 226.31C747.883 225.188 748.758 223.86 749.352 222.4C749.946 220.94 750.246 219.378 750.236 217.802C750.226 216.226 749.905 214.668 749.293 213.216C748.68 211.764 747.787 210.447 746.666 209.34ZM745.346 224.91C742.952 227.345 740.1 229.281 736.954 230.608C733.808 231.935 730.43 232.625 727.016 232.64H726.846C721.718 232.638 716.706 231.12 712.438 228.276C708.171 225.433 704.84 221.391 702.864 216.66C700.888 211.928 700.355 206.718 701.332 201.684C702.309 196.651 704.753 192.018 708.356 188.37C710.22 186.485 712.756 185.417 715.407 185.4C718.058 185.383 720.608 186.419 722.496 188.28L745.266 210.76C747.15 212.627 748.216 215.166 748.231 217.818C748.246 220.471 747.208 223.021 745.346 224.91Z" fill="#3F3D56"/>
<path d="M822.83 290.187L797.727 265.394C796.081 263.772 793.859 262.869 791.548 262.883C789.237 262.897 787.026 263.828 785.4 265.47C783.366 267.525 781.757 269.96 780.665 272.637C779.573 275.314 779.019 278.18 779.036 281.071C779.052 283.963 779.638 286.822 780.76 289.487C781.882 292.151 783.519 294.568 785.576 296.6C787.633 298.631 790.07 300.238 792.748 301.327C795.426 302.416 798.293 302.966 801.184 302.947C804.075 302.927 806.934 302.338 809.597 301.213C812.26 300.088 814.676 298.449 816.705 296.389L822.83 290.187Z" fill="#CCCCCC"/>
<path d="M748.123 216.404L723.02 191.61C721.374 189.988 719.152 189.085 716.841 189.099C714.53 189.114 712.319 190.044 710.693 191.687C708.659 193.741 707.05 196.177 705.958 198.854C704.866 201.531 704.312 204.397 704.328 207.288C704.345 210.179 704.931 213.038 706.053 215.703C707.175 218.367 708.812 220.784 710.869 222.816C712.926 224.848 715.363 226.454 718.041 227.543C720.719 228.632 723.586 229.183 726.477 229.163C729.368 229.143 732.227 228.554 734.89 227.429C737.553 226.304 739.969 224.665 741.998 222.606L748.123 216.404Z" fill="#CCCCCC"/>
<path d="M795.247 305.63L794.647 307.21C791.827 306.14 789.093 305.067 786.447 303.99C739.567 284.86 717.187 262.47 702.217 219.97L702.207 219.96C701.497 217.96 700.807 215.913 700.137 213.82L701.717 213.31C702.245 215.323 703.017 217.264 704.017 219.09C704.837 221.42 705.68 223.69 706.547 225.9C720.617 261.77 741.367 282.27 781.147 299.58C783.147 300.45 785.197 301.313 787.297 302.17C789.735 303.759 792.422 304.928 795.247 305.63Z" fill="#3F3D56"/>
<path d="M723.476 232.82L722.07 234.243L774.008 285.541L775.414 284.118L723.476 232.82Z" fill="#3F3D56"/>
<path d="M283.76 190.315L283.787 157.452L264.469 159.178L271.287 179.905L246.539 217.419C244.992 217.766 243.579 218.556 242.473 219.693C241.366 220.829 240.615 222.263 240.309 223.819C240.004 225.376 240.158 226.987 240.752 228.457C241.347 229.928 242.356 231.193 243.658 232.1C244.959 233.006 246.496 233.514 248.082 233.562C249.667 233.61 251.232 233.196 252.586 232.37C253.94 231.544 255.024 230.342 255.706 228.91C256.389 227.479 256.64 225.879 256.429 224.308L283.76 190.315Z" fill="white"/>
</g>
</svg>
