<svg width="17" height="19" viewBox="0 0 17 19" fill="none" xmlns="http://www.w3.org/2000/svg">
<path fill-rule="evenodd" clip-rule="evenodd" d="M8.5 1.7C4.97346 1.7 1.7 4.02387 1.7 7.65C1.7 8.98484 2.03016 9.96957 2.62014 10.7571C3.22153 11.5598 4.14584 12.2284 5.45383 12.8272L6.14771 13.1448L5.90638 13.8688C5.5601 14.9076 4.97247 15.8619 4.37883 16.6467C6.42997 16.0024 9.1092 15.0056 11.0035 13.7427C12.8818 12.4906 13.9374 11.505 14.5342 10.5868C15.1094 9.70182 15.3 8.81535 15.3 7.65C15.3 4.02387 12.0266 1.7 8.5 1.7ZM0 7.65C0 2.77613 4.37654 0 8.5 0C12.6234 0 17 2.77613 17 7.65C17 9.03465 16.7656 10.2732 15.9595 11.5133C15.1751 12.72 13.8932 13.8594 11.9465 15.1573C9.41639 16.8439 5.75101 18.0397 3.65306 18.6389C2.96365 18.8357 2.41447 18.4312 2.17807 18.0099C1.94521 17.5948 1.88774 16.9536 2.33251 16.4572C2.92773 15.7928 3.58023 14.9372 4.01724 14.014C2.89029 13.4165 1.94927 12.697 1.25961 11.7763C0.414672 10.6485 0 9.29016 0 7.65Z" fill="white"/>
<path d="M5.94844 7.65C5.94844 8.35414 5.3776 8.925 4.67344 8.925C3.96927 8.925 3.39844 8.35414 3.39844 7.65C3.39844 6.94583 3.96927 6.375 4.67344 6.375C5.3776 6.375 5.94844 6.94583 5.94844 7.65Z" fill="white"/>
<path d="M9.77253 7.65C9.77253 8.35414 9.20167 8.925 8.49753 8.925C7.79339 8.925 7.22253 8.35414 7.22253 7.65C7.22253 6.94583 7.79339 6.375 8.49753 6.375C9.20167 6.375 9.77253 6.94583 9.77253 7.65Z" fill="white"/>
<path d="M12.3258 8.925C13.0299 8.925 13.6008 8.35414 13.6008 7.65C13.6008 6.94583 13.0299 6.375 12.3258 6.375C11.6216 6.375 11.0508 6.94583 11.0508 7.65C11.0508 8.35414 11.6216 8.925 12.3258 8.925Z" fill="white"/>
</svg>
