<svg width="18" height="18" viewBox="0 0 18 18" fill="none" xmlns="http://www.w3.org/2000/svg">
<path d="M17.9811 4.34995C17.9764 4.31519 17.9705 4.28398 17.9616 4.25393L17.9628 4.25865C17.9321 4.12788 17.8696 4.01479 17.784 3.92408L17.7846 3.92467L14.0683 0.216172C13.9769 0.130174 13.8624 0.0677378 13.7355 0.0382866L13.7308 0.0371085C13.706 0.0300402 13.6753 0.023561 13.644 0.0194378L13.6405 0.0188488C13.6145 0.0111914 13.5826 0.00471219 13.5496 0.000589017L13.546 0H7.97193C7.56472 0 7.23423 0.329854 7.23423 0.736281V13.7172C7.23423 14.1236 7.56472 14.4535 7.97193 14.4535H17.2623C17.6695 14.4529 17.9994 14.1236 18 13.7172V4.44478C17.9953 4.40826 17.9888 4.37586 17.9799 4.34406L17.9811 4.34995ZM14.2837 2.51396L15.4812 3.7085H14.2837V2.51396ZM8.70964 12.9815V1.47315H12.8083V4.44537C12.8083 4.85179 13.1388 5.18165 13.546 5.18165H16.5246V12.9815H8.70964ZM10.0281 15.3376C9.62085 15.3376 9.29036 15.6675 9.29036 16.0739V16.5274H1.47541V5.01849H5.45902C5.86623 5.01849 6.19672 4.68863 6.19672 4.28221C6.19672 3.87578 5.86623 3.54593 5.45902 3.54593H0.737705C0.330492 3.54593 0 3.87578 0 4.28221V17.2637C0 17.6701 0.330492 18 0.737705 18H10.0281C10.4353 17.9994 10.7652 17.6701 10.7658 17.2637V16.0739C10.7652 15.6675 10.4353 15.3382 10.0281 15.3376Z" fill="white"/>
</svg>
