<svg width="38" height="38" viewBox="0 0 38 38" fill="none" xmlns="http://www.w3.org/2000/svg">
<path d="M37.5904 31.5453L35.4753 22.3916C34.4014 18.3222 30.7292 15.4817 26.5206 15.4653L12.0104 15.4089C7.80176 15.3926 4.10697 18.2045 3.00209 22.2654L0.815991 31.4024C0.255097 34.0238 1.75973 36.6472 4.30624 37.4869L4.43172 37.5274C6.78865 38.3047 9.36746 37.3248 10.6147 35.1791L12.4968 32.4193C12.9694 31.6055 13.8412 31.1055 14.7818 31.1092L23.6271 31.1436C24.5678 31.1472 25.435 31.6539 25.9019 32.4714L27.7626 35.2458C28.993 37.4012 31.5641 38.401 33.9271 37.642L34.0528 37.6025C36.6059 36.7826 38.1308 34.171 37.5904 31.5453ZM14.5333 25.3269L11.5204 25.3152L11.5087 28.3281L8.8857 28.3179L8.89741 25.305L5.88506 25.2933L5.89525 22.6715L8.9076 22.6832L8.9193 19.6715L11.5423 19.6817L11.5306 22.6934L14.5435 22.7051L14.5333 25.3269ZM27.8308 19.1173C28.7432 19.1208 29.4796 19.8623 29.476 20.7746C29.4725 21.6857 28.7303 22.4214 27.818 22.4179C26.907 22.4144 26.1712 21.6729 26.1748 20.7618C26.1783 19.8494 26.9198 19.1137 27.8308 19.1173ZM24.5046 25.7069C23.5936 25.7034 22.8572 24.9613 22.8607 24.0484C22.8643 23.1379 23.6064 22.4016 24.5174 22.4051C25.4291 22.4087 26.1649 23.1507 26.1614 24.0612C26.1578 24.9741 25.4163 25.7104 24.5046 25.7069ZM27.7924 29.0197C26.8813 29.0162 26.1456 28.2747 26.1491 27.3636C26.1527 26.4512 26.8941 25.7155 27.8052 25.7191C28.7175 25.7226 29.4539 26.4641 29.4504 27.3764C29.4468 28.2875 28.7047 29.0233 27.7924 29.0197ZM31.1064 25.7326C30.1954 25.729 29.4596 24.987 29.4632 24.074C29.4667 23.1636 30.2082 22.4273 31.1193 22.4308C32.0311 22.4343 32.7673 23.1764 32.7638 24.0869C32.7602 24.9998 32.0182 25.7361 31.1064 25.7326Z" fill="white"/>
<path d="M12.448 4.38926C14.4092 3.04966 16.7715 2.27088 19.32 2.28027C21.8684 2.29077 24.2241 3.0878 26.1754 4.44261C26.6761 4.79017 27.3641 4.66596 27.7122 4.16588C28.0597 3.66455 27.9361 2.97719 27.4354 2.62903C25.1339 1.03016 22.3365 0.0835631 19.3286 0.0724633C16.3205 0.0601826 13.5153 0.985001 11.2022 2.56594C10.6988 2.91019 10.5698 3.59717 10.9134 4.1006C11.2577 4.60403 11.9446 4.73299 12.448 4.38926Z" fill="white"/>
<path d="M24.6369 8.32177C24.9349 7.89233 24.8287 7.3024 24.3999 7.0044L24.3994 7.00439C22.9537 5.99895 21.193 5.40318 19.3025 5.39643C17.4119 5.38849 15.6467 5.97048 14.1926 6.96473C13.7609 7.25932 13.6501 7.84847 13.9448 8.27956C14.2394 8.71131 14.8285 8.82204 15.2596 8.52738C16.4128 7.74029 17.7975 7.28364 19.2951 7.28879C20.7926 7.29528 22.1732 7.7626 23.3195 8.5587C23.749 8.85671 24.3384 8.75056 24.6369 8.32177Z" fill="white"/>
<path d="M17.191 11.3615C16.8309 11.6072 16.7384 12.0978 16.9835 12.4573C17.2292 12.8173 17.7198 12.9098 18.0792 12.6648C18.4226 12.4308 18.8316 12.2957 19.2788 12.2974C19.7254 12.2991 20.1338 12.4381 20.4742 12.6736C20.8318 12.9219 21.3231 12.8332 21.5715 12.4758C21.82 12.1182 21.7313 11.6268 21.3737 11.3784C20.7826 10.9672 20.0592 10.7234 19.2849 10.7204C18.51 10.7167 17.7853 10.956 17.191 11.3615Z" fill="white"/>
</svg>
