<svg width="32" height="18" viewBox="0 0 32 18" fill="none" xmlns="http://www.w3.org/2000/svg">
<path d="M30.9919 0H0.821008C0.411228 0 0.0791016 0.315 0.0791016 0.703125V16.6406C0.0791016 17.0287 0.411228 17.3438 0.821008 17.3438H30.9919C31.4016 17.3438 31.7338 17.0287 31.7338 16.6406V0.703125C31.7338 0.315 31.4016 0 30.9919 0ZM30.25 15.9375H1.56291V1.40625H30.25V15.9375Z" fill="white"/>
<path d="M16.8957 10.1315V9.32529C17.3903 8.91748 17.6102 8.06974 17.6102 7.22365C17.6102 5.7567 16.8225 5.3681 15.8326 5.3681C14.8426 5.3681 14.0129 5.7567 14.0129 7.22365C14.0129 8.06951 14.4229 8.91748 14.6702 9.32529V10.1315C13.681 10.2719 12.4445 10.6448 12.4445 11.699L12.4443 11.7187V13.1803L14.2093 14.2969H18.7018L19.3311 11.7494C19.3311 10.6952 17.8849 10.2717 16.8957 10.1315Z" fill="white"/>
<path d="M28.484 4.74181C27.3484 4.74181 26.4071 3.87744 26.4071 2.80119C26.4071 2.67158 26.279 2.57806 26.1425 2.57806H5.23289C5.09613 2.57806 4.98559 2.67158 4.98559 2.80119C4.98559 3.87767 4.12201 4.74767 2.9864 4.74767C2.84964 4.74767 2.79944 4.84705 2.79944 4.97642V12.0878C2.79944 12.2174 2.84964 12.3222 2.9864 12.3222C4.12201 12.3222 5.01576 13.2093 5.01576 14.2856C5.01576 14.4152 5.09613 14.5314 5.23289 14.5314H26.1425C26.2793 14.5314 26.3898 14.4152 26.3898 14.2856C26.3898 13.2093 27.3486 12.3281 28.4842 12.3281C28.621 12.3281 28.7664 12.2172 28.7664 12.0878V4.97619C28.7662 4.84705 28.6207 4.74181 28.484 4.74181ZM7.16679 10.2768C6.21814 10.2768 5.44928 9.54814 5.44928 8.64908C5.44928 7.75025 6.21814 7.02135 7.16679 7.02135C8.11545 7.02135 8.88431 7.75025 8.88431 8.64908C8.88431 9.54791 8.11545 10.2768 7.16679 10.2768ZM15.8167 13.0938C13.6938 13.0938 11.9734 10.9989 11.9734 8.41447C11.9734 5.83002 13.6938 3.73541 15.8167 3.73541C17.939 3.73541 19.66 5.83025 19.66 8.41447C19.66 10.9987 17.939 13.0938 15.8167 13.0938ZM24.4537 10.2768C23.5056 10.2768 22.7362 9.54814 22.7362 8.64908C22.7362 7.75025 23.5056 7.02135 24.4537 7.02135C25.4024 7.02135 26.1712 7.75025 26.1712 8.64908C26.1715 9.54791 25.4024 10.2768 24.4537 10.2768Z" fill="white"/>
</svg>
