<svg width="33" height="31" viewBox="0 0 33 31" fill="none" xmlns="http://www.w3.org/2000/svg">
<path d="M16.303 12.4274C16.0796 12.6406 15.9399 12.9054 15.8794 13.2168C15.8191 13.5338 15.875 13.8734 16.0281 14.2505L18.2395 12.155C17.9019 11.9983 17.5577 11.9474 17.2043 11.9983C16.8513 12.0498 16.5515 12.1959 16.303 12.4274Z" fill="white"/>
<path d="M32.4774 0.2627C32.1956 -0.00772608 30.7915 0.0437725 29.5273 0.0423616L24.1397 0.0346015C22.8756 0.0331906 21.209 -0.0706296 20.4507 0.088334C20.0192 0.17875 19.5679 0.355233 19.2155 0.689151L0.969784 17.6632C0.969784 17.6632 -1.04274 19.4008 1.0405 21.3712L9.56999 29.458C9.56999 29.458 11.4153 31.2041 13.3171 29.4029L31.4253 12.2438C31.4253 12.2438 32.8035 10.6665 32.8035 9.42674L32.8057 3.03586C32.8057 1.83705 32.7589 0.533009 32.4774 0.2627ZM20.7173 16.0776L18.8893 14.746C19.2915 14.175 19.3824 13.6128 19.1484 13.053L16.6476 15.4175C17.3944 16.6496 17.7337 17.6442 17.6638 18.4145C17.5944 19.1827 17.2108 19.8972 16.5243 20.5475C15.7506 21.2818 14.8685 21.6721 13.8778 21.7336C12.8814 21.7907 11.9095 21.4822 10.9638 20.808L9.76849 21.9425L8.84063 21.0635L10.001 19.9636C9.354 19.1805 9.03516 18.3539 9.03516 17.4798C9.03516 16.6114 9.38861 15.714 10.1026 14.7991L11.9445 16.209C11.6707 16.5967 11.5076 16.999 11.4473 17.4085C11.387 17.8187 11.4175 18.188 11.536 18.5085L14.2126 15.9732C13.6129 14.9572 13.3659 14.0373 13.4598 13.2069C13.5495 12.3794 13.9433 11.6395 14.6346 10.9872C15.3327 10.3263 16.135 9.98182 17.0512 9.94937C17.9667 9.91692 18.8242 10.2134 19.6325 10.8375L20.2651 10.2381L21.1911 11.1157L20.5585 11.7151C21.1515 12.4339 21.4607 13.1611 21.4815 13.9017C21.4988 14.6415 21.2448 15.3701 20.7173 16.0776ZM29.5227 5.88051C28.7249 6.63735 27.4339 6.63735 26.6383 5.88051C25.8425 5.1279 25.8425 3.90287 26.6383 3.14815C27.4339 2.39131 28.7249 2.39131 29.5227 3.14815C30.3199 3.90287 30.3199 5.1279 29.5227 5.88051Z" fill="white"/>
<path d="M12.3718 19.4721C12.751 19.7186 13.1585 19.8203 13.5932 19.7877C14.0305 19.7547 14.4097 19.5873 14.7285 19.283C15.0138 19.0161 15.1725 18.7026 15.212 18.3482C15.2518 17.991 15.1327 17.5787 14.8634 17.1112L12.3718 19.4721Z" fill="white"/>
</svg>
