<svg width="591" height="669" viewBox="0 0 591 669" fill="none" xmlns="http://www.w3.org/2000/svg">
<path d="M570.109 134.261C576.021 135.778 581.819 137.386 587.526 139.04V181.143C581.819 179.49 576.021 177.882 570.109 176.365V134.261Z" fill="#53ACFF"/>
<path opacity="0.5" d="M529.752 136.027C536.071 137.228 542.299 138.519 548.437 139.878V171.178C542.299 169.819 536.071 168.528 529.752 167.328V136.027Z" fill="#53ACFF"/>
<path d="M486.832 101.737C493.513 102.598 500.104 103.549 506.627 104.591V163.319C500.104 162.3 493.491 161.348 486.832 160.465V101.737Z" fill="#53ACFF"/>
<path opacity="0.5" d="M441.715 64.73C448.713 65.2282 455.621 65.8171 462.484 66.4966V157.702C455.621 157.023 448.713 156.434 441.715 155.936V64.73Z" fill="#53ACFF"/>
<path opacity="0.5" d="M394.674 84.2983C401.944 84.4116 409.146 84.6154 416.303 84.9099V154.486C409.146 154.192 401.944 153.988 394.674 153.875V84.2983Z" fill="#53ACFF"/>
<path d="M347.181 11.4604C354.27 11.166 361.427 10.9848 368.606 10.8716V153.875C361.404 153.988 354.27 154.192 347.181 154.464V11.4604Z" fill="#53ACFF"/>
<path d="M301.271 40.9256C308.088 40.2688 314.996 39.6799 321.926 39.1816V155.89C314.973 156.388 308.088 156.977 301.271 157.634V40.9256Z" fill="#53ACFF"/>
<path d="M257.267 2.80843C263.767 1.78924 270.357 0.860647 277.016 0V160.375C270.357 161.235 263.767 162.164 257.267 163.183V2.80843Z" fill="#53ACFF"/>
<g opacity="0.5">
<g opacity="0.11">
<path d="M360.881 506.966C353.973 502.98 345.48 502.98 338.572 506.966L205.648 583.541C203.564 584.741 203.564 587.776 205.648 588.976L339.682 666.367C345.775 669.877 353.271 669.877 359.364 666.367L493.602 589.067C495.686 587.867 495.686 584.832 493.602 583.631L360.881 507.011V506.966Z" fill="url(#paint0_linear_1053_88597)"/>
</g>
<g opacity="0.11">
<path d="M360.881 484.566C353.973 480.58 345.48 480.58 338.572 484.566L205.648 561.141C203.564 562.341 203.564 565.376 205.648 566.576L339.682 643.967C345.775 647.477 353.271 647.477 359.364 643.967L493.602 566.667C495.686 565.467 495.686 562.432 493.602 561.231L360.881 484.611V484.566Z" fill="url(#paint1_linear_1053_88597)"/>
</g>
<g opacity="0.11">
<path d="M360.881 462.189C353.973 458.203 345.48 458.203 338.572 462.189L205.648 538.764C203.564 539.965 203.564 543 205.648 544.2L339.682 621.59C345.775 625.101 353.271 625.101 359.364 621.59L493.602 544.291C495.686 543.09 495.686 540.055 493.602 538.855L360.881 462.235V462.189Z" fill="url(#paint2_linear_1053_88597)"/>
</g>
<g opacity="0.11">
<path d="M360.881 439.789C353.973 435.803 345.48 435.803 338.572 439.789L205.648 516.364C203.564 517.565 203.564 520.6 205.648 521.8L339.682 599.19C345.775 602.701 353.271 602.701 359.364 599.19L493.602 521.891C495.686 520.69 495.686 517.655 493.602 516.455L360.881 439.835V439.789Z" fill="url(#paint3_linear_1053_88597)"/>
</g>
<path opacity="0.11" d="M493.602 516.41L360.881 439.789C353.973 435.803 345.48 435.803 338.572 439.789L205.648 516.364C204.606 516.976 204.085 518.018 204.085 519.082V586.258C204.085 587.322 204.606 588.364 205.648 588.976L339.682 666.366C345.775 669.877 353.271 669.877 359.364 666.366L493.602 589.066C494.644 588.455 495.165 587.413 495.165 586.349V519.173C495.165 518.108 494.644 517.066 493.602 516.455V516.41Z" fill="url(#paint4_linear_1053_88597)"/>
</g>
<g opacity="0.11">
<path d="M360.881 414.334C353.973 410.348 345.48 410.348 338.572 414.334L205.648 490.909C203.564 492.109 203.564 495.144 205.648 496.344L339.682 573.735C345.775 577.245 353.271 577.245 359.364 573.735L493.602 496.435C495.686 495.235 495.686 492.2 493.602 490.999L360.881 414.379V414.334Z" fill="url(#paint5_linear_1053_88597)"/>
</g>
<g opacity="0.11">
<path d="M360.881 391.934C353.973 387.948 345.48 387.948 338.572 391.934L205.648 468.509C203.564 469.709 203.564 472.744 205.648 473.945L339.682 551.335C345.775 554.845 353.271 554.845 359.364 551.335L493.602 474.035C495.686 472.835 495.686 469.8 493.602 468.599L360.881 391.979V391.934Z" fill="url(#paint6_linear_1053_88597)"/>
</g>
<g opacity="0.11">
<path d="M360.881 369.557C353.973 365.571 345.48 365.571 338.572 369.557L205.648 446.132C203.564 447.333 203.564 450.368 205.648 451.568L339.682 528.958C345.775 532.469 353.271 532.469 359.364 528.958L493.602 451.659C495.686 450.458 495.686 447.423 493.602 446.223L360.881 369.603V369.557Z" fill="url(#paint7_linear_1053_88597)"/>
</g>
<g opacity="0.11">
<path d="M360.881 347.158C353.973 343.171 345.48 343.171 338.572 347.158L205.648 423.733C203.564 424.933 203.564 427.968 205.648 429.168L339.682 506.558C345.775 510.069 353.271 510.069 359.364 506.558L493.602 429.259C495.686 428.058 495.686 425.024 493.602 423.823L360.881 347.203V347.158Z" fill="url(#paint8_linear_1053_88597)"/>
</g>
<path opacity="0.11" d="M493.602 423.778L360.881 347.158C353.973 343.171 345.48 343.171 338.572 347.158L205.648 423.732C204.606 424.344 204.085 425.386 204.085 426.45V493.626C204.085 494.691 204.606 495.732 205.648 496.344L339.682 573.734C345.775 577.245 353.271 577.245 359.364 573.734L493.602 496.435C494.644 495.823 495.165 494.781 495.165 493.717V426.541C495.165 425.476 494.644 424.435 493.602 423.823V423.778Z" fill="url(#paint9_linear_1053_88597)"/>
<g opacity="0.11">
<path d="M360.881 321.702C353.973 317.715 345.48 317.715 338.572 321.702L205.648 398.276C203.564 399.477 203.564 402.512 205.648 403.712L339.682 481.102C345.775 484.613 353.271 484.613 359.364 481.102L493.602 403.803C495.686 402.602 495.686 399.567 493.602 398.367L360.881 321.747V321.702Z" fill="url(#paint10_linear_1053_88597)"/>
</g>
<g opacity="0.11">
<path d="M360.881 299.302C353.973 295.316 345.48 295.316 338.572 299.302L205.648 375.877C203.564 377.077 203.564 380.112 205.648 381.313L339.682 458.703C345.775 462.214 353.271 462.214 359.364 458.703L493.602 381.403C495.686 380.203 495.686 377.168 493.602 375.968L360.881 299.347V299.302Z" fill="url(#paint11_linear_1053_88597)"/>
</g>
<g opacity="0.11">
<path d="M360.881 276.924C353.973 272.938 345.48 272.938 338.572 276.924L205.648 353.499C203.564 354.7 203.564 357.734 205.648 358.935L339.682 436.325C345.775 439.836 353.271 439.836 359.364 436.325L493.602 359.025C495.686 357.825 495.686 354.79 493.602 353.59L360.881 276.969V276.924Z" fill="url(#paint12_linear_1053_88597)"/>
</g>
<g opacity="0.11">
<path d="M360.881 254.525C353.973 250.539 345.48 250.539 338.572 254.525L205.648 331.1C203.564 332.301 203.564 335.335 205.648 336.536L339.682 413.926C345.775 417.437 353.271 417.437 359.364 413.926L493.602 336.626C495.686 335.426 495.686 332.391 493.602 331.191L360.881 254.571V254.525Z" fill="url(#paint13_linear_1053_88597)"/>
</g>
<path opacity="0.5" d="M493.602 331.146L360.881 254.525C353.973 250.539 345.48 250.539 338.572 254.525L205.648 331.1C204.606 331.712 204.085 332.754 204.085 333.818V400.994C204.085 402.058 204.606 403.1 205.648 403.712L339.682 481.102C345.775 484.612 353.271 484.612 359.364 481.102L493.602 403.802C494.644 403.191 495.165 402.149 495.165 401.084V333.909C495.165 332.844 494.644 331.802 493.602 331.191V331.146Z" fill="url(#paint14_linear_1053_88597)"/>
<g opacity="0.11">
<path d="M360.881 254.525C353.973 250.539 345.48 250.539 338.572 254.525L205.648 331.1C203.564 332.301 203.564 335.335 205.648 336.536L339.682 413.926C345.775 417.437 353.271 417.437 359.364 413.926L493.602 336.626C495.686 335.426 495.686 332.391 493.602 331.191L360.881 254.571V254.525Z" fill="url(#paint15_linear_1053_88597)"/>
</g>
<path d="M493.602 333.5L359.364 410.8C353.272 414.31 345.775 414.31 339.682 410.8L205.648 333.41C205.127 333.115 204.742 332.708 204.493 332.232C203.7 333.659 204.085 335.584 205.648 336.49L339.682 413.88C345.775 417.391 353.272 417.391 359.364 413.88L493.602 336.58C495.188 335.675 495.573 333.727 494.757 332.323C494.486 332.775 494.101 333.206 493.602 333.5Z" fill="url(#paint16_linear_1053_88597)"/>
<path d="M219.717 357.144L223.023 359.069V356.849L219.717 354.947V357.144Z" fill="#53ACFF"/>
<path d="M219.717 372.115L223.023 374.041V361.086L219.717 359.183V372.115Z" fill="#53ACFF"/>
<path d="M219.717 379.296L223.023 381.199V376.057L219.717 374.155V379.296Z" fill="#53ACFF"/>
<path d="M219.717 386.7L223.023 388.603V383.462L219.717 381.559V386.7Z" fill="#53ACFF"/>
<path d="M214.802 361.471L218.086 363.373V358.232L214.802 356.33V361.471Z" fill="#53ACFF"/>
<path d="M214.802 371.3L218.086 373.202V365.66L214.802 363.758V371.3Z" fill="#53ACFF"/>
<path d="M214.802 380.36L218.086 382.263V375.785L214.802 373.883V380.36Z" fill="#53ACFF"/>
<path d="M219.717 394.13L223.023 396.032V390.891L219.717 388.989V394.13Z" fill="#53ACFF"/>
<path d="M214.802 354.313L218.086 356.216V353.996L214.802 352.094V354.313Z" fill="#53ACFF"/>
<path d="M217.247 399.906L223.022 403.235V401.083L217.247 397.754V399.906Z" fill="#53ACFF"/>
<path opacity="0.2" d="M349.627 375.242C389.042 375.242 420.993 356.797 420.993 334.044C420.993 311.291 389.042 292.846 349.627 292.846C310.213 292.846 278.262 311.291 278.262 334.044C278.262 356.797 310.213 375.242 349.627 375.242Z" fill="#180D5B"/>
<path d="M350.012 300.072L350.148 300.706L350.351 300.276C350.351 300.276 351.325 303.605 350.487 305.259C349.649 306.912 348.426 308.973 346.66 311.283C344.893 313.616 342.062 318.44 341.337 319.369C340.59 320.297 336.287 323.899 330.896 324.465C325.506 325.031 324.124 321.928 324.577 320.275C325.03 318.621 327.929 314.182 331.077 310.581C334.226 306.98 336.649 302.337 336.649 302.337L350.034 300.072H350.012Z" fill="#3F3E44"/>
<path d="M333.818 285.441C333.818 285.441 333.977 288.906 333.614 290.31C333.252 291.737 325.347 292.167 322.516 292.53C319.708 292.892 314.793 294.908 313.276 295.655C311.736 296.403 301.453 297.49 300.208 293.708C298.962 289.925 305.371 286.732 309.72 285.735C314.068 284.739 321.18 282.564 321.18 282.564L333.841 285.441H333.818Z" fill="#3F3E44"/>
<path d="M361.27 217.018C361.27 217.018 361.542 226.712 358.326 240.097C355.087 253.482 355.472 262.836 355.472 262.836C355.472 262.836 358.847 277.988 355.88 288.316C352.913 298.644 350.376 301.543 350.376 301.543C350.376 301.543 344.442 309.424 336.628 302.358C336.628 302.358 341.022 288.157 341.543 276.878C341.543 276.878 337.67 268.589 336.334 261.183C336.334 261.183 335.224 272.96 334.545 277.716C334.545 277.716 335.224 284.692 333.367 287.523C331.51 290.354 323.107 291.17 320.435 286.255C317.762 281.34 322.654 283.741 321.182 261.183C321.182 261.183 313.459 251.557 312.349 233.823C311.239 216.09 311.352 209.068 312.349 205.626C313.346 202.161 330.491 189.727 330.491 189.727L340.162 202.07L361.293 217.063L361.27 217.018Z" fill="#222121"/>
<path d="M335.903 265.509C335.428 263.878 334.997 262.202 334.703 260.571C334.703 260.571 333.593 272.349 332.914 277.105C332.914 277.105 333.593 284.081 331.736 286.912C330.536 288.723 326.64 289.697 323.288 288.859C326.867 290.581 331.94 289.584 333.344 287.478C335.201 284.647 334.522 277.671 334.522 277.671C334.929 274.795 335.496 269.359 335.881 265.509H335.903Z" fill="url(#paint17_linear_1053_88597)"/>
<path d="M361.268 217.019L340.137 202.025L330.466 189.682C330.466 189.682 330.194 189.885 329.719 190.225L338.506 201.436L359.638 216.43C359.638 216.43 359.909 226.123 356.693 239.509C353.454 252.894 353.839 262.248 353.839 262.248C353.839 262.248 357.214 277.4 354.247 287.727C351.28 298.055 348.744 300.954 348.744 300.954C348.744 300.954 345.097 305.756 339.752 304.465C345.958 307.318 350.352 301.52 350.352 301.52C350.352 301.52 352.888 298.621 355.855 288.294C358.822 277.966 355.448 262.814 355.448 262.814C355.448 262.814 355.063 253.46 358.301 240.075C361.54 226.689 361.246 216.996 361.246 216.996L361.268 217.019Z" fill="url(#paint18_linear_1053_88597)"/>
<path d="M323.128 236.791C320.342 233.439 318.779 222.976 318.779 222.976C318.779 222.976 323.128 231.786 326.253 234.345C329.379 236.904 332.051 242.046 332.618 245.375C333.184 248.727 336.332 261.138 336.332 261.138C336.332 261.138 335.222 272.916 334.543 277.672C334.543 277.672 335.222 284.648 333.365 287.479C332.98 288.045 332.346 288.521 331.53 288.906C331.53 288.77 332.006 273.323 331.53 266.778C331.055 260.21 325.936 240.143 323.15 236.791H323.128Z" fill="#3F3E44"/>
<path d="M386.975 145.517C386.975 145.517 394.359 159.944 395.106 161.054C395.854 162.164 409.669 179.784 411.006 189.953C411.006 189.953 412.047 193.894 407.291 197.382C402.535 200.87 378.527 216.112 377.055 216.339C375.583 216.565 366.863 212.33 366.501 202.818C366.501 202.818 385.299 194.053 389.399 189.659C389.399 189.659 382.083 177.361 378.505 173.737C377.599 172.831 377.078 171.178 376.783 169.185C375.606 161.099 378.777 152.991 384.801 147.487L386.998 145.494L386.975 145.517Z" fill="#34343B"/>
<path d="M331.779 111.726C331.779 111.726 320.364 115.961 316.446 114.511C312.55 113.062 302.947 111.839 296.379 108.147C289.811 104.478 261.07 97.0494 256.835 96.8003C256.835 96.8003 256.767 96.9588 257.469 97.2759C258.171 97.5703 261.138 97.8421 261.931 101.171C262.723 104.523 260.957 108.532 260.481 108.804C260.006 109.076 259.711 107.898 256.971 106.63C254.23 105.361 252.531 105.452 252.531 105.452L251.49 106.766L250.855 107.74C250.855 107.74 252.214 111.794 255.883 112.065C259.553 112.337 283.198 122.212 284.67 122.665C286.165 123.118 306.005 131.656 309.719 132.993C313.434 134.329 316.333 136.028 316.333 136.028C316.333 136.028 327.929 128.304 328.291 128.304C328.653 128.304 331.756 111.726 331.756 111.726H331.779Z" fill="#222121"/>
<path d="M228.457 91.9985C228.932 92.1117 234.911 94.1274 234.911 94.1274C234.911 94.1274 232.533 95.3505 232.307 96.4376C232.08 97.5247 232.783 103.572 233.009 103.934C233.235 104.297 234.459 105.135 234.821 105.338C235.183 105.565 236.112 107.649 236.973 107.377C237.833 107.128 238.082 106.041 238.082 106.041C238.082 106.041 238.762 105.701 238.966 105.565C239.169 105.429 243.45 105.814 244.854 106.743C246.258 107.649 249.497 108.147 250.811 107.717C252.124 107.309 254.072 106.335 254.503 106.109C254.503 106.109 255.975 106.335 256.79 106.765C257.605 107.196 260.21 108.94 260.595 109.098C260.98 109.257 266.325 98.793 256.79 96.8226C256.79 96.8226 252.827 96.4602 251.128 95.6449C249.429 94.8295 244.582 91.1152 242.816 91.0472C241.027 90.9793 239.215 91.5681 239.215 91.5681C239.215 91.5681 228.434 88.4879 227.551 89.4392C226.667 90.4131 227.958 91.8852 228.434 91.9985H228.457ZM236.248 99.1781C237.516 99.2234 238.422 97.8645 238.422 97.8645C239.26 98.408 240.075 97.7286 240.075 97.7286C240.075 97.9324 241.548 98.2042 241.548 98.2042C241.548 98.2042 242.227 98.7704 243.042 99.3819C243.88 99.9934 242.771 101.805 242.771 101.805C241.955 101.873 241.004 101.466 240.211 101.103C239.419 100.718 238.716 100.763 238.173 100.56C237.629 100.356 236.225 99.1781 236.225 99.1781H236.248Z" fill="#FCD1C5"/>
<path d="M312.326 205.581C313.323 202.116 330.468 189.682 330.468 189.682L335.269 195.819L339.391 211.832L361.27 218.649C361.27 218.649 360.115 229.588 342.29 228.343C324.466 227.074 322.382 213.259 322.382 213.259C322.382 213.259 320.412 217.789 311.624 218.989C311.42 211.673 311.692 207.868 312.349 205.604L312.326 205.581Z" fill="#3F3E44"/>
<path d="M365.302 120.717L368.314 128.44C368.314 128.44 382.809 140.988 386.977 145.517C386.977 145.517 379.82 159.265 378.483 173.76C378.483 173.76 371.847 179.173 369.854 181.665C367.839 184.156 362.765 195.661 361.157 199.466C359.549 203.271 364.056 214.686 364.056 214.686C364.056 214.686 357.896 226.079 347.976 225.694C338.056 225.331 331.284 219.261 330.038 208.481C328.77 197.7 329.155 196.137 329.155 196.137C329.155 196.137 324.693 209.364 317.944 209.364C311.194 209.364 300.436 197.881 300.436 197.881C300.436 197.881 293.189 191.313 293.868 188.323C294.548 185.356 310.923 159.628 311.806 155.392C312.689 151.157 316.381 136.005 316.381 136.005L331.827 111.703L341.249 112.156L365.37 120.695L365.302 120.717Z" fill="#34343B"/>
<path d="M347.542 222.975C338.052 222.613 331.507 217.019 329.854 207.099C329.899 207.552 329.967 208.005 330.012 208.503C331.28 219.284 338.03 225.331 347.95 225.716C357.87 226.078 364.03 214.709 364.03 214.709C364.03 214.709 363.713 213.871 363.26 212.602C361.833 214.935 356.081 223.338 347.542 222.998V222.975Z" fill="url(#paint19_linear_1053_88597)"/>
<path d="M365.301 120.717C365.301 120.717 365.369 125.315 363.557 129.89C361.745 134.465 355.788 160.216 342.313 169.004L337.126 172.288V155.913C337.126 155.913 337.217 145.834 339.527 139.425C341.837 133.038 341.746 125.224 341.746 125.224C341.746 125.224 345.529 124.182 345.529 124.25C345.529 124.318 365.301 120.694 365.301 120.694V120.717Z" fill="#F0F6FF"/>
<path d="M348.698 132.675C348.698 132.675 346.297 133.649 345.278 132.086C344.236 130.523 343.194 127.375 343.466 125.925C343.466 125.925 337.079 126.243 335.811 122.891C334.543 119.539 335.924 118.678 336.128 117.636C336.332 116.594 336.513 113.854 337.374 111.883L337.464 111.023C337.464 111.023 336.173 109.913 336.762 108.735C337.351 107.557 340.839 103.934 341.201 103.299C341.564 102.688 341.111 98.1809 342.47 95.916C343.828 93.6738 346.456 90.5483 346.456 90.5483C346.456 90.5483 360.045 79.9488 370.758 90.5483C381.448 101.148 365.322 120.671 365.322 120.671C365.322 120.671 364.031 126.967 360.906 129.481C357.78 131.995 348.698 132.629 348.698 132.629V132.675Z" fill="#FCD1C5"/>
<path d="M358.64 106.856C358.64 106.471 358.686 106.063 358.799 105.701C359.206 104.546 359.886 101.397 356.602 99.0193C352.525 96.0523 345.3 93.3798 345.527 90.3901C345.753 87.4232 357.123 80.0624 365.525 84.0032C373.928 87.9441 381.81 97.9095 376.08 108.441C370.35 118.995 365.299 120.694 365.299 120.694C365.299 120.694 363.6 120.332 365.118 118.588C366.658 116.821 369.444 112.405 367.133 111C364.823 109.596 360.814 112.608 360.271 113.288C360.067 113.537 359.863 113.877 359.682 114.171C359.388 114.669 358.753 114.873 358.233 114.624L358.029 114.534C357.508 114.284 357.236 113.673 357.44 113.129L358.436 110.389C358.595 109.981 358.663 109.551 358.64 109.121L358.595 106.833L358.64 106.856Z" fill="black"/>
<path d="M349.037 135.665C349.037 135.665 352.072 137.817 353.839 141.939C353.839 141.939 350.6 138.587 348.766 137.93C348.766 137.93 345.187 139.606 345.187 140.716C345.187 141.825 344.847 148.507 344.009 152.108C343.171 155.709 343.262 168.347 343.262 168.347L340.997 169.842L339.933 164.293L340.34 152.47L342.447 141.712C342.447 141.712 342.832 137.635 343.013 137.432C343.171 137.205 349.015 135.665 349.015 135.665H349.037Z" fill="#C4CCD6"/>
<path d="M349.038 135.665C349.038 135.665 345.573 131.996 343.829 131.905C342.085 131.837 341.133 132.766 341.111 132.992C341.088 133.219 339.435 138.971 339.435 138.971C339.435 138.971 336.173 149.005 336.513 160.714C336.853 172.423 337.125 172.333 337.125 172.333L341.405 169.615C341.405 169.615 340.25 161.235 342.583 151.541C344.916 141.848 342.855 140.398 343.987 139.402C345.097 138.405 349.581 136.865 349.038 135.687V135.665Z" fill="#222121"/>
<path d="M369.852 181.665C367.836 184.156 362.876 195.661 361.268 199.444C360.997 200.055 360.793 200.893 360.815 201.822C360.408 202.094 360.159 202.252 360.159 202.252L357.984 200.123C357.984 200.123 359.932 193.102 363.058 184.405C366.183 175.708 378.504 173.76 378.504 173.76C378.504 173.76 371.868 179.173 369.875 181.665H369.852Z" fill="#222121"/>
<path d="M366.499 203.134C366.499 203.134 362.966 198.016 361.856 197.336C361.856 197.336 362.105 198.786 360.112 199.669C358.097 200.553 347.61 204.629 347.248 205.105C346.886 205.581 347.271 206.169 347.95 206.305C347.95 206.305 345.776 207.053 344.892 207.03C344.009 207.03 342.809 208.14 343.398 209.114C343.987 210.088 344.485 209.997 344.485 209.997C344.485 209.997 344.236 211.084 344.87 211.311C345.527 211.56 347.089 211.582 347.089 211.582C347.089 211.582 346.772 212.67 347.656 213.077C348.539 213.508 352.774 213.961 352.774 213.961C352.774 213.961 356.104 213.598 357.055 213.598C358.006 213.598 362.332 214.64 364.166 214.368C366.001 214.119 372.071 211.945 372.705 211.582C373.316 211.22 366.522 203.089 366.522 203.089L366.499 203.134Z" fill="#FCD1C5"/>
<path d="M369.014 130.954L368.561 137.862L364.824 139.04L367.338 141.101C367.338 141.101 357.214 164.112 344.281 171.405C344.281 171.405 356.625 167.011 368.289 141.305C368.289 141.305 367.066 139.855 366.681 139.447L369.285 138.292L369.014 130.954Z" fill="#222121"/>
<path d="M335.947 130.229C335.947 130.229 331.372 153.716 335.268 171.404C335.268 171.404 330.579 162.888 334.815 130.229H335.947Z" fill="#222121"/>
<path d="M232.579 95.9167C233.236 94.9881 234.935 94.1274 234.935 94.1274C234.935 94.1274 239.827 96.1205 240.665 96.5055C240.665 96.5055 235.659 95.9846 232.579 95.9167Z" fill="#E2B1A6"/>
<path d="M260.64 109.099C260.436 109.031 259.666 108.532 258.828 108.011C262.067 103.64 258.511 97.3439 258.488 97.3213C265.668 100.107 260.98 109.257 260.617 109.121L260.64 109.099Z" fill="#E2B1A6"/>
<path d="M372.684 211.628C372.231 211.9 368.766 213.145 366.252 213.893C366.252 213.893 364.621 207.551 365.006 205.422C365.368 203.293 366.252 202.795 366.252 202.795C366.388 202.999 366.501 203.135 366.501 203.135C366.501 203.135 373.295 211.266 372.684 211.628Z" fill="#E2B1A6"/>
<path d="M366.501 202.84C366.501 202.84 365.414 206.509 367.905 209.363C370.396 212.217 370.668 212.579 370.668 212.579H373.522C373.522 212.579 374.994 208.095 374.768 207.982C374.541 207.868 366.523 202.863 366.523 202.863L366.501 202.84Z" fill="#4846A5"/>
<path d="M339.978 137.091C339.978 137.091 337.238 153.194 337.849 159.106C338.461 165.017 338.234 171.404 338.234 171.404L337.374 172.151L337.125 172.31C337.125 172.31 336.853 172.4 336.513 160.691C336.173 148.982 339.435 138.948 339.435 138.948C339.435 138.948 339.661 138.133 339.956 137.091H339.978Z" fill="#222121"/>
<path d="M339.072 304.126C338.28 303.673 337.464 303.106 336.626 302.336C336.626 302.336 341.02 288.136 341.541 276.857C341.541 276.857 337.668 268.567 336.332 261.161C336.694 262.633 341.201 270.583 343.24 278.714C345.278 286.845 339.095 304.126 339.095 304.126H339.072Z" fill="#3F3E44"/>
<path d="M359.028 118.111C358.938 118.519 357.782 124.249 355.472 126.944C353.072 129.73 351.237 132.425 351.237 132.425C349.742 132.629 348.7 132.697 348.7 132.697C348.7 132.697 346.3 133.67 345.28 132.108C344.239 130.545 343.197 127.397 343.469 125.947C343.469 125.947 352.075 125.064 355.359 122.776C358.417 120.647 358.96 118.451 359.028 118.133V118.111Z" fill="#E2B1A6"/>
<path d="M362.13 197.382C362.13 197.382 361.677 198.356 361.587 198.447C361.496 198.515 361.383 197.699 361.383 197.699C361.383 197.699 361.768 196.907 361.79 196.907C361.813 196.907 362.13 197.405 362.13 197.405V197.382Z" fill="#1B2B3A"/>
<path d="M337.125 172.31C337.125 172.31 331.123 191.493 329.107 196.136L329.221 200.757C329.221 200.757 336.876 176.93 337.102 172.31H337.125Z" fill="#222121"/>
<path d="M331.327 179.15C330.987 180.26 331.554 181.437 332.595 181.755C333.637 182.072 334.747 181.415 335.087 180.305C335.427 179.195 334.86 178.018 333.818 177.7C332.777 177.383 331.667 178.04 331.327 179.15Z" fill="#222121"/>
<path d="M328.269 187.416C327.93 188.526 328.496 189.704 329.538 190.021C330.58 190.338 331.689 189.681 332.029 188.571C332.369 187.461 331.803 186.284 330.761 185.967C329.719 185.649 328.609 186.306 328.269 187.416Z" fill="#222121"/>
<path d="M358.46 110.412C358.619 110.004 358.687 109.574 358.664 109.143L358.619 106.856C358.619 106.471 358.664 106.063 358.777 105.701C358.89 105.361 359.026 104.863 359.094 104.274C359.094 104.274 368.448 111.091 374.382 111.363C369.399 119.335 365.3 120.739 365.3 120.739C365.3 120.739 363.601 120.377 365.119 118.633C366.659 116.867 369.445 112.45 367.135 111.046C364.824 109.642 360.816 112.654 360.272 113.333C360.068 113.583 359.864 113.922 359.683 114.217C359.389 114.715 358.755 114.919 358.234 114.67L358.03 114.579C357.509 114.33 357.237 113.718 357.441 113.175L358.438 110.434L358.46 110.412Z" fill="black"/>
<path d="M376.172 361.358C376.172 361.358 371.959 362.399 367.86 362.558C363.761 362.717 352.663 364.959 352.935 369.103C353.206 373.271 359.027 379.25 366.297 380.133C373.59 381.017 382.944 378.933 387.7 379.046C392.456 379.182 395.718 374.313 393.838 369.67C391.981 365.049 376.149 361.335 376.149 361.335L376.172 361.358Z" fill="#3F3E44"/>
<path d="M400.699 350.192C400.699 350.192 402.262 352.706 401.492 354.246C400.722 355.786 398.683 359.613 392.025 355.899C385.411 352.207 372.615 346.93 372.615 346.93C372.615 346.93 365.277 343.035 365.684 338.437C366.092 333.862 372.841 334.541 372.841 334.541L400.699 350.192Z" fill="#3F3E44"/>
<path d="M357.509 284.918C357.509 284.918 360.34 314.814 366.342 326.139C372.457 337.644 374.133 358.753 375.401 362.762C376.692 366.816 380.633 372.636 386.862 373.859C393.113 375.105 394.132 370.847 393.815 368.31C393.498 365.774 391.776 361.674 391.754 358.911C391.731 356.171 392.365 354.88 392.456 353.612C392.456 353.612 399.59 355.718 400.677 350.192C400.677 350.192 400.088 348.584 399.998 347.768C399.907 346.953 400.609 326.931 400.79 324.508C400.972 322.085 399.658 309.016 397.665 302.562C395.695 296.175 396.351 282.585 396.351 282.585L376.036 279.754L357.486 284.941L357.509 284.918Z" fill="#222121"/>
<path d="M397.712 302.562C395.741 296.175 396.398 282.586 396.398 282.586L394.631 282.336C394.563 284.216 394.133 296.152 395.922 302.018C397.893 308.45 399.184 321.541 399.003 323.942C398.821 326.365 398.097 346.364 398.187 347.179C398.278 347.995 398.867 349.603 398.867 349.603C397.78 355.129 390.645 353.023 390.645 353.023C390.555 354.291 389.898 355.559 389.92 358.3C389.92 361.063 391.664 365.162 391.959 367.699C392.253 370.236 391.234 374.494 385.006 373.248C384.802 373.203 384.643 373.135 384.439 373.089C385.21 373.406 386.025 373.678 386.863 373.859C393.114 375.105 394.133 370.847 393.816 368.311C393.499 365.774 391.778 361.674 391.755 358.911C391.732 356.171 392.366 354.631 392.48 353.362C392.48 353.362 399.614 355.718 400.701 350.192C400.701 350.192 400.112 348.584 400.022 347.768C399.931 346.953 400.633 326.932 400.814 324.508C400.996 322.085 399.682 309.016 397.689 302.562H397.712Z" fill="url(#paint20_linear_1053_88597)"/>
<path d="M390.374 284.737C390.374 284.737 390.283 289.403 388.335 293.321C388.335 293.321 388.381 309.198 386.75 317.261C386.75 317.261 389.377 333.409 391.031 338.505C392.707 343.624 392.48 353.634 392.48 353.634C392.48 353.634 393.295 353.929 394.451 353.974C395.606 354.02 395.696 334.225 393.907 330.737C392.118 327.272 390.781 311.825 391.461 307.137C392.118 302.471 391.891 289.109 392.775 286.731C393.658 284.375 391.665 283.129 391.665 283.129L390.351 284.737H390.374Z" fill="#3F3E44"/>
<path d="M373.252 176.907C373.252 176.907 367.34 181.188 367.635 188.549L372.029 187.598C372.029 187.598 370.715 179.421 373.252 176.885V176.907Z" fill="#3F3E44"/>
<path d="M375.56 291.26C389.035 291.668 396.306 285.711 396.306 285.711C396.328 283.831 396.396 282.585 396.396 282.585L376.08 279.754L357.531 284.941C357.531 284.941 358.097 290.83 359.23 298.372C362.537 298.734 365.775 290.603 365.775 290.603L375.016 291.192C375.016 291.192 362.106 290.852 375.56 291.26Z" fill="#3F3E44"/>
<path d="M360.114 285.373C360.114 285.373 389.398 297.331 403.576 274.637C403.984 274.003 404.165 273.21 404.143 272.418L403.961 267.141C403.939 266.461 404.029 265.804 404.256 265.17C404.709 263.834 404.822 262.362 404.55 260.958C403.463 255.046 400.474 238.988 399.794 234.527C398.956 229.091 401.833 207.326 406.679 197.904C411.458 188.618 399.16 167.736 399.16 167.736C399.16 167.736 396.148 162.866 390.236 164.52C390.236 164.52 395.876 168.461 392.796 172.628C389.693 176.818 380.43 180.17 380.43 180.17C380.43 180.17 363.307 189.048 357.441 199.874C357.441 199.874 355.426 205.491 355.244 212.603C355.063 219.782 355.856 237.041 355.561 239.441C355.267 241.842 354.361 258.285 354.452 259.055C354.542 259.825 360.136 285.373 360.136 285.373H360.114Z" fill="#34343B"/>
<path d="M392.98 167.531C393.456 166.353 393.297 165.22 392.867 164.224C392.051 164.201 391.191 164.246 390.217 164.518C390.217 164.518 391.961 165.741 392.98 167.531Z" fill="url(#paint21_linear_1053_88597)"/>
<path d="M368.996 287.795C368.996 287.795 386.254 241.206 385.416 224.311C384.623 207.822 360.231 257.717 360.231 257.717L360.095 285.371C360.095 285.371 365.621 287.41 368.973 287.817L368.996 287.795Z" fill="#222121"/>
<path d="M403.76 260.593C403.556 261.205 403.443 261.862 403.488 262.541L403.669 267.796C403.692 268.588 403.511 269.381 403.103 270.015C388.993 292.55 359.799 280.66 359.799 280.66C359.799 280.66 355.79 262.337 354.522 256.403C354.454 257.853 354.431 258.872 354.454 259.031C354.544 259.801 360.139 285.348 360.139 285.348C360.139 285.348 389.423 297.307 403.601 274.613C404.009 273.979 404.19 273.186 404.167 272.393L403.986 267.116C403.964 266.437 404.054 265.78 404.281 265.146C404.734 263.809 404.847 262.337 404.575 260.933C404.462 260.322 404.326 259.574 404.167 258.759C404.1 259.393 404.009 260.004 403.805 260.593H403.76Z" fill="url(#paint22_linear_1053_88597)"/>
<path d="M406.185 193.78C401.338 203.134 398.462 224.764 399.3 230.154C399.368 230.652 399.481 231.309 399.617 232.056C399.594 224.265 402.335 206.237 406.638 197.88C407.974 195.275 407.951 191.719 407.249 188.005C407.295 190.156 407.023 192.15 406.185 193.758V193.78Z" fill="url(#paint23_linear_1053_88597)"/>
<path d="M359.684 232.782C360.319 228.977 360.681 225.172 360.726 221.367C360.794 214.731 362.674 203.746 374.655 205.649C391.596 208.344 384.349 232.08 382.492 236.224C380.612 240.392 373.206 259.19 372.821 260.277C372.458 261.274 360.726 284.76 356.559 290.377C356.174 290.898 355.494 290.966 355.041 290.558C353.343 289.109 349.538 285.666 349.04 283.492C348.405 280.684 350.851 270.537 350.851 270.537C350.851 270.537 357.442 245.171 358.008 243.97C358.416 243.087 358.711 238.92 359.73 232.759L359.684 232.782Z" fill="#34343B"/>
<path d="M373.544 177.428C373.544 177.428 372.208 174.37 369.082 174.053C365.979 173.736 364.213 172.875 363.896 171.72C363.579 170.565 363.579 169.184 362.808 167.462C362.061 165.764 361.427 161.551 361.427 161.461C361.427 161.37 359.071 160.645 358.958 159.603C358.845 158.562 360.068 154.847 359.932 154.575C359.796 154.281 358.528 152.016 358.709 150.25C358.89 148.483 359.117 145.924 360.045 143.772C360.997 141.62 367.565 128.462 384.71 135.233C402.036 142.073 388.854 156.614 390.576 166.036C390.576 166.036 392.116 168.029 389.285 171.403C386.454 174.801 378.255 175.525 373.521 177.45L373.544 177.428Z" fill="#FCD1C5"/>
<path d="M389.307 171.405C392.138 168.031 390.598 166.037 390.598 166.037C390.349 164.724 390.417 163.32 390.643 161.847L383.871 163.138C383.871 163.138 373.86 154.238 374.563 158.994C375.287 163.795 372.841 164.633 372.841 164.633L374.902 167.238C375.423 167.917 375.106 168.687 374.698 169.435C371.845 174.349 364.892 172.877 364.892 172.877C365.752 173.444 367.179 173.851 369.127 174.055C372.23 174.372 373.589 177.43 373.589 177.43C378.322 175.505 386.521 174.78 389.352 171.383L389.307 171.405Z" fill="#E2B1A6"/>
<path d="M359.345 138.768C359.345 138.768 358.145 142.278 360.093 143.773C362.041 145.245 363.785 146.649 363.785 146.649V151.111C363.785 151.745 363.966 152.38 364.305 152.923L366.751 156.683C367.227 157.408 367.476 158.268 367.476 159.129V160.963C367.476 161.507 367.884 161.937 368.405 162.005L369.039 162.073C369.605 162.141 370.103 161.711 370.171 161.145L370.443 158.608C370.443 158.608 371.734 156.57 374.543 158.993L377.079 160.035C377.781 160.329 378.348 160.895 378.597 161.643C379.299 163.591 380.816 167.441 381.949 168.075C383.489 168.936 389.4 165.878 390.193 164.519C390.985 163.16 392.979 154.123 394.224 149.82C395.447 145.54 394.722 134.963 381.971 132.245C369.265 129.55 361.067 134.94 359.323 138.768H359.345Z" fill="black"/>
<path d="M390.214 164.52C391.007 163.161 393 154.124 394.246 149.821C394.246 149.821 389.308 153.105 382.899 154.079C376.489 155.053 363.783 147.828 363.783 147.828V151.09C363.783 151.724 363.964 152.358 364.304 152.901L366.75 156.661C367.226 157.386 367.475 158.246 367.475 159.107V160.942C367.475 161.485 367.883 161.916 368.404 161.984L369.038 162.051C369.604 162.119 370.102 161.689 370.17 161.123L370.442 158.586C370.442 158.586 371.733 156.548 374.541 158.971L378.188 160.466C378.188 160.466 380.407 167.17 381.947 168.031C383.487 168.891 389.399 165.834 390.191 164.475L390.214 164.52Z" fill="black"/>
<path d="M390.466 164.949C390.466 164.949 395.426 168.006 392.958 172.355C390.466 176.726 372.483 184.472 371.577 185.627C371.577 185.627 370.875 179.127 373.253 176.93C373.253 176.93 387.024 174.235 389.175 170.724C391.304 167.236 390.466 164.971 390.466 164.971V164.949Z" fill="#F0F6FF"/>
<path d="M390.463 164.949C390.463 164.949 391.301 167.214 389.172 170.701C387.564 173.351 379.275 175.548 375.334 176.454C375.334 176.454 376.806 177.292 379.252 181.46C384.778 178.583 391.505 174.891 392.955 172.355C395.423 168.006 390.463 164.949 390.463 164.949Z" fill="#C4CCD6"/>
<path d="M393.815 178.833C393.815 178.833 385.798 183.431 381.902 185.492C377.984 187.575 373.703 190.339 373.703 190.339L372.209 188.844L370.419 192.807C370.419 192.807 364.259 196.499 361.383 199.579C358.484 202.682 356.309 206.713 355.992 207.642C355.992 207.642 363.67 197.563 369.74 194.574L371.371 193.758L372.299 190.633L373.794 192.196C373.794 192.196 391.415 181.573 393.861 178.833H393.815Z" fill="#222121"/>
<path d="M373.16 314.837C372.911 314.112 372.526 313.478 372.096 313.116L339.119 285.439C338.259 284.715 337.421 285.258 337.239 286.685L333.389 318.914C333.208 320.409 333.797 322.221 334.68 322.991L362.379 346.93L361.428 356.239L369.718 352.434C370.08 352.185 370.374 351.641 370.442 350.849L373.523 317.17C373.591 316.423 373.455 315.585 373.205 314.837H373.16Z" fill="url(#paint24_linear_1053_88597)"/>
<path d="M330.128 288.588L337.919 285.213L338.168 285.1C338.463 285.032 338.78 285.122 339.097 285.394L372.073 313.071C372.526 313.456 372.889 314.067 373.138 314.792L371.96 315.358L365.256 318.597L336.356 293.887L330.128 288.565V288.588Z" fill="#34343B"/>
<path d="M326.55 326.592L360.274 355.967C361.202 356.782 362.063 356.148 362.222 354.585L365.506 320.726C365.642 319.231 365.03 317.419 364.124 316.649L331.216 288.836C330.355 288.112 329.494 288.655 329.336 290.082L325.282 322.47C325.101 323.964 325.667 325.799 326.55 326.569V326.592Z" fill="#222121"/>
<path d="M366.412 352.615L369.583 318.846C369.719 317.374 369.107 315.539 368.201 314.792L335.27 287.047C334.998 286.821 334.726 286.708 334.5 286.73C334.817 286.594 335.179 286.685 335.564 286.979L368.496 314.724C369.402 315.494 370.013 317.306 369.877 318.778L366.706 352.547C366.616 353.612 366.185 354.291 365.619 354.314C366.05 354.132 366.344 353.498 366.412 352.615Z" fill="#3F3E44"/>
<path d="M354.318 302.901L356.039 302.04C356.424 301.837 356.81 301.769 357.104 301.859H357.24C357.421 301.927 357.512 302.108 357.466 302.38V302.697L352.574 305.121V304.804C352.642 304.532 352.778 304.237 352.982 304.011L353.14 303.83C353.503 303.422 353.91 303.105 354.296 302.901H354.318Z" fill="#3F3E44"/>
<path d="M354.928 307.069L352.618 305.098L357.42 301.973L359.73 303.898L354.928 307.069Z" fill="#3F3E44"/>
<path d="M356.651 304.848L358.372 303.988C358.757 303.784 359.142 303.716 359.459 303.806H359.595C359.776 303.874 359.867 304.056 359.822 304.327V304.644L354.93 307.068V306.751C354.998 306.479 355.134 306.185 355.337 305.958L355.496 305.777C355.858 305.369 356.266 305.052 356.651 304.848Z" fill="url(#paint25_linear_1053_88597)"/>
<path d="M357.694 305.686L357.83 304.259L357.694 304.35L357.535 305.754L357.694 305.686Z" fill="#53ACFF"/>
<path d="M357.828 304.261L355.45 302.335L355.314 302.403L357.693 304.351L357.828 304.261Z" fill="#53ACFF"/>
<path d="M343.852 294.092L345.574 293.231C345.959 293.05 346.321 292.982 346.638 293.05H346.774C346.955 293.118 347.023 293.299 347.001 293.571L346.955 293.888L342.108 296.289L342.154 295.971C342.176 295.722 342.335 295.405 342.516 295.201L342.675 295.02C343.037 294.613 343.445 294.295 343.83 294.114L343.852 294.092Z" fill="#3F3E44"/>
<path d="M344.417 298.214L342.13 296.266L346.931 293.186L349.196 295.088L344.417 298.214Z" fill="#3F3E44"/>
<path d="M346.139 296.017L347.861 295.156C348.246 294.952 348.608 294.907 348.925 294.975H349.061C349.242 295.043 349.31 295.224 349.288 295.496L349.242 295.813L344.396 298.213L344.441 297.896C344.463 297.625 344.622 297.33 344.803 297.126L344.962 296.945C345.324 296.538 345.732 296.22 346.117 296.039L346.139 296.017Z" fill="url(#paint26_linear_1053_88597)"/>
<path d="M347.182 296.855L347.318 295.451L347.182 295.519L347.023 296.923L347.182 296.855Z" fill="#53ACFF"/>
<path d="M347.318 295.451L344.963 293.548L344.827 293.594L347.183 295.519L347.318 295.451Z" fill="#53ACFF"/>
<path d="M358.757 297.511L358.145 303.512L356.583 302.199L357.194 296.356C357.285 295.495 356.854 294.408 356.265 293.91L349.562 288.293C348.973 287.794 348.406 288.066 348.316 288.904L347.682 294.68L346.142 293.389L346.798 287.455C347.002 285.597 348.248 284.986 349.562 286.096L356.718 292.075C358.055 293.185 358.983 295.608 358.779 297.488L358.757 297.511Z" fill="#34343B"/>
<path d="M347.205 287.907L349.968 287.635L357.963 295.087L358.303 299.684L358.144 303.535L356.355 304.441L356.31 299.639L356.219 296.355L354.566 293.977C354.566 293.977 351.576 291.553 351.531 291.486C351.508 291.418 347.205 287.907 347.205 287.907Z" fill="#34343B"/>
<path d="M345.869 295.586L347.658 294.702L348.111 290.444L346.413 290.58L345.914 290.671L345.869 295.586Z" fill="#34343B"/>
<path d="M345.917 286.594L347.842 285.643C347.842 285.643 347.344 286.684 347.321 286.684L346.687 286.911L345.917 286.594Z" fill="#34343B"/>
<path d="M356.991 298.394L356.356 304.419L354.794 303.105L355.405 297.262C355.496 296.401 355.088 295.314 354.477 294.793L347.773 289.176C347.184 288.678 346.618 288.95 346.527 289.788L345.87 295.563L344.33 294.272L345.01 288.338C345.213 286.481 346.459 285.87 347.773 286.98L354.93 292.959C356.266 294.069 357.194 296.492 356.991 298.394Z" fill="#3F3E44"/>
<path d="M349.47 283.243C349.47 283.243 348.338 289.131 348.655 290.603C348.972 292.076 351.78 294.929 353.479 295.45C355.177 295.971 354.475 293.955 354.86 292.687C355.245 291.419 355.177 288.656 355.177 288.656L349.47 283.243Z" fill="#FCD1C5"/>
<path d="M355.177 288.656L349.47 283.243C349.47 283.243 349.243 284.443 349.017 285.893C349.017 285.893 351.146 290.264 355.019 291.985C355.245 290.603 355.2 288.633 355.2 288.633L355.177 288.656Z" fill="#E2B1A6"/>
<path d="M349.061 283.696C349.061 283.696 351.076 290.015 356.15 290.626L354.428 283.696C354.428 283.696 350.148 282.495 350.012 282.473C349.876 282.473 349.061 283.696 349.061 283.696Z" fill="#34343B"/>
<path d="M382.061 209.363C386.772 223.677 374.994 245.941 373.296 252.441C371.575 259.009 353.682 289.381 353.682 289.404C353.569 289.585 353.501 289.698 353.501 289.698C353.886 289.993 354.316 290.31 354.679 290.491C355.154 290.672 354.95 290.649 355.494 290.785C355.879 290.853 356.264 290.717 356.536 290.355C360.726 284.715 372.435 261.251 372.798 260.255C373.183 259.19 380.611 240.392 382.469 236.202C383.963 232.873 388.923 216.86 382.061 209.341V209.363Z" fill="url(#paint27_linear_1053_88597)"/>
<g style="mix-blend-mode:lighten">
<path d="M190.929 347.113C189.683 347.113 188.505 346.863 187.599 346.342L112.655 303.084C111.681 302.517 111.16 301.725 111.16 300.819C111.16 299.777 111.885 298.758 113.153 298.033L187.078 255.34C189.343 254.027 192.672 253.914 194.643 255.046L269.587 298.305C270.561 298.871 271.082 299.664 271.082 300.57C271.082 301.611 270.357 302.631 269.089 303.355L195.164 346.048C193.941 346.75 192.401 347.113 190.929 347.113ZM188.165 345.323C189.773 346.252 192.695 346.116 194.575 345.029L268.5 302.336C269.383 301.815 269.927 301.159 269.927 300.547C269.927 299.958 269.429 299.528 268.998 299.301L194.054 256.042C192.446 255.114 189.524 255.25 187.644 256.337L113.719 299.03C112.836 299.55 112.293 300.207 112.293 300.819C112.293 301.408 112.791 301.838 113.221 302.064L188.165 345.323Z" fill="#53ACFF"/>
</g>
<path d="M270.511 269.02V278.238L190.924 324.169L111.359 278.215V269.02H270.511Z" fill="url(#paint28_linear_1053_88597)"/>
<path d="M190.924 314.974L111.359 269.02L190.924 223.089L270.511 269.02L190.924 314.974Z" fill="#53ACFF"/>
<path d="M190.924 313.91L112.288 268.5L111.359 269.02L190.924 314.974L270.511 269.02L269.583 268.5L190.924 313.91Z" fill="white"/>
<path d="M190.927 304.376L129.73 269.044L190.927 233.712L252.146 269.044L190.927 304.376Z" fill="#0F054C"/>
<path opacity="0.5" d="M190.927 304.376L129.73 269.044L190.927 233.712L252.146 269.044L190.927 304.376Z" fill="url(#paint29_linear_1053_88597)"/>
<path opacity="0.5" d="M190.926 224.788L252.145 260.12V269.043L190.926 233.712V224.788Z" fill="url(#paint30_linear_1053_88597)"/>
<path opacity="0.5" d="M190.927 233.712L129.73 269.043V260.12L190.927 224.788V233.712Z" fill="url(#paint31_linear_1053_88597)"/>
<path opacity="0.5" d="M190.927 295.474L129.73 260.12L190.927 224.788L252.146 260.12L190.927 295.474Z" fill="url(#paint32_linear_1053_88597)"/>
<path opacity="0.5" d="M190.926 274.254L166.466 260.121L190.926 246.011L215.387 260.121L190.926 274.254Z" fill="#53ACFF"/>
<path opacity="0.5" d="M190.926 247.302L214.277 260.778L215.387 260.121L190.926 246.011L166.466 260.121L167.598 260.778L190.926 247.302Z" fill="#53ACFF"/>
<path opacity="0.5" d="M190.926 295.475V304.376L252.145 269.044V260.121L190.926 295.475Z" fill="url(#paint33_linear_1053_88597)"/>
<path opacity="0.5" d="M129.73 260.121V269.044L190.927 304.376V295.475L129.73 260.121Z" fill="url(#paint34_linear_1053_88597)"/>
<path opacity="0.8" d="M190.927 294.502L130.568 259.646L129.73 260.121L190.927 295.476L252.146 260.121L251.308 259.646L190.927 294.502Z" fill="#53ACFF"/>
<g style="mix-blend-mode:lighten">
<path d="M190.929 555.865C189.683 555.865 188.505 555.616 187.599 555.095L112.655 511.837C111.681 511.27 111.16 510.478 111.16 509.572C111.16 508.53 111.885 507.511 113.153 506.786L187.078 464.093C189.343 462.78 192.672 462.666 194.643 463.799L269.587 507.058C270.561 507.624 271.082 508.417 271.082 509.323C271.082 510.364 270.357 511.384 269.089 512.108L195.164 554.801C193.941 555.503 192.401 555.865 190.929 555.865ZM188.165 554.076C189.773 555.005 192.695 554.869 194.575 553.782L268.5 511.089C269.383 510.568 269.927 509.911 269.927 509.3C269.927 508.711 269.429 508.281 268.998 508.054L194.054 464.795C192.446 463.867 189.524 464.003 187.644 465.09L113.719 507.782C112.836 508.303 112.293 508.96 112.293 509.572C112.293 510.161 112.791 510.591 113.221 510.817L188.165 554.076Z" fill="#53ACFF"/>
</g>
<path d="M270.511 477.772V486.968L190.924 532.922L111.359 486.968V477.772H270.511Z" fill="url(#paint35_linear_1053_88597)"/>
<path d="M190.924 523.726L111.359 477.772L190.924 431.818L270.511 477.772L190.924 523.726Z" fill="#53ACFF"/>
<path d="M190.924 522.662L112.288 477.229L111.359 477.772L190.924 523.726L270.511 477.772L269.583 477.251L190.924 522.662Z" fill="white"/>
<path d="M190.927 513.127L129.73 477.795L190.927 442.44L252.146 477.795L190.927 513.127Z" fill="#0F054C"/>
<path opacity="0.5" d="M190.927 513.127L129.73 477.795L190.927 442.44L252.146 477.795L190.927 513.127Z" fill="url(#paint36_linear_1053_88597)"/>
<path opacity="0.5" d="M190.926 433.539L252.145 468.871V477.794L190.926 442.44V433.539Z" fill="url(#paint37_linear_1053_88597)"/>
<path opacity="0.5" d="M190.927 442.44L129.73 477.794V468.871L190.927 433.539V442.44Z" fill="url(#paint38_linear_1053_88597)"/>
<path opacity="0.5" d="M190.927 504.225L129.73 468.871L190.927 433.539L252.146 468.871L190.927 504.225Z" fill="url(#paint39_linear_1053_88597)"/>
<path opacity="0.5" d="M190.926 483.004L166.466 468.871L190.926 454.761L215.387 468.871L190.926 483.004Z" fill="#53ACFF"/>
<path opacity="0.5" d="M190.926 456.052L214.277 469.528L215.387 468.871L190.926 454.761L166.466 468.871L167.598 469.528L190.926 456.052Z" fill="#53ACFF"/>
<path opacity="0.5" d="M190.926 504.225V513.126L252.145 477.794V468.871L190.926 504.225Z" fill="url(#paint40_linear_1053_88597)"/>
<path opacity="0.5" d="M129.73 468.871V477.794L190.927 513.126V504.225L129.73 468.871Z" fill="url(#paint41_linear_1053_88597)"/>
<path opacity="0.8" d="M190.927 503.252L130.568 468.396L129.73 468.871L190.927 504.226L252.146 468.871L251.308 468.396L190.927 503.252Z" fill="#53ACFF"/>
<g style="mix-blend-mode:lighten">
<path d="M509.933 347.113C508.688 347.113 507.51 346.863 506.604 346.342L431.66 303.084C430.686 302.517 430.165 301.725 430.165 300.819C430.165 299.777 430.89 298.758 432.158 298.033L506.083 255.34C508.348 254.027 511.677 253.914 513.648 255.046L588.592 298.305C589.566 298.871 590.087 299.664 590.087 300.57C590.087 301.611 589.362 302.631 588.094 303.355L514.169 346.048C512.946 346.75 511.406 347.113 509.933 347.113ZM507.17 345.323C508.778 346.252 511.7 346.116 513.58 345.029L587.505 302.336C588.388 301.815 588.932 301.159 588.932 300.547C588.932 299.958 588.433 299.528 588.003 299.301L513.059 256.042C511.451 255.114 508.529 255.25 506.649 256.337L432.724 299.03C431.841 299.55 431.297 300.207 431.297 300.819C431.297 301.408 431.796 301.838 432.226 302.064L507.17 345.323Z" fill="#53ACFF"/>
</g>
<path d="M589.519 269.02V278.238L509.932 324.169L430.345 278.215V269.02H589.519Z" fill="url(#paint42_linear_1053_88597)"/>
<path d="M509.932 314.973L430.345 269.019L509.932 223.088L589.519 269.019L509.932 314.973Z" fill="#53ACFF"/>
<path d="M509.932 313.909L431.273 268.499L430.345 269.019L509.932 314.973L589.519 269.019L588.59 268.499L509.932 313.909Z" fill="white"/>
<path d="M509.932 304.375L448.735 269.043L509.932 233.711L571.151 269.043L509.932 304.375Z" fill="#0F054C"/>
<path opacity="0.5" d="M509.931 304.375L448.734 269.043L509.931 233.711L571.15 269.043L509.931 304.375Z" fill="url(#paint43_linear_1053_88597)"/>
<path opacity="0.5" d="M509.931 224.788L571.15 260.12V269.043L509.931 233.712V224.788Z" fill="url(#paint44_linear_1053_88597)"/>
<path opacity="0.5" d="M509.931 233.712L448.734 269.043V260.12L509.931 224.788V233.712Z" fill="url(#paint45_linear_1053_88597)"/>
<path opacity="0.5" d="M509.931 295.474L448.734 260.12L509.931 224.788L571.15 260.12L509.931 295.474Z" fill="url(#paint46_linear_1053_88597)"/>
<path opacity="0.5" d="M509.931 274.253L485.471 260.12L509.931 246.01L534.392 260.12L509.931 274.253Z" fill="#53ACFF"/>
<path opacity="0.5" d="M509.931 247.301L533.259 260.777L534.392 260.12L509.931 246.01L485.471 260.12L486.603 260.777L509.931 247.301Z" fill="#53ACFF"/>
<path opacity="0.5" d="M509.931 295.475V304.376L571.15 269.044V260.121L509.931 295.475Z" fill="url(#paint47_linear_1053_88597)"/>
<path opacity="0.5" d="M448.734 260.12V269.044L509.931 304.375V295.475L448.734 260.12Z" fill="url(#paint48_linear_1053_88597)"/>
<path opacity="0.8" d="M509.932 294.5L449.573 259.644L448.735 260.12L509.932 295.474L571.151 260.12L570.313 259.644L509.932 294.5Z" fill="#53ACFF"/>
<g style="mix-blend-mode:lighten">
<path d="M509.933 555.865C508.688 555.865 507.51 555.616 506.604 555.095L431.66 511.837C430.686 511.27 430.165 510.478 430.165 509.572C430.165 508.53 430.89 507.511 432.158 506.786L506.083 464.093C508.348 462.78 511.677 462.666 513.648 463.799L588.592 507.058C589.566 507.624 590.087 508.417 590.087 509.323C590.087 510.364 589.362 511.384 588.094 512.108L514.169 554.801C512.946 555.503 511.406 555.865 509.933 555.865ZM507.17 554.076C508.778 555.005 511.7 554.869 513.58 553.782L587.505 511.089C588.388 510.568 588.932 509.911 588.932 509.3C588.932 508.711 588.433 508.281 588.003 508.054L513.059 464.795C511.451 463.867 508.529 464.003 506.649 465.09L432.724 507.782C431.841 508.303 431.297 508.96 431.297 509.572C431.297 510.161 431.796 510.591 432.226 510.817L507.17 554.076Z" fill="#53ACFF"/>
</g>
<path d="M589.519 477.773V486.968L509.932 532.922L430.345 486.968V477.773H589.519Z" fill="url(#paint49_linear_1053_88597)"/>
<path d="M509.932 523.727L430.345 477.773L509.932 431.819L589.519 477.773L509.932 523.727Z" fill="#53ACFF"/>
<path d="M509.932 522.662L431.273 477.229L430.345 477.773L509.932 523.727L589.519 477.773L588.59 477.252L509.932 522.662Z" fill="white"/>
<path d="M509.932 513.128L448.735 477.796L509.932 442.441L571.151 477.796L509.932 513.128Z" fill="#0F054C"/>
<path opacity="0.5" d="M509.931 513.128L448.734 477.796L509.931 442.442L571.15 477.796L509.931 513.128Z" fill="url(#paint50_linear_1053_88597)"/>
<path opacity="0.5" d="M509.931 433.54L571.15 468.872V477.795L509.931 442.441V433.54Z" fill="url(#paint51_linear_1053_88597)"/>
<path opacity="0.5" d="M509.931 442.441L448.734 477.795V468.872L509.931 433.54V442.441Z" fill="url(#paint52_linear_1053_88597)"/>
<path opacity="0.5" d="M509.931 504.226L448.734 468.872L509.931 433.54L571.15 468.872L509.931 504.226Z" fill="url(#paint53_linear_1053_88597)"/>
<path opacity="0.5" d="M509.931 483.005L485.471 468.872L509.931 454.762L534.392 468.872L509.931 483.005Z" fill="#53ACFF"/>
<path opacity="0.5" d="M509.931 456.053L533.259 469.529L534.392 468.872L509.931 454.762L485.471 468.872L486.603 469.529L509.931 456.053Z" fill="#53ACFF"/>
<path opacity="0.5" d="M509.931 504.227V513.128L571.15 477.796V468.873L509.931 504.227Z" fill="url(#paint54_linear_1053_88597)"/>
<path opacity="0.5" d="M448.734 468.872V477.795L509.931 513.127V504.226L448.734 468.872Z" fill="url(#paint55_linear_1053_88597)"/>
<path opacity="0.8" d="M509.932 503.253L449.573 468.396L448.735 468.872L509.932 504.227L571.151 468.872L570.313 468.396L509.932 503.253Z" fill="#53ACFF"/>
<path opacity="0.5" d="M124.227 38.7973C179.218 22.2412 211.923 84.5475 179.807 144.612C152.538 195.594 86.0645 232.398 68.693 178.856C58.4558 147.352 66.9491 70.1656 118.95 41.0621C104.931 48.3097 94.6483 58.5695 84.547 75.3521C103.73 98.952 105.293 100.877 121.849 119.925C141.463 73.5855 143.071 69.8032 157.566 38.4576C146.242 34.5167 136.276 34.6299 124.227 38.7973ZM120.377 40.3827C119.969 40.5639 119.539 40.7677 119.131 40.9716C119.539 40.7677 119.969 40.5865 120.377 40.3827ZM123.186 39.205C123.48 39.0917 123.797 38.9558 124.114 38.8426C123.797 38.9558 123.503 39.0691 123.186 39.205ZM121.872 39.7485C121.442 39.9297 121.011 40.1109 120.581 40.3147C121.011 40.1336 121.442 39.9297 121.872 39.7485ZM121.872 39.7485C122.212 39.6126 122.574 39.4541 122.914 39.3182C122.551 39.4541 122.212 39.6126 121.872 39.7485Z" fill="#2B8AE2"/>
<path d="M31.2549 97.8885C34.471 94.5139 37.9136 91.2072 41.5826 87.9458V248.321C37.9136 251.582 34.471 254.889 31.2549 258.263V97.8885Z" fill="#53ACFF"/>
<path d="M14.7666 175.165C17.0315 171.586 19.5455 168.03 22.3086 164.542V268.522C19.5455 272.01 17.0315 275.543 14.7666 279.144V175.165Z" fill="#53ACFF"/>
<path opacity="0.5" d="M0.0224609 296.04L0.181001 296.402L0.384839 285.87L0.0224609 285.304V296.017V296.04ZM0.0224609 327.046V166.671C0.0224609 165.652 0.0224609 164.61 0.0904067 163.591C0.36219 156.275 1.65316 149.05 3.87272 141.984V302.359C1.65316 309.425 0.384839 316.65 0.0904067 323.965C0.0451095 324.985 0.0224609 326.026 0.0224609 327.046Z" fill="#53ACFF"/>
<path d="M0.0224609 296.04L0.181001 296.402L0.384839 285.871L0.0224609 285.305V296.04Z" fill="#53ACFF"/>
<path d="M119.131 40.9711C119.131 40.9711 119.018 41.0391 118.95 41.0617C119.018 41.0391 119.063 40.9938 119.131 40.9711ZM124.091 38.8422C124.091 38.8422 124.182 38.7969 124.227 38.7969C124.182 38.7969 124.137 38.8422 124.091 38.8422ZM120.558 40.2917C120.558 40.2917 120.422 40.3596 120.354 40.3823C120.422 40.3596 120.49 40.3143 120.558 40.2917ZM122.891 39.2951H122.914H122.936H122.959H122.982H123.004H123.027H123.05H123.072C122.982 39.3404 122.891 39.3631 122.8 39.4084L122.891 39.2951Z" fill="#53ACFF"/>
<path d="M121.85 39.7264C139.765 32.2523 152.697 36.7594 157.567 38.458C137.07 83.642 134.918 88.3529 121.85 119.925C101.648 96.4385 98.5447 92.8147 84.5479 75.3526C88.5114 68.7619 100.56 48.7405 121.85 39.749V39.7264Z" fill="#53ACFF"/>
<path opacity="0.5" d="M249.089 434.219C232.601 439.111 222.001 429.101 218.129 426.134C187.847 400.495 161.326 369.218 130.931 343.67C121.94 336.128 116.459 339.254 113.333 340.069C75.5555 355.047 53.6393 357.969 47.5845 348.834C30.9378 319.368 30.3716 316.99 22.6484 298.554C20.8818 294.341 14.8799 287.977 12.2301 288.317C-0.475809 291.895 1.20019 294.5 0.0224609 296.04V285.327C15.0158 279.552 16.5559 278.85 22.6484 292.801C50.6421 352.209 55.5568 350.895 62.0796 349.355C121.713 325.506 120.966 327.25 136.163 343.036C162.458 370.418 215.479 423.71 231.854 427.945C236.882 428.602 244.877 427.878 249.587 426.677C307.16 407.403 329.99 395.264 386.317 371.007L391.368 379.183C370.508 388.288 307.5 413.065 249.497 431.343L249.067 434.219H249.089ZM429.01 498.881V338.506C411.298 339.503 393.225 339.956 374.857 339.797C166.467 338.144 0.0224609 260.935 0.0224609 166.694V327.069C0.0224609 421.309 166.467 498.541 374.879 500.195C393.247 500.33 411.321 499.9 429.032 498.904L429.01 498.881Z" fill="url(#paint56_linear_1053_88597)"/>
<path d="M249.089 434.219C234.255 438.024 220.235 441.603 132.925 347.702C125.556 340.303 102.976 344.131 65.1827 359.185C58.7505 360.747 49.0116 363.103 22.2183 299.166C13.9515 280.277 0.135892 295.859 0 296.04V285.327C4.68826 282.655 5.00534 282.474 12.0491 280.503C13.34 280.141 14.7442 280.209 15.922 280.82C17.8018 281.794 19.7043 284.014 23.011 291.058C33.3085 312.981 42.1642 329.945 49.5778 341.949C53.9414 348.426 73.8646 344.629 109.347 330.557C112.971 329.583 120.536 327.544 131.951 336.649C163.999 362.219 190.09 394.177 221.707 420.2C233.575 428.648 240.755 433.744 386.317 371.03L391.368 379.206C370.508 388.311 307.07 415.965 249.067 434.242L249.089 434.219Z" fill="url(#paint57_linear_1053_88597)"/>
<defs>
<linearGradient id="paint0_linear_1053_88597" x1="204.085" y1="586.485" x2="495.165" y2="586.485" gradientUnits="userSpaceOnUse">
<stop stop-color="#5761D7"/>
<stop offset="0.07" stop-color="#5471D8"/>
<stop offset="0.28" stop-color="#4D9BDA"/>
<stop offset="0.48" stop-color="#48BDDD"/>
<stop offset="0.67" stop-color="#44D4DE"/>
<stop offset="0.85" stop-color="#42E3DF"/>
<stop offset="1" stop-color="#42E8E0"/>
</linearGradient>
<linearGradient id="paint1_linear_1053_88597" x1="0.0210664" y1="564.085" x2="2.28593" y2="564.085" gradientUnits="userSpaceOnUse">
<stop stop-color="#202020"/>
<stop offset="0.07" stop-color="#115EA5"/>
<stop offset="0.28" stop-color="#4D9BDA"/>
<stop offset="0.48" stop-color="#53ACFF"/>
<stop offset="0.67" stop-color="#53ACFF"/>
<stop offset="0.85" stop-color="#53ACFF"/>
<stop offset="0.880057" stop-color="#53ACFF"/>
<stop offset="1" stop-color="#53ACFF"/>
</linearGradient>
<linearGradient id="paint2_linear_1053_88597" x1="0.0210664" y1="541.686" x2="2.28593" y2="541.686" gradientUnits="userSpaceOnUse">
<stop stop-color="#5761D7"/>
<stop offset="0.07" stop-color="#5471D8"/>
<stop offset="0.28" stop-color="#4D9BDA"/>
<stop offset="0.48" stop-color="#53ACFF"/>
<stop offset="0.67" stop-color="#53ACFF"/>
<stop offset="0.85" stop-color="#53ACFF"/>
<stop offset="1" stop-color="#53ACFF"/>
</linearGradient>
<linearGradient id="paint3_linear_1053_88597" x1="0.0210664" y1="519.309" x2="2.28593" y2="519.309" gradientUnits="userSpaceOnUse">
<stop stop-color="#202020"/>
<stop offset="0.07" stop-color="#115EA5"/>
<stop offset="0.28" stop-color="#4D9BDA"/>
<stop offset="0.48" stop-color="#53ACFF"/>
<stop offset="0.67" stop-color="#53ACFF"/>
<stop offset="0.85" stop-color="#53ACFF"/>
<stop offset="0.880057" stop-color="#53ACFF"/>
<stop offset="1" stop-color="#53ACFF"/>
</linearGradient>
<linearGradient id="paint4_linear_1053_88597" x1="204.085" y1="552.897" x2="495.165" y2="552.897" gradientUnits="userSpaceOnUse">
<stop stop-color="#5761D7"/>
<stop offset="0.07" stop-color="#5471D8"/>
<stop offset="0.28" stop-color="#4D9BDA"/>
<stop offset="0.458154" stop-color="#53ACFF"/>
<stop offset="0.48" stop-color="#48BDDD"/>
<stop offset="0.6699" stop-color="#53ACFF"/>
<stop offset="0.67" stop-color="#44D4DE"/>
<stop offset="0.85" stop-color="#53ACFF"/>
<stop offset="1" stop-color="#53ACFF"/>
</linearGradient>
<linearGradient id="paint5_linear_1053_88597" x1="0.0210664" y1="493.853" x2="2.28593" y2="493.853" gradientUnits="userSpaceOnUse">
<stop stop-color="#202020"/>
<stop offset="0.07" stop-color="#115EA5"/>
<stop offset="0.28" stop-color="#4D9BDA"/>
<stop offset="0.48" stop-color="#53ACFF"/>
<stop offset="0.67" stop-color="#53ACFF"/>
<stop offset="0.85" stop-color="#53ACFF"/>
<stop offset="0.880057" stop-color="#53ACFF"/>
<stop offset="1" stop-color="#53ACFF"/>
</linearGradient>
<linearGradient id="paint6_linear_1053_88597" x1="0.0210664" y1="471.453" x2="2.28593" y2="471.453" gradientUnits="userSpaceOnUse">
<stop stop-color="#202020"/>
<stop offset="0.07" stop-color="#115EA5"/>
<stop offset="0.28" stop-color="#4D9BDA"/>
<stop offset="0.48" stop-color="#53ACFF"/>
<stop offset="0.67" stop-color="#53ACFF"/>
<stop offset="0.85" stop-color="#53ACFF"/>
<stop offset="0.880057" stop-color="#53ACFF"/>
<stop offset="1" stop-color="#53ACFF"/>
</linearGradient>
<linearGradient id="paint7_linear_1053_88597" x1="0.0210664" y1="449.054" x2="2.28593" y2="449.054" gradientUnits="userSpaceOnUse">
<stop stop-color="#5761D7"/>
<stop offset="0.07" stop-color="#5471D8"/>
<stop offset="0.28" stop-color="#4D9BDA"/>
<stop offset="0.48" stop-color="#53ACFF"/>
<stop offset="0.67" stop-color="#53ACFF"/>
<stop offset="0.85" stop-color="#53ACFF"/>
<stop offset="1" stop-color="#53ACFF"/>
</linearGradient>
<linearGradient id="paint8_linear_1053_88597" x1="0.0210664" y1="426.677" x2="2.28593" y2="426.677" gradientUnits="userSpaceOnUse">
<stop stop-color="#202020"/>
<stop offset="0.07" stop-color="#115EA5"/>
<stop offset="0.28" stop-color="#4D9BDA"/>
<stop offset="0.48" stop-color="#53ACFF"/>
<stop offset="0.67" stop-color="#53ACFF"/>
<stop offset="0.85" stop-color="#53ACFF"/>
<stop offset="0.880057" stop-color="#53ACFF"/>
<stop offset="1" stop-color="#53ACFF"/>
</linearGradient>
<linearGradient id="paint9_linear_1053_88597" x1="204.085" y1="460.265" x2="495.165" y2="460.265" gradientUnits="userSpaceOnUse">
<stop stop-color="#5761D7"/>
<stop offset="0.07" stop-color="#5471D8"/>
<stop offset="0.28" stop-color="#4D9BDA"/>
<stop offset="0.458154" stop-color="#53ACFF"/>
<stop offset="0.48" stop-color="#48BDDD"/>
<stop offset="0.6699" stop-color="#53ACFF"/>
<stop offset="0.67" stop-color="#44D4DE"/>
<stop offset="0.85" stop-color="#53ACFF"/>
<stop offset="1" stop-color="#53ACFF"/>
</linearGradient>
<linearGradient id="paint10_linear_1053_88597" x1="0.0210664" y1="401.221" x2="2.28593" y2="401.221" gradientUnits="userSpaceOnUse">
<stop stop-color="#202020"/>
<stop offset="0.07" stop-color="#115EA5"/>
<stop offset="0.28" stop-color="#4D9BDA"/>
<stop offset="0.48" stop-color="#53ACFF"/>
<stop offset="0.67" stop-color="#53ACFF"/>
<stop offset="0.85" stop-color="#53ACFF"/>
<stop offset="0.880057" stop-color="#53ACFF"/>
<stop offset="1" stop-color="#53ACFF"/>
</linearGradient>
<linearGradient id="paint11_linear_1053_88597" x1="0.0210664" y1="378.821" x2="2.28593" y2="378.821" gradientUnits="userSpaceOnUse">
<stop stop-color="#202020"/>
<stop offset="0.07" stop-color="#115EA5"/>
<stop offset="0.28" stop-color="#4D9BDA"/>
<stop offset="0.48" stop-color="#53ACFF"/>
<stop offset="0.67" stop-color="#53ACFF"/>
<stop offset="0.85" stop-color="#53ACFF"/>
<stop offset="0.880057" stop-color="#53ACFF"/>
<stop offset="1" stop-color="#53ACFF"/>
</linearGradient>
<linearGradient id="paint12_linear_1053_88597" x1="0.0210664" y1="356.421" x2="2.28593" y2="356.421" gradientUnits="userSpaceOnUse">
<stop stop-color="#5761D7"/>
<stop offset="0.07" stop-color="#5471D8"/>
<stop offset="0.28" stop-color="#4D9BDA"/>
<stop offset="0.48" stop-color="#53ACFF"/>
<stop offset="0.67" stop-color="#53ACFF"/>
<stop offset="0.85" stop-color="#53ACFF"/>
<stop offset="1" stop-color="#53ACFF"/>
</linearGradient>
<linearGradient id="paint13_linear_1053_88597" x1="0.0210664" y1="334.044" x2="2.28593" y2="334.044" gradientUnits="userSpaceOnUse">
<stop stop-color="#202020"/>
<stop offset="0.07" stop-color="#115EA5"/>
<stop offset="0.28" stop-color="#4D9BDA"/>
<stop offset="0.48" stop-color="#53ACFF"/>
<stop offset="0.67" stop-color="#53ACFF"/>
<stop offset="0.85" stop-color="#53ACFF"/>
<stop offset="0.880057" stop-color="#53ACFF"/>
<stop offset="1" stop-color="#53ACFF"/>
</linearGradient>
<linearGradient id="paint14_linear_1053_88597" x1="204.085" y1="367.632" x2="495.165" y2="367.632" gradientUnits="userSpaceOnUse">
<stop stop-color="#5761D7"/>
<stop offset="0.07" stop-color="#5471D8"/>
<stop offset="0.28" stop-color="#4D9BDA"/>
<stop offset="0.458154" stop-color="#53ACFF"/>
<stop offset="0.48" stop-color="#48BDDD"/>
<stop offset="0.6699" stop-color="#53ACFF"/>
<stop offset="0.67" stop-color="#44D4DE"/>
<stop offset="0.85" stop-color="#53ACFF"/>
<stop offset="1" stop-color="#53ACFF"/>
</linearGradient>
<linearGradient id="paint15_linear_1053_88597" x1="0.0210664" y1="334.044" x2="2.28593" y2="334.044" gradientUnits="userSpaceOnUse">
<stop stop-color="#202020"/>
<stop offset="0.07" stop-color="#115EA5"/>
<stop offset="0.28" stop-color="#4D9BDA"/>
<stop offset="0.48" stop-color="#53ACFF"/>
<stop offset="0.67" stop-color="#53ACFF"/>
<stop offset="0.85" stop-color="#53ACFF"/>
<stop offset="0.880057" stop-color="#53ACFF"/>
<stop offset="1" stop-color="#53ACFF"/>
</linearGradient>
<linearGradient id="paint16_linear_1053_88597" x1="204.085" y1="374.404" x2="495.165" y2="374.404" gradientUnits="userSpaceOnUse">
<stop stop-color="#5761D7"/>
<stop offset="0.07" stop-color="#5471D8"/>
<stop offset="0.28" stop-color="#4D9BDA"/>
<stop offset="0.48" stop-color="#48BDDD"/>
<stop offset="0.67" stop-color="#44D4DE"/>
<stop offset="0.85" stop-color="#42E3DF"/>
<stop offset="1" stop-color="#42E8E0"/>
</linearGradient>
<linearGradient id="paint17_linear_1053_88597" x1="323.311" y1="275.157" x2="335.903" y2="275.157" gradientUnits="userSpaceOnUse">
<stop stop-color="#5761D7"/>
<stop offset="0.07" stop-color="#5471D8"/>
<stop offset="0.28" stop-color="#4D9BDA"/>
<stop offset="0.48" stop-color="#48BDDD"/>
<stop offset="0.67" stop-color="#44D4DE"/>
<stop offset="0.85" stop-color="#42E3DF"/>
<stop offset="1" stop-color="#42E8E0"/>
</linearGradient>
<linearGradient id="paint18_linear_1053_88597" x1="329.719" y1="247.458" x2="361.268" y2="247.458" gradientUnits="userSpaceOnUse">
<stop stop-color="#5761D7"/>
<stop offset="0.07" stop-color="#5471D8"/>
<stop offset="0.28" stop-color="#4D9BDA"/>
<stop offset="0.48" stop-color="#48BDDD"/>
<stop offset="0.67" stop-color="#44D4DE"/>
<stop offset="0.85" stop-color="#42E3DF"/>
<stop offset="1" stop-color="#42E8E0"/>
</linearGradient>
<linearGradient id="paint19_linear_1053_88597" x1="329.854" y1="216.385" x2="364.053" y2="216.385" gradientUnits="userSpaceOnUse">
<stop stop-color="#5761D7"/>
<stop offset="0.07" stop-color="#5471D8"/>
<stop offset="0.28" stop-color="#4D9BDA"/>
<stop offset="0.48" stop-color="#48BDDD"/>
<stop offset="0.67" stop-color="#44D4DE"/>
<stop offset="0.85" stop-color="#42E3DF"/>
<stop offset="1" stop-color="#42E8E0"/>
</linearGradient>
<linearGradient id="paint20_linear_1053_88597" x1="380.588" y1="329.198" x2="401.255" y2="327.386" gradientUnits="userSpaceOnUse">
<stop stop-color="#5761D7"/>
<stop offset="0.07" stop-color="#5471D8"/>
<stop offset="0.28" stop-color="#4D9BDA"/>
<stop offset="0.48" stop-color="#48BDDD"/>
<stop offset="0.67" stop-color="#44D4DE"/>
<stop offset="0.85" stop-color="#42E3DF"/>
<stop offset="1" stop-color="#42E8E0"/>
</linearGradient>
<linearGradient id="paint21_linear_1053_88597" x1="390.343" y1="166.057" x2="393.253" y2="165.802" gradientUnits="userSpaceOnUse">
<stop stop-color="#5761D7"/>
<stop offset="0.07" stop-color="#5471D8"/>
<stop offset="0.28" stop-color="#4D9BDA"/>
<stop offset="0.48" stop-color="#48BDDD"/>
<stop offset="0.67" stop-color="#44D4DE"/>
<stop offset="0.85" stop-color="#42E3DF"/>
<stop offset="1" stop-color="#42E8E0"/>
</linearGradient>
<linearGradient id="paint22_linear_1053_88597" x1="355.693" y1="273.427" x2="405.285" y2="269.08" gradientUnits="userSpaceOnUse">
<stop stop-color="#5761D7"/>
<stop offset="0.07" stop-color="#5471D8"/>
<stop offset="0.28" stop-color="#4D9BDA"/>
<stop offset="0.48" stop-color="#48BDDD"/>
<stop offset="0.67" stop-color="#44D4DE"/>
<stop offset="0.85" stop-color="#42E3DF"/>
<stop offset="1" stop-color="#42E8E0"/>
</linearGradient>
<linearGradient id="paint23_linear_1053_88597" x1="397.562" y1="210.532" x2="409.294" y2="209.503" gradientUnits="userSpaceOnUse">
<stop stop-color="#5761D7"/>
<stop offset="0.07" stop-color="#5471D8"/>
<stop offset="0.28" stop-color="#4D9BDA"/>
<stop offset="0.48" stop-color="#48BDDD"/>
<stop offset="0.67" stop-color="#44D4DE"/>
<stop offset="0.85" stop-color="#42E3DF"/>
<stop offset="1" stop-color="#42E8E0"/>
</linearGradient>
<linearGradient id="paint24_linear_1053_88597" x1="333.539" y1="322.091" x2="373.677" y2="318.573" gradientUnits="userSpaceOnUse">
<stop stop-color="#5761D7"/>
<stop offset="0.07" stop-color="#5471D8"/>
<stop offset="0.28" stop-color="#4D9BDA"/>
<stop offset="0.48" stop-color="#48BDDD"/>
<stop offset="0.67" stop-color="#44D4DE"/>
<stop offset="0.85" stop-color="#42E3DF"/>
<stop offset="1" stop-color="#42E8E0"/>
</linearGradient>
<linearGradient id="paint25_linear_1053_88597" x1="354.809" y1="305.607" x2="359.908" y2="305.16" gradientUnits="userSpaceOnUse">
<stop stop-color="#5761D7"/>
<stop offset="0.07" stop-color="#5471D8"/>
<stop offset="0.28" stop-color="#4D9BDA"/>
<stop offset="0.48" stop-color="#48BDDD"/>
<stop offset="0.67" stop-color="#44D4DE"/>
<stop offset="0.85" stop-color="#42E3DF"/>
<stop offset="1" stop-color="#42E8E0"/>
</linearGradient>
<linearGradient id="paint26_linear_1053_88597" x1="344.301" y1="296.776" x2="349.4" y2="296.329" gradientUnits="userSpaceOnUse">
<stop stop-color="#5761D7"/>
<stop offset="0.07" stop-color="#5471D8"/>
<stop offset="0.28" stop-color="#4D9BDA"/>
<stop offset="0.48" stop-color="#48BDDD"/>
<stop offset="0.67" stop-color="#44D4DE"/>
<stop offset="0.85" stop-color="#42E3DF"/>
<stop offset="1" stop-color="#42E8E0"/>
</linearGradient>
<linearGradient id="paint27_linear_1053_88597" x1="350.196" y1="251.721" x2="388.146" y2="248.394" gradientUnits="userSpaceOnUse">
<stop stop-color="#5761D7"/>
<stop offset="0.07" stop-color="#5471D8"/>
<stop offset="0.28" stop-color="#4D9BDA"/>
<stop offset="0.48" stop-color="#48BDDD"/>
<stop offset="0.67" stop-color="#44D4DE"/>
<stop offset="0.85" stop-color="#42E3DF"/>
<stop offset="1" stop-color="#42E8E0"/>
</linearGradient>
<linearGradient id="paint28_linear_1053_88597" x1="71.9961" y1="296.606" x2="275.969" y2="296.606" gradientUnits="userSpaceOnUse">
<stop stop-color="#1065B3"/>
<stop offset="0.223154" stop-color="#0D67BB"/>
<stop offset="0.363154" stop-color="#197DDA"/>
<stop offset="0.41" stop-color="#1C82E1"/>
<stop offset="0.69" stop-color="#53ACFF"/>
<stop offset="0.938154" stop-color="#E7F3FF"/>
<stop offset="1" stop-color="white"/>
</linearGradient>
<linearGradient id="paint29_linear_1053_88597" x1="129.73" y1="269.044" x2="252.146" y2="269.044" gradientUnits="userSpaceOnUse">
<stop stop-color="#42E8E0"/>
<stop offset="0.15" stop-color="#42E3DF"/>
<stop offset="0.33" stop-color="#44D4DE"/>
<stop offset="0.52" stop-color="#48BDDD"/>
<stop offset="0.72" stop-color="#4D9BDA"/>
<stop offset="0.93" stop-color="#5471D8"/>
<stop offset="1" stop-color="#5761D7"/>
</linearGradient>
<linearGradient id="paint30_linear_1053_88597" x1="190.926" y1="246.916" x2="2.28557" y2="246.916" gradientUnits="userSpaceOnUse">
<stop stop-color="#53ACFF"/>
<stop offset="0.15" stop-color="#53ACFF"/>
<stop offset="0.33" stop-color="#115696"/>
<stop offset="0.52" stop-color="#2473BC"/>
<stop offset="0.72" stop-color="#1561A7"/>
<stop offset="0.93" stop-color="#5471D8"/>
<stop offset="1" stop-color="#5761D7"/>
</linearGradient>
<linearGradient id="paint31_linear_1053_88597" x1="0.0219149" y1="246.916" x2="190.927" y2="246.916" gradientUnits="userSpaceOnUse">
<stop stop-color="#42DEE8"/>
<stop offset="0.15" stop-color="#42C6E3"/>
<stop offset="0.33" stop-color="#449DDE"/>
<stop offset="0.52" stop-color="#488DDD"/>
<stop offset="0.72" stop-color="#4D9BDA"/>
<stop offset="0.93" stop-color="#5471D8"/>
<stop offset="1" stop-color="#5761D7"/>
</linearGradient>
<linearGradient id="paint32_linear_1053_88597" x1="0.0219208" y1="260.12" x2="2.28678" y2="260.12" gradientUnits="userSpaceOnUse">
<stop stop-color="#42E8E0"/>
<stop offset="0.15" stop-color="#42E3DF"/>
<stop offset="0.33" stop-color="#44D4DE"/>
<stop offset="0.52" stop-color="#48BDDD"/>
<stop offset="0.72" stop-color="#4D9BDA"/>
<stop offset="0.93" stop-color="#5471D8"/>
<stop offset="1" stop-color="#5761D7"/>
</linearGradient>
<linearGradient id="paint33_linear_1053_88597" x1="190.926" y1="282.248" x2="2.28557" y2="282.248" gradientUnits="userSpaceOnUse">
<stop stop-color="#53ACFF"/>
<stop offset="0.15" stop-color="#53ACFF"/>
<stop offset="0.33" stop-color="#115696"/>
<stop offset="0.52" stop-color="#2473BC"/>
<stop offset="0.72" stop-color="#1561A7"/>
<stop offset="0.93" stop-color="#5471D8"/>
<stop offset="1" stop-color="#5761D7"/>
</linearGradient>
<linearGradient id="paint34_linear_1053_88597" x1="0.0219149" y1="282.248" x2="190.927" y2="282.248" gradientUnits="userSpaceOnUse">
<stop stop-color="#42DEE8"/>
<stop offset="0.15" stop-color="#42C6E3"/>
<stop offset="0.33" stop-color="#449DDE"/>
<stop offset="0.52" stop-color="#488DDD"/>
<stop offset="0.72" stop-color="#4D9BDA"/>
<stop offset="0.93" stop-color="#5471D8"/>
<stop offset="1" stop-color="#5761D7"/>
</linearGradient>
<linearGradient id="paint35_linear_1053_88597" x1="0.0188162" y1="505.358" x2="2.28368" y2="505.358" gradientUnits="userSpaceOnUse">
<stop stop-color="#106ABC"/>
<stop offset="0.16" stop-color="#53ACFF"/>
<stop offset="0.713154" stop-color="#53ACFF"/>
<stop offset="0.9998" stop-color="white"/>
<stop offset="0.9999" stop-color="#53ACFF"/>
<stop offset="1" stop-color="#6BB8FF"/>
</linearGradient>
<linearGradient id="paint36_linear_1053_88597" x1="0.0219208" y1="477.795" x2="2.28678" y2="477.795" gradientUnits="userSpaceOnUse">
<stop stop-color="#42E8E0"/>
<stop offset="0.15" stop-color="#42E3DF"/>
<stop offset="0.33" stop-color="#44D4DE"/>
<stop offset="0.52" stop-color="#48BDDD"/>
<stop offset="0.72" stop-color="#4D9BDA"/>
<stop offset="0.93" stop-color="#5471D8"/>
<stop offset="1" stop-color="#5761D7"/>
</linearGradient>
<linearGradient id="paint37_linear_1053_88597" x1="190.926" y1="455.667" x2="2.28557" y2="455.667" gradientUnits="userSpaceOnUse">
<stop stop-color="#53ACFF"/>
<stop offset="0.15" stop-color="#53ACFF"/>
<stop offset="0.33" stop-color="#115696"/>
<stop offset="0.52" stop-color="#2473BC"/>
<stop offset="0.72" stop-color="#1561A7"/>
<stop offset="0.93" stop-color="#5471D8"/>
<stop offset="1" stop-color="#5761D7"/>
</linearGradient>
<linearGradient id="paint38_linear_1053_88597" x1="0.0219149" y1="455.667" x2="190.927" y2="455.667" gradientUnits="userSpaceOnUse">
<stop stop-color="#42DEE8"/>
<stop offset="0.15" stop-color="#42C6E3"/>
<stop offset="0.33" stop-color="#449DDE"/>
<stop offset="0.52" stop-color="#488DDD"/>
<stop offset="0.72" stop-color="#4D9BDA"/>
<stop offset="0.93" stop-color="#5471D8"/>
<stop offset="1" stop-color="#5761D7"/>
</linearGradient>
<linearGradient id="paint39_linear_1053_88597" x1="0.0219208" y1="468.871" x2="2.28678" y2="468.871" gradientUnits="userSpaceOnUse">
<stop stop-color="#42E8E0"/>
<stop offset="0.15" stop-color="#42E3DF"/>
<stop offset="0.33" stop-color="#44D4DE"/>
<stop offset="0.52" stop-color="#48BDDD"/>
<stop offset="0.72" stop-color="#4D9BDA"/>
<stop offset="0.93" stop-color="#5471D8"/>
<stop offset="1" stop-color="#5761D7"/>
</linearGradient>
<linearGradient id="paint40_linear_1053_88597" x1="190.926" y1="490.998" x2="2.28557" y2="490.998" gradientUnits="userSpaceOnUse">
<stop stop-color="#53ACFF"/>
<stop offset="0.15" stop-color="#53ACFF"/>
<stop offset="0.33" stop-color="#115696"/>
<stop offset="0.52" stop-color="#2473BC"/>
<stop offset="0.72" stop-color="#1561A7"/>
<stop offset="0.93" stop-color="#5471D8"/>
<stop offset="1" stop-color="#5761D7"/>
</linearGradient>
<linearGradient id="paint41_linear_1053_88597" x1="0.0219149" y1="490.998" x2="190.927" y2="490.998" gradientUnits="userSpaceOnUse">
<stop stop-color="#42DEE8"/>
<stop offset="0.15" stop-color="#42C6E3"/>
<stop offset="0.33" stop-color="#449DDE"/>
<stop offset="0.52" stop-color="#488DDD"/>
<stop offset="0.72" stop-color="#4D9BDA"/>
<stop offset="0.93" stop-color="#5471D8"/>
<stop offset="1" stop-color="#5761D7"/>
</linearGradient>
<linearGradient id="paint42_linear_1053_88597" x1="391.004" y1="-0.000657539" x2="594.977" y2="-0.000657539" gradientUnits="userSpaceOnUse">
<stop stop-color="#53ACFF"/>
<stop offset="0.16" stop-color="#53ACFF"/>
<stop offset="0.253154" stop-color="#53ACFF"/>
<stop offset="0.41" stop-color="#53ACFF"/>
<stop offset="0.69" stop-color="#A9D6FF"/>
<stop offset="1" stop-color="#E1F0FF"/>
</linearGradient>
<linearGradient id="paint43_linear_1053_88597" x1="448.734" y1="8.05514e-06" x2="571.15" y2="8.05514e-06" gradientUnits="userSpaceOnUse">
<stop stop-color="#42E8E0"/>
<stop offset="0.15" stop-color="#42E3DF"/>
<stop offset="0.33" stop-color="#44D4DE"/>
<stop offset="0.52" stop-color="#48BDDD"/>
<stop offset="0.72" stop-color="#4D9BDA"/>
<stop offset="0.93" stop-color="#5471D8"/>
<stop offset="1" stop-color="#5761D7"/>
</linearGradient>
<linearGradient id="paint44_linear_1053_88597" x1="509.931" y1="246.916" x2="571.15" y2="246.916" gradientUnits="userSpaceOnUse">
<stop stop-color="#53ACFF"/>
<stop offset="0.15" stop-color="#53ACFF"/>
<stop offset="0.33" stop-color="#53ACFF"/>
<stop offset="0.52" stop-color="#53ACFF"/>
<stop offset="0.72" stop-color="#4D9BDA"/>
<stop offset="0.93" stop-color="#5471D8"/>
<stop offset="1" stop-color="#5761D7"/>
</linearGradient>
<linearGradient id="paint45_linear_1053_88597" x1="448.734" y1="246.916" x2="509.931" y2="246.916" gradientUnits="userSpaceOnUse">
<stop stop-color="#53ACFF"/>
<stop offset="0.15" stop-color="#53ACFF"/>
<stop offset="0.33" stop-color="#44D4DE"/>
<stop offset="0.353154" stop-color="#44D1DE"/>
<stop offset="0.52" stop-color="#48BDDD"/>
<stop offset="0.72" stop-color="#4D9BDA"/>
<stop offset="0.93" stop-color="#1F41B9"/>
<stop offset="1" stop-color="#0C5CA5"/>
</linearGradient>
<linearGradient id="paint46_linear_1053_88597" x1="448.734" y1="260.12" x2="571.15" y2="260.12" gradientUnits="userSpaceOnUse">
<stop stop-color="#42E8E0"/>
<stop offset="0.15" stop-color="#42E3DF"/>
<stop offset="0.33" stop-color="#44D4DE"/>
<stop offset="0.52" stop-color="#48BDDD"/>
<stop offset="0.72" stop-color="#4D9BDA"/>
<stop offset="0.93" stop-color="#5471D8"/>
<stop offset="1" stop-color="#5761D7"/>
</linearGradient>
<linearGradient id="paint47_linear_1053_88597" x1="509.931" y1="282.248" x2="571.15" y2="282.248" gradientUnits="userSpaceOnUse">
<stop stop-color="#53ACFF"/>
<stop offset="0.15" stop-color="#53ACFF"/>
<stop offset="0.33" stop-color="#53ACFF"/>
<stop offset="0.52" stop-color="#53ACFF"/>
<stop offset="0.72" stop-color="#4D9BDA"/>
<stop offset="0.93" stop-color="#5471D8"/>
<stop offset="1" stop-color="#5761D7"/>
</linearGradient>
<linearGradient id="paint48_linear_1053_88597" x1="448.734" y1="282.248" x2="509.931" y2="282.248" gradientUnits="userSpaceOnUse">
<stop stop-color="#53ACFF"/>
<stop offset="0.15" stop-color="#53ACFF"/>
<stop offset="0.33" stop-color="#44D4DE"/>
<stop offset="0.353154" stop-color="#44D1DE"/>
<stop offset="0.52" stop-color="#48BDDD"/>
<stop offset="0.72" stop-color="#4D9BDA"/>
<stop offset="0.93" stop-color="#1F41B9"/>
<stop offset="1" stop-color="#0C5CA5"/>
</linearGradient>
<linearGradient id="paint49_linear_1053_88597" x1="391.004" y1="505.359" x2="594.977" y2="505.359" gradientUnits="userSpaceOnUse">
<stop stop-color="#1571C5"/>
<stop offset="0.16" stop-color="#1774CA"/>
<stop offset="0.41" stop-color="#106ABE"/>
<stop offset="0.69" stop-color="#9ACFFF"/>
<stop offset="1" stop-color="#F4FAFF"/>
</linearGradient>
<linearGradient id="paint50_linear_1053_88597" x1="448.734" y1="477.796" x2="571.15" y2="477.796" gradientUnits="userSpaceOnUse">
<stop stop-color="#42E8E0"/>
<stop offset="0.15" stop-color="#42E3DF"/>
<stop offset="0.33" stop-color="#44D4DE"/>
<stop offset="0.52" stop-color="#48BDDD"/>
<stop offset="0.72" stop-color="#4D9BDA"/>
<stop offset="0.93" stop-color="#5471D8"/>
<stop offset="1" stop-color="#5761D7"/>
</linearGradient>
<linearGradient id="paint51_linear_1053_88597" x1="509.931" y1="455.668" x2="571.15" y2="455.668" gradientUnits="userSpaceOnUse">
<stop stop-color="#53ACFF"/>
<stop offset="0.15" stop-color="#53ACFF"/>
<stop offset="0.33" stop-color="#53ACFF"/>
<stop offset="0.52" stop-color="#53ACFF"/>
<stop offset="0.72" stop-color="#4D9BDA"/>
<stop offset="0.93" stop-color="#5471D8"/>
<stop offset="1" stop-color="#5761D7"/>
</linearGradient>
<linearGradient id="paint52_linear_1053_88597" x1="448.734" y1="455.668" x2="509.931" y2="455.668" gradientUnits="userSpaceOnUse">
<stop stop-color="#53ACFF"/>
<stop offset="0.15" stop-color="#53ACFF"/>
<stop offset="0.33" stop-color="#44D4DE"/>
<stop offset="0.353154" stop-color="#44D1DE"/>
<stop offset="0.52" stop-color="#48BDDD"/>
<stop offset="0.72" stop-color="#4D9BDA"/>
<stop offset="0.93" stop-color="#1F41B9"/>
<stop offset="1" stop-color="#0C5CA5"/>
</linearGradient>
<linearGradient id="paint53_linear_1053_88597" x1="448.734" y1="468.872" x2="571.15" y2="468.872" gradientUnits="userSpaceOnUse">
<stop stop-color="#42E8E0"/>
<stop offset="0.15" stop-color="#42E3DF"/>
<stop offset="0.33" stop-color="#44D4DE"/>
<stop offset="0.52" stop-color="#48BDDD"/>
<stop offset="0.72" stop-color="#4D9BDA"/>
<stop offset="0.93" stop-color="#5471D8"/>
<stop offset="1" stop-color="#5761D7"/>
</linearGradient>
<linearGradient id="paint54_linear_1053_88597" x1="509.931" y1="491" x2="571.15" y2="491" gradientUnits="userSpaceOnUse">
<stop stop-color="#53ACFF"/>
<stop offset="0.15" stop-color="#53ACFF"/>
<stop offset="0.33" stop-color="#53ACFF"/>
<stop offset="0.52" stop-color="#53ACFF"/>
<stop offset="0.72" stop-color="#4D9BDA"/>
<stop offset="0.93" stop-color="#5471D8"/>
<stop offset="1" stop-color="#5761D7"/>
</linearGradient>
<linearGradient id="paint55_linear_1053_88597" x1="448.734" y1="490.999" x2="509.931" y2="490.999" gradientUnits="userSpaceOnUse">
<stop stop-color="#53ACFF"/>
<stop offset="0.15" stop-color="#53ACFF"/>
<stop offset="0.33" stop-color="#44D4DE"/>
<stop offset="0.353154" stop-color="#44D1DE"/>
<stop offset="0.52" stop-color="#48BDDD"/>
<stop offset="0.72" stop-color="#4D9BDA"/>
<stop offset="0.93" stop-color="#1F41B9"/>
<stop offset="1" stop-color="#0C5CA5"/>
</linearGradient>
<linearGradient id="paint56_linear_1053_88597" x1="13" y1="320" x2="420" y2="412.5" gradientUnits="userSpaceOnUse">
<stop stop-color="#3B88CE"/>
<stop offset="1" stop-color="#00325F"/>
</linearGradient>
<linearGradient id="paint57_linear_1053_88597" x1="378" y1="397" x2="26" y2="329" gradientUnits="userSpaceOnUse">
<stop stop-color="#BFFFFF"/>
<stop offset="0.418154" stop-color="#53ACFF"/>
<stop offset="1" stop-color="#02386A"/>
</linearGradient>
</defs>
</svg>
