<svg width="39" height="41" viewBox="0 0 39 41" fill="none" xmlns="http://www.w3.org/2000/svg">
<path d="M19.0091 41.0002C29.5076 41.0002 38.0183 31.822 38.0183 20.5001C38.0183 9.17821 29.5076 0 19.0091 0C8.51068 0 0 9.17821 0 20.5001C0 31.822 8.51068 41.0002 19.0091 41.0002Z" fill="#53ACFF"/>
<path fill-rule="evenodd" clip-rule="evenodd" d="M14.2988 25.6035L24.0926 25.7422V34.3124L14.3068 34.2322L14.2988 25.6035Z" fill="#FFEBC8"/>
<path fill-rule="evenodd" clip-rule="evenodd" d="M32.8982 34.4939C31.1219 36.5496 28.9718 38.1883 26.582 39.3078C24.1922 40.4272 21.614 41.0034 19.0085 41.0002C18.2195 41.0002 17.4312 40.9476 16.6481 40.843C14.236 40.5212 11.9043 39.7003 9.78077 38.4254C7.97272 37.3404 6.34026 35.9456 4.94727 34.2956L5.73716 32.2389L14.3036 28.1176C14.3036 31.1263 15.4355 32.1991 19.2066 32.2601C23.8636 32.3351 24.0912 31.1947 24.0912 28.0938L31.9594 32.2608L32.8982 34.4939Z" fill="#F7DA75"/>
<path opacity="0.11" fill-rule="evenodd" clip-rule="evenodd" d="M24.0944 25.7269V27.9853C22.4027 31.2454 15.4818 31.3011 14.2988 25.6035L24.0944 25.7269Z" fill="black"/>
<path fill-rule="evenodd" clip-rule="evenodd" d="M19.1497 5.59375C32.2415 5.59375 27.1391 28.9905 19.1497 28.9905C11.6033 28.9905 6.05799 5.59375 19.1497 5.59375Z" fill="#FFEBC8"/>
<path fill-rule="evenodd" clip-rule="evenodd" d="M11.2984 15.9531C9.40982 16.8421 11.0154 21.053 12.204 21.0337C11.711 19.3864 11.4069 17.6802 11.2984 15.9531Z" fill="#F9DCA4"/>
<path fill-rule="evenodd" clip-rule="evenodd" d="M27.1549 15.9531C29.0436 16.8415 27.4379 21.053 26.25 21.0337C26.7426 19.3863 27.0465 17.6801 27.1549 15.9531Z" fill="#F9DCA4"/>
<path fill-rule="evenodd" clip-rule="evenodd" d="M26.7041 19.6276C26.7041 19.6276 27.3599 13.8451 25.4645 11.8309C24.6401 14.1715 20.8494 14.9709 20.8494 14.9709C21.5854 14.4157 22.2504 13.7584 22.8272 13.0158C21.8109 13.4901 18.5972 14.9119 15.6849 13.786C16.4772 13.271 17.2222 12.6759 17.91 12.0087C17.91 12.0087 15.2727 13.5492 12.7179 13.1644C10.8779 14.6452 11.6967 19.2428 11.6967 19.2428C9.22731 12.219 11.5017 4.1775 19.3102 4.13106C26.9126 4.08528 29.2583 11.9908 26.7041 19.6276Z" fill="#202020"/>
<path fill-rule="evenodd" clip-rule="evenodd" d="M14.3059 27.9824C15.5028 29.9056 17.2086 31.3957 19.2015 32.2589L16.0137 35.8077L11.959 29.1043L14.3059 27.9824Z" fill="white"/>
<path fill-rule="evenodd" clip-rule="evenodd" d="M24.0909 27.9824C22.8941 29.9055 21.1882 31.3957 19.1953 32.2589L22.3826 35.8077L26.4379 29.105L24.0909 27.9824Z" fill="white"/>
<path fill-rule="evenodd" clip-rule="evenodd" d="M20.5265 40.9342C20.0184 40.9771 19.5049 40.9988 18.9861 40.9992C18.5948 40.9992 18.2062 40.9868 17.8203 40.9621L18.4546 35.1523H19.9372L20.5265 40.9342Z" fill="#3DBC93"/>
<path fill-rule="evenodd" clip-rule="evenodd" d="M17.5156 34.1384L19.1994 32.2695L20.8825 34.1384L19.1994 36.0073L17.5156 34.1384Z" fill="#3DBC93"/>
</svg>
