<svg width="192" height="36" viewBox="0 0 192 36" fill="none" xmlns="http://www.w3.org/2000/svg">
<path d="M75.8814 7.06934H71.8594V25.253H82.9936V21.69H75.8814V7.06934Z" fill="white"/>
<path d="M83.3789 19.0853C83.3789 22.9678 85.9785 25.5479 89.9024 25.5479C93.8018 25.5479 96.4014 22.9678 96.4014 19.0853C96.4014 15.2029 93.8018 12.5981 89.9024 12.5981C85.9785 12.5981 83.3789 15.2029 83.3789 19.0853ZM87.1802 19.0607C87.1802 17.2178 88.2593 15.9892 89.9024 15.9892C91.5211 15.9892 92.6002 17.2178 92.6002 19.0607C92.6002 20.9283 91.5211 22.1569 89.9024 22.1569C88.2593 22.1569 87.1802 20.9283 87.1802 19.0607Z" fill="white"/>
<path d="M97.01 18.8888C97.01 22.5991 99.4135 25.1055 102.822 25.1055C104.466 25.1055 105.888 24.5158 106.599 23.5575V25.253C106.599 26.9485 105.545 28.0788 103.681 28.0788C102.013 28.0788 100.86 27.2925 100.787 25.8919H96.9609C97.3043 29.2584 99.9039 31.5189 103.46 31.5189C107.654 31.5189 110.302 28.7915 110.302 24.4666V12.9668H106.893L106.697 14.2199C106.011 13.2125 104.564 12.5491 102.896 12.5491C99.4624 12.5491 97.01 15.1291 97.01 18.8888ZM100.836 18.7905C100.836 17.0212 102.013 15.8417 103.509 15.8417C105.25 15.8417 106.526 16.9966 106.526 18.7905C106.526 20.5843 105.275 21.8129 103.534 21.8129C102.038 21.8129 100.836 20.5843 100.836 18.7905Z" fill="white"/>
<path d="M111.398 19.0853C111.398 22.9678 113.998 25.5479 117.922 25.5479C121.822 25.5479 124.421 22.9678 124.421 19.0853C124.421 15.2029 121.822 12.5981 117.922 12.5981C113.998 12.5981 111.398 15.2029 111.398 19.0853ZM115.2 19.0607C115.2 17.2178 116.279 15.9892 117.922 15.9892C119.54 15.9892 120.619 17.2178 120.619 19.0607C120.619 20.9283 119.54 22.1569 117.922 22.1569C116.279 22.1569 115.2 20.9283 115.2 19.0607Z" fill="white"/>
<path d="M127.681 11.0502C128.858 11.0502 129.815 10.0919 129.815 8.8878C129.815 7.68375 128.858 6.75 127.681 6.75C126.48 6.75 125.523 7.68375 125.523 8.8878C125.523 10.0919 126.48 11.0502 127.681 11.0502ZM125.768 25.2531H129.57V12.9669H125.768V25.2531Z" fill="white"/>
<path d="M131.781 31.1505H135.509V24.0245C136.22 24.9583 137.839 25.5972 139.531 25.5972C143.184 25.5972 145.392 22.7959 145.294 18.9134C145.195 14.9573 142.915 12.5737 139.506 12.5737C137.765 12.5737 136.122 13.3355 135.435 14.4659L135.238 12.9669H131.781V31.1505ZM135.582 19.11C135.582 17.2671 136.808 16.0385 138.574 16.0385C140.364 16.0385 141.492 17.2916 141.492 19.11C141.492 20.9284 140.364 22.1816 138.574 22.1816C136.808 22.1816 135.582 20.953 135.582 19.11Z" fill="white"/>
<path d="M145.695 21.3707C145.793 23.8525 147.756 25.5725 150.846 25.5725C153.813 25.5725 155.874 23.9999 155.874 21.469C155.874 19.6507 154.795 18.4466 152.782 17.9551L150.601 17.4145C149.816 17.218 149.325 17.0213 149.325 16.3824C149.325 15.7435 149.84 15.3258 150.601 15.3258C151.459 15.3258 152.022 15.891 151.999 16.7264H155.408C155.309 14.1709 153.372 12.5737 150.674 12.5737C147.952 12.5737 145.916 14.1955 145.916 16.6528C145.916 18.2991 146.824 19.6507 149.251 20.2895L151.409 20.8546C152.047 21.0266 152.317 21.3215 152.317 21.7392C152.317 22.3536 151.753 22.7468 150.796 22.7468C149.693 22.7468 149.104 22.2307 149.104 21.3707H145.695Z" fill="white"/>
<path d="M161.653 25.5724C163.15 25.5724 164.645 24.8844 165.406 23.8769L165.652 25.253H169.207V12.9668H165.43V19.3557C165.43 21.1985 164.891 22.206 163.15 22.206C161.8 22.206 160.918 21.5917 160.918 19.3065V12.9668H157.141V20.6825C157.141 23.6067 158.76 25.5724 161.653 25.5724Z" fill="white"/>
<path d="M175.2 25.253V18.5448C175.2 16.4806 176.304 15.8909 177.383 15.8909C178.584 15.8909 179.369 16.6281 179.369 18.1516V25.253H183.097V18.5448C183.097 16.4561 184.176 15.8664 185.255 15.8664C186.456 15.8664 187.266 16.6035 187.266 18.1516V25.253H190.945V17.2178C190.945 14.4166 189.473 12.5491 186.309 12.5491C184.544 12.5491 183.097 13.409 182.459 14.736C181.724 13.409 180.448 12.5491 178.413 12.5491C177.064 12.5491 175.813 13.1633 175.078 14.1462L174.931 12.9668H171.398V25.253H175.2Z" fill="white"/>
<path d="M0 18C0 8.05887 8.04316 0 17.9649 0H41.5439C51.4657 0 59.5088 8.05887 59.5088 18V36H17.9649C8.04316 36 0 27.9412 0 18Z" fill="white"/>
<path d="M41.5414 6.75H17.9624C11.7614 6.75 6.73438 11.7868 6.73438 18C6.73438 24.2132 11.7614 29.25 17.9624 29.25H41.5414C47.7425 29.25 52.7695 24.2132 52.7695 18C52.7695 11.7868 47.7425 6.75 41.5414 6.75Z" fill="white"/>
<path d="M17.9656 23.625C21.0661 23.625 23.5796 21.1066 23.5796 18C23.5796 14.8934 21.0661 12.375 17.9656 12.375C14.8651 12.375 12.3516 14.8934 12.3516 18C12.3516 21.1066 14.8651 23.625 17.9656 23.625Z" fill="white"/>
<path d="M15.7166 16.875C16.3367 16.875 16.8394 16.3713 16.8394 15.75C16.8394 15.1287 16.3367 14.625 15.7166 14.625C15.0964 14.625 14.5938 15.1287 14.5938 15.75C14.5938 16.3713 15.0964 16.875 15.7166 16.875Z" fill="white"/>
<path d="M42.6648 23.625C45.7654 23.625 48.2789 21.1066 48.2789 18C48.2789 14.8934 45.7654 12.375 42.6648 12.375C39.5643 12.375 37.0508 14.8934 37.0508 18C37.0508 21.1066 39.5643 23.625 42.6648 23.625Z" fill="white"/>
<path d="M40.4197 16.875C41.0398 16.875 41.5425 16.3713 41.5425 15.75C41.5425 15.1287 41.0398 14.625 40.4197 14.625C39.7996 14.625 39.2969 15.1287 39.2969 15.75C39.2969 16.3713 39.7996 16.875 40.4197 16.875Z" fill="white"/>
</svg>
