<svg width="209" height="52" viewBox="0 0 209 52" fill="none" xmlns="http://www.w3.org/2000/svg">
<path d="M62.8984 36.3419H77.6793V31.8848H68.1519V15.0962H62.8984V36.3419Z" fill="white"/>
<path d="M86.4387 33.3707C84.3314 33.3707 83.2332 31.5284 83.2332 28.765C83.2332 26.0015 84.3314 24.1295 86.4387 24.1295C88.546 24.1295 89.6739 26.0015 89.6739 28.765C89.6739 31.5284 88.546 33.3707 86.4387 33.3707ZM86.4684 36.8175C91.3657 36.8175 94.5712 33.341 94.5712 28.765C94.5712 24.189 91.3657 20.7124 86.4684 20.7124C81.6008 20.7124 78.3359 24.189 78.3359 28.765C78.3359 33.341 81.6008 36.8175 86.4684 36.8175Z" fill="white"/>
<path d="M103.043 41.6015C105.299 41.6015 107.288 41.0963 108.623 39.9078C109.84 38.8083 110.642 37.1443 110.642 34.8563V21.1283H106.012V22.7626H105.952C105.062 21.4849 103.696 20.6826 101.678 20.6826C97.9088 20.6826 95.2969 23.8323 95.2969 28.2895C95.2969 32.9546 98.4727 35.51 101.886 35.51C103.726 35.51 104.884 34.7672 105.774 33.7569H105.893V35.2723C105.893 37.1146 105.032 38.1843 102.984 38.1843C101.381 38.1843 100.58 37.5009 100.313 36.6986H95.6234C96.0982 39.878 98.8585 41.6015 103.043 41.6015ZM103.014 31.9146C101.203 31.9146 100.016 30.4289 100.016 28.1409C100.016 25.8232 101.203 24.3375 103.014 24.3375C105.032 24.3375 106.101 26.0609 106.101 28.1112C106.101 30.2506 105.121 31.9146 103.014 31.9146Z" fill="white"/>
<path d="M120.165 33.3707C118.058 33.3707 116.96 31.5284 116.96 28.765C116.96 26.0015 118.058 24.1295 120.165 24.1295C122.273 24.1295 123.4 26.0015 123.4 28.765C123.4 31.5284 122.273 33.3707 120.165 33.3707ZM120.195 36.8175C125.092 36.8175 128.298 33.341 128.298 28.765C128.298 24.189 125.092 20.7124 120.195 20.7124C115.327 20.7124 112.062 24.189 112.062 28.765C112.062 33.341 115.327 36.8175 120.195 36.8175Z" fill="white"/>
<path d="M129.711 36.3419H134.549V21.1282H129.711V36.3419ZM129.711 19.0185H134.549V15.0962H129.711V19.0185Z" fill="white"/>
<path d="M136.645 41.3638H141.482V34.7672H141.542C142.492 36.0449 143.887 36.8175 145.845 36.8175C149.823 36.8175 152.464 33.6678 152.464 28.7352C152.464 24.1592 150.001 20.6826 145.964 20.6826C143.887 20.6826 142.403 21.6038 141.364 22.9706H141.275V21.1283H136.645V41.3638ZM144.599 33.0735C142.521 33.0735 141.334 31.3798 141.334 28.9135C141.334 26.4472 142.403 24.5752 144.51 24.5752C146.587 24.5752 147.567 26.2986 147.567 28.9135C147.567 31.4986 146.439 33.0735 144.599 33.0735Z" fill="white"/>
<path d="M160.344 36.8175C164.321 36.8175 167.259 35.094 167.259 31.766C167.259 27.8735 164.113 27.19 161.442 26.7443C159.513 26.3878 157.791 26.2392 157.791 25.1695C157.791 24.2186 158.711 23.7729 159.898 23.7729C161.234 23.7729 162.154 24.1889 162.332 25.5558H166.784C166.547 22.5546 164.232 20.6826 159.928 20.6826C156.337 20.6826 153.369 22.3466 153.369 25.5558C153.369 29.1215 156.188 29.8346 158.83 30.2803C160.848 30.6369 162.688 30.7855 162.688 32.1523C162.688 33.1329 161.768 33.6678 160.314 33.6678C158.711 33.6678 157.702 32.9249 157.524 31.4095H152.953C153.102 34.7672 155.891 36.8175 160.344 36.8175Z" fill="white"/>
<path d="M173.831 36.7878C175.938 36.7878 177.274 35.9558 178.372 34.4701H178.461V36.3421H183.091V21.1284H178.253V29.6267C178.253 31.4393 177.244 32.6873 175.582 32.6873C174.039 32.6873 173.297 31.7661 173.297 30.1021V21.1284H168.488V31.1124C168.488 34.4998 170.328 36.7878 173.831 36.7878Z" fill="white"/>
<path d="M185.195 36.342H190.033V27.814C190.033 26.0015 190.924 24.7238 192.437 24.7238C193.892 24.7238 194.574 25.6746 194.574 27.3089V36.342H199.412V27.814C199.412 26.0015 200.273 24.7238 201.816 24.7238C203.271 24.7238 203.953 25.6746 203.953 27.3089V36.342H208.791V26.4472C208.791 23.03 207.07 20.6826 203.627 20.6826C201.668 20.6826 200.036 21.5146 198.848 23.3569H198.789C198.017 21.7226 196.504 20.6826 194.515 20.6826C192.319 20.6826 190.864 21.7226 189.915 23.2975H189.825V21.1283H185.195V36.342Z" fill="white"/>
<path fill-rule="evenodd" clip-rule="evenodd" d="M25.5771 1.19092C39.5044 1.19092 50.7947 12.4941 50.7947 26.4373C50.7947 40.3806 39.5044 51.6837 25.5771 51.6837C11.6497 51.6837 0.359375 40.3806 0.359375 26.4373C0.359375 12.4941 11.6497 1.19092 25.5771 1.19092ZM49.8268 26.4373C49.8268 13.0293 38.9698 2.15988 25.5771 2.15988C24.4967 2.15988 23.433 2.2306 22.39 2.36767C23.0639 2.30868 23.7458 2.27857 24.4349 2.27857C37.2324 2.27857 47.6068 12.6648 47.6068 25.4769C47.6068 38.2888 37.2324 48.6751 24.4349 48.6751C12.3191 48.6751 2.37516 39.3659 1.35016 27.5024C1.90698 40.4162 12.5407 50.7147 25.5771 50.7147C38.9698 50.7147 49.8268 39.8453 49.8268 26.4373ZM46.6388 25.4769C46.6388 13.1999 36.6979 3.24754 24.4349 3.24754C23.4392 3.24754 22.4588 3.31316 21.4977 3.4403C22.0895 3.39046 22.6882 3.36503 23.2928 3.36503C34.9604 3.36503 44.4189 12.8343 44.4189 24.5151C44.4189 36.196 34.9604 45.6652 23.2928 45.6652C12.2608 45.6652 3.20378 37.1995 2.24984 26.4031C2.73486 38.2504 12.4819 47.7061 24.4349 47.7061C36.6979 47.7061 46.6388 37.7537 46.6388 25.4769ZM23.2928 4.334C34.4258 4.334 43.451 13.3694 43.451 24.5151C43.451 35.6608 34.4258 44.6962 23.2928 44.6962C12.4177 44.6962 3.55395 36.0746 3.14912 25.2862C4.02315 35.0238 12.1968 42.6553 22.1508 42.6553C32.6878 42.6553 41.2298 34.1037 41.2298 23.5546C41.2298 13.0055 32.6878 4.45389 22.1508 4.45389C21.6057 4.45389 21.0659 4.47679 20.5324 4.52164C21.4349 4.39792 22.3564 4.334 23.2928 4.334ZM40.2619 23.5546C40.2619 13.5408 32.1533 5.42287 22.1508 5.42287C21.3057 5.42287 20.474 5.48081 19.6598 5.59295C20.1044 5.55811 20.5538 5.54037 21.0074 5.54037C30.4146 5.54037 38.0407 13.175 38.0407 22.593C38.0407 32.0108 30.4146 39.6455 21.0074 39.6455C12.1532 39.6455 4.87688 32.8819 4.05212 24.2339C4.40895 33.9331 12.3755 41.6864 22.1508 41.6864C32.1533 41.6864 40.2619 33.5686 40.2619 23.5546ZM21.0074 6.50933C29.88 6.50933 37.0727 13.7103 37.0727 22.593C37.0727 31.4757 29.88 38.6766 21.0074 38.6766C12.3096 38.6766 5.22617 31.7566 4.95047 23.1159C5.69511 30.7057 12.0885 36.6357 19.8653 36.6357C28.1427 36.6357 34.8527 29.9179 34.8527 21.6312C34.8527 13.3445 28.1427 6.62681 19.8653 6.62681C19.4858 6.62681 19.1095 6.64094 18.737 6.6687C19.4787 6.56366 20.2367 6.50933 21.0074 6.50933ZM33.8849 21.6312C33.8849 13.8796 27.6081 7.59578 19.8653 7.59578C19.1586 7.59578 18.464 7.64814 17.7853 7.7492C18.0951 7.72698 18.4079 7.71568 18.7234 7.71568C25.8701 7.71568 31.6637 13.5159 31.6637 20.6707C31.6637 27.8257 25.8701 33.6258 18.7234 33.6258C12.0264 33.6258 6.51773 28.5329 5.85075 22.0046C6.04848 29.5836 12.2473 35.6668 19.8653 35.6668C27.6081 35.6668 33.8849 29.3828 33.8849 21.6312ZM18.7234 8.68465C25.3356 8.68465 30.6957 14.051 30.6957 20.6707C30.6957 27.2906 25.3356 32.6568 18.7234 32.6568C12.1952 32.6568 6.88749 27.4262 6.75344 20.9229C7.35649 26.3753 11.9742 30.6159 17.5813 30.6159C23.5981 30.6159 28.4758 25.7328 28.4758 19.7091C28.4758 13.6854 23.5981 8.80213 17.5813 8.80213C17.3511 8.80213 17.1227 8.80928 16.8962 8.82336C17.4919 8.73202 18.1021 8.68465 18.7234 8.68465ZM27.5079 19.7091C27.5079 14.2205 23.0636 9.7711 17.5813 9.7711C17.0307 9.7711 16.4907 9.81597 15.9644 9.90226C16.1213 9.89399 16.2791 9.8898 16.438 9.8898C21.3249 9.8898 25.2866 13.856 25.2866 18.7486C25.2866 23.6411 21.3249 27.6074 16.438 27.6074C11.9192 27.6074 8.1915 24.2162 7.65542 19.8373C7.72406 25.2669 12.1417 29.647 17.5813 29.647C23.0636 29.647 27.5079 25.1977 27.5079 19.7091ZM16.438 10.8588C20.7904 10.8588 24.3188 14.3911 24.3188 18.7486C24.3188 23.106 20.7904 26.6383 16.438 26.6383C12.0855 26.6383 8.5571 23.106 8.5571 18.7486C8.5571 18.7382 8.55713 18.7276 8.55716 18.7172C9.01031 22.0378 11.8546 24.5963 15.2959 24.5963C19.0523 24.5963 22.0975 21.5476 22.0975 17.7869C22.0975 14.0261 19.0523 10.9775 15.2959 10.9775C15.2109 10.9775 15.1263 10.979 15.0421 10.9821C15.4951 10.9011 15.9616 10.8588 16.438 10.8588ZM21.1296 17.7869C21.1296 14.5613 18.5178 11.9464 15.2959 11.9464C12.074 11.9464 9.46207 14.5613 9.46207 17.7869C9.46207 21.0124 12.074 23.6273 15.2959 23.6273C18.5178 23.6273 21.1296 21.0124 21.1296 17.7869Z" fill="white"/>
</svg>
