<svg width="130" height="22" viewBox="0 0 130 22" fill="none" xmlns="http://www.w3.org/2000/svg">
<path d="M125.119 21.9021C124.932 21.9021 124.744 21.8435 124.584 21.7259L118.695 17.3854L112.807 21.7256C112.487 21.961 112.055 21.961 111.736 21.7256C111.417 21.4904 111.284 21.0738 111.405 20.693L113.655 13.6705L107.766 9.33089C107.447 9.09543 107.313 8.6788 107.435 8.29832C107.557 7.91784 107.906 7.66042 108.301 7.66042H115.58L117.829 0.637905C117.951 0.25742 118.301 0 118.695 0C119.089 0 119.439 0.257363 119.561 0.637905L121.81 7.66042H129.089C129.483 7.66042 129.833 7.91778 129.955 8.29832C130.076 8.67886 129.943 9.09543 129.624 9.33089L123.736 13.6708L125.985 20.6933C126.107 21.0738 125.974 21.4904 125.655 21.7259C125.495 21.8434 125.307 21.9021 125.119 21.9021ZM118.695 15.3208C118.883 15.3208 119.071 15.3794 119.23 15.4971L123.388 18.5608L121.8 13.6035C121.678 13.223 121.811 12.8064 122.13 12.5709L126.288 9.50712H121.149C120.755 9.50712 120.405 9.24976 120.283 8.86922L118.695 3.91123L117.107 8.86922C116.985 9.2497 116.635 9.50712 116.242 9.50712H111.103L115.26 12.5709C115.579 12.8064 115.713 13.223 115.591 13.6035L114.003 18.5608L118.16 15.4971C118.319 15.3795 118.508 15.3208 118.695 15.3208Z" fill="#53ACFF"/>
<path d="M98.2713 21.9021C98.0839 21.9021 97.8962 21.8435 97.7362 21.7259L91.8475 17.3854L85.959 21.7256C85.6398 21.961 85.2078 21.961 84.8884 21.7256C84.5692 21.4904 84.436 21.0738 84.5577 20.693L86.8069 13.6705L80.9182 9.33089C80.5991 9.09543 80.4658 8.6788 80.5875 8.29832C80.7092 7.91784 81.0588 7.66042 81.4534 7.66042H88.7323L90.9815 0.637905C91.1032 0.25742 91.453 0 91.8473 0C92.2416 0 92.5915 0.257363 92.7132 0.637905L94.9623 7.66042H102.241C102.636 7.66042 102.985 7.91778 103.107 8.29832C103.229 8.67886 103.096 9.09543 102.776 9.33089L96.8884 13.6708L99.1376 20.6933C99.2593 21.0738 99.126 21.4904 98.8069 21.7259C98.6473 21.8434 98.4593 21.9021 98.2713 21.9021ZM91.8475 15.3208C92.0353 15.3208 92.2233 15.3794 92.3827 15.4971L96.5402 18.5608L94.9519 13.6035C94.8302 13.223 94.9634 12.8064 95.2825 12.5709L99.4401 9.50712H94.3011C93.9071 9.50712 93.5575 9.24976 93.4352 8.86922L91.8475 3.91123L90.2598 8.86922C90.1374 9.2497 89.7876 9.50712 89.3939 9.50712H84.2549L88.4125 12.5709C88.7316 12.8064 88.8649 13.223 88.7432 13.6035L87.1551 18.5608L91.3127 15.4971C91.4718 15.3795 91.6602 15.3208 91.8475 15.3208Z" fill="#53ACFF"/>
<path d="M91.4951 2.47266L89.0222 8.47809H81.957L87.9625 13.4237L85.8429 20.8422L92.2016 16.6031L97.8538 20.8422L95.7342 13.4237L101.74 8.47809H94.3212L91.4951 2.47266Z" fill="#53ACFF"/>
<path d="M71.4236 21.9021C71.2363 21.9021 71.0486 21.8435 70.8885 21.7259L64.9999 17.3854L59.1113 21.7256C58.7921 21.961 58.3602 21.961 58.0407 21.7256C57.7216 21.4904 57.5883 21.0738 57.7101 20.693L59.9592 13.6705L54.0706 9.33089C53.7514 9.09543 53.6182 8.6788 53.7399 8.29832C53.8616 7.91784 54.2111 7.66042 54.6057 7.66042H61.8847L64.1338 0.637905C64.2555 0.25742 64.6054 0 64.9997 0C65.3939 0 65.7438 0.257363 65.8655 0.637905L68.1147 7.66042H75.3936C75.7882 7.66042 76.1377 7.91778 76.2595 8.29832C76.3812 8.67886 76.2479 9.09543 75.9288 9.33089L70.0407 13.6708L72.2899 20.6933C72.4116 21.0738 72.2783 21.4904 71.9592 21.7259C71.7997 21.8434 71.6116 21.9021 71.4236 21.9021ZM64.9999 15.3208C65.1876 15.3208 65.3756 15.3794 65.535 15.4971L69.6926 18.5608L68.1042 13.6035C67.9825 13.223 68.1158 12.8064 68.4349 12.5709L72.5924 9.50712H67.4534C67.0594 9.50712 66.7099 9.24976 66.5876 8.86922L64.9998 3.91123L63.4121 8.86922C63.2898 9.2497 62.94 9.50712 62.5462 9.50712H57.4073L61.5648 12.5709C61.884 12.8064 62.0172 13.223 61.8955 13.6035L60.3074 18.5608L64.465 15.4971C64.6242 15.3795 64.8125 15.3208 64.9999 15.3208Z" fill="#53ACFF"/>
<path d="M64.6474 2.47266L62.1746 8.47809H55.1094L61.1148 13.4237L58.9952 20.8422L65.3539 16.6031L71.0061 20.8422L68.8865 13.4237L74.892 8.47809H67.4735L64.6474 2.47266Z" fill="#53ACFF"/>
<path d="M44.576 21.9021C44.3886 21.9021 44.2009 21.8435 44.0409 21.7259L38.1522 17.3854L32.2636 21.7256C31.9445 21.961 31.5125 21.961 31.1931 21.7256C30.8739 21.4904 30.7407 21.0738 30.8624 20.693L33.1115 13.6705L27.2229 9.33089C26.9037 9.09543 26.7705 8.6788 26.8922 8.29832C27.0139 7.91784 27.3635 7.66042 27.7581 7.66042H35.037L37.2862 0.637905C37.4079 0.25742 37.7577 0 38.152 0C38.5463 0 38.8961 0.257363 39.0179 0.637905L41.267 7.66042H48.5459C48.9405 7.66042 49.2901 7.91778 49.4118 8.29832C49.5335 8.67886 49.4002 9.09543 49.0811 9.33089L43.1931 13.6708L45.4422 20.6933C45.5639 21.0738 45.4307 21.4904 45.1116 21.7259C44.952 21.8434 44.764 21.9021 44.576 21.9021ZM38.1522 15.3208C38.3399 15.3208 38.5279 15.3794 38.6873 15.4971L42.8449 18.5608L41.2566 13.6035C41.1348 13.223 41.2681 12.8064 41.5872 12.5709L45.7448 9.50712H40.6058C40.2118 9.50712 39.8622 9.24976 39.7399 8.86922L38.1522 3.91123L36.5644 8.86922C36.4421 9.2497 36.0923 9.50712 35.6986 9.50712H30.5596L34.7172 12.5709C35.0363 12.8064 35.1696 13.223 35.0479 13.6035L33.4598 18.5608L37.6173 15.4971C37.7765 15.3795 37.9649 15.3208 38.1522 15.3208Z" fill="#53ACFF"/>
<path d="M37.7998 2.47266L35.3269 8.47809H28.2617L34.2672 13.4237L32.1476 20.8422L38.5063 16.6031L44.1585 20.8422L42.0389 13.4237L48.0443 8.47809H40.6258L37.7998 2.47266Z" fill="#53ACFF"/>
<path d="M17.7283 21.9021C17.541 21.9021 17.3532 21.8435 17.1932 21.7259L11.3046 17.3854L5.41599 21.7256C5.09683 21.961 4.66486 21.961 4.34542 21.7256C4.02626 21.4904 3.89303 21.0738 4.01474 20.693L6.26389 13.6705L0.375246 9.33089C0.0560889 9.09543 -0.0771452 8.6788 0.0445665 8.29832C0.166278 7.91784 0.515808 7.66042 0.91042 7.66042H8.18935L10.4385 0.637905C10.5602 0.25742 10.9101 0 11.3044 0C11.6986 0 12.0485 0.257363 12.1702 0.637905L14.4194 7.66042H21.6983C22.0928 7.66042 22.4424 7.91778 22.5641 8.29832C22.6859 8.67886 22.5526 9.09543 22.2335 9.33089L16.3454 13.6708L18.5946 20.6933C18.7163 21.0738 18.583 21.4904 18.2639 21.7259C18.1044 21.8434 17.9163 21.9021 17.7283 21.9021ZM11.3046 15.3208C11.4923 15.3208 11.6803 15.3794 11.8397 15.4971L15.9972 18.5608L14.4089 13.6035C14.2872 13.223 14.4205 12.8064 14.7396 12.5709L18.8971 9.50712H13.7581C13.3641 9.50712 13.0146 9.24976 12.8923 8.86922L11.3045 3.91123L9.71679 8.86922C9.59446 9.2497 9.24465 9.50712 8.85093 9.50712H3.71197L7.86952 12.5709C8.18868 12.8064 8.32191 13.223 8.2002 13.6035L6.61213 18.5608L10.7697 15.4971C10.9289 15.3795 11.1172 15.3208 11.3046 15.3208Z" fill="#53ACFF"/>
<path d="M10.9521 2.47266L8.47928 8.47809H1.41406L7.4195 13.4237L5.29993 20.8422L11.6586 16.6031L17.3108 20.8422L15.1912 13.4237L21.1967 8.47809H13.7782L10.9521 2.47266Z" fill="#53ACFF"/>
</svg>
