<svg width="18" height="19" viewBox="0 0 18 19" fill="none" xmlns="http://www.w3.org/2000/svg">
<path d="M16.7239 1.83846C16.4119 1.44955 15.9679 1.22659 15.5059 1.22659H13.9262C13.8469 -0.00937036 13.0841 0.162426 12.787 0.162426C12.4735 0.162426 8.60258 0.162426 8.60258 0.162426C8.60258 0.162426 4.73173 0.162426 4.41821 0.162426C4.12109 0.162426 3.35811 -0.0093334 3.27891 1.22659H1.6992C1.23721 1.22659 0.793275 1.44962 0.481197 1.83846C0.102953 2.3099 -0.06026 2.99024 0.0199521 3.75743C0.034805 4.09825 0.191264 5.84893 1.83758 7.09413C2.67424 7.72693 3.47838 8.04956 4.20994 8.21374C4.37026 8.25186 4.53246 8.28609 4.6987 8.31282C4.70099 8.31563 4.70324 8.31851 4.70559 8.32129C8.12843 12.2841 7.71044 9.99156 7.71044 13.624C7.71044 15.0322 5.93713 14.5764 5.93713 15.6573C5.93713 16.7381 4.55505 15.8486 4.68297 17.131C4.76134 17.9171 6.8779 18.5064 8.60265 18.5064C10.3273 18.5064 12.444 17.9171 12.5223 17.131C12.6502 15.8486 11.268 16.7381 11.268 15.6573C11.268 14.5764 9.49483 15.0322 9.49483 13.624C9.49483 9.99152 9.0768 12.2841 12.4997 8.32129C12.5044 8.31578 12.5087 8.30994 12.5135 8.30439C13.3658 8.18295 14.3434 7.86893 15.3677 7.09417C17.0139 5.84897 17.1703 4.09829 17.1852 3.75747C17.2654 2.99024 17.1021 2.30982 16.7239 1.83846ZM15.8345 3.60623L15.8284 3.6429L15.8292 3.69292C15.826 3.78996 15.7618 4.98374 14.5986 5.86357C14.2805 6.10424 13.9727 6.28665 13.6733 6.42831C13.6056 6.45848 13.5381 6.48868 13.4689 6.51497C13.8776 5.24877 13.9439 3.83255 13.9451 2.71992H15.5058C15.5582 2.71992 15.6354 2.73848 15.7063 2.82669C15.827 2.97716 15.8738 3.26123 15.8345 3.60623ZM7.64531 7.41325C7.51745 7.59066 7.32823 7.68309 7.13733 7.68309C6.99626 7.68309 6.85425 7.6327 6.73519 7.52878C5.10941 6.11023 4.97321 4.16291 4.97321 2.44905C4.97321 2.05547 5.26331 1.73639 5.62106 1.73639C5.9788 1.73639 6.26884 2.05547 6.26884 2.44905C6.26884 3.95281 6.36612 5.38744 7.54027 6.41197C7.82059 6.6566 7.8676 7.10489 7.64531 7.41325ZM2.6065 5.86357C1.44435 4.98455 1.37916 3.79222 1.37583 3.69321L1.37657 3.6592L1.37052 3.60619C1.33127 3.26126 1.37805 2.97712 1.49882 2.82665C1.56966 2.73845 1.64688 2.71989 1.6992 2.71989H3.25992C3.26097 3.66974 3.31144 4.84033 3.57983 5.95048C3.62459 6.14191 3.67419 6.33223 3.73249 6.51926C3.37078 6.36875 2.9961 6.15825 2.6065 5.86357Z" fill="white"/>
</svg>
