<svg width="34" height="38" viewBox="0 0 34 38" fill="none" xmlns="http://www.w3.org/2000/svg">
<path d="M6.44271 5.80341L6.44941 4.08155C6.45121 3.61744 6.07611 3.23941 5.612 3.23761C5.14766 3.2358 4.77035 3.61091 4.76855 4.07501L4.70218 21.1504C4.70192 21.2183 4.71186 21.2838 4.72653 21.3473C4.72013 22.7474 4.7142 24.1484 4.70862 25.4816L4.11172 25.4793C2.84899 25.4744 1.81213 26.4616 1.73403 27.7063C1.7347 27.7822 1.73544 27.8395 1.73626 27.877C1.73665 27.8998 1.73272 27.9211 1.73127 27.9434C1.77738 29.209 2.81607 30.227 4.09333 30.2319L4.69168 30.2343C4.68971 30.8646 4.68847 31.4314 4.68755 31.9156L3.95953 31.9128C3.91588 31.9126 3.87418 31.9063 3.83152 31.8995C1.71347 31.759 0.03608 29.9919 0.0444427 27.8401C0.0446323 27.7913 0.050514 27.7439 0.052068 27.695C0.0361742 25.1983 0.135561 6.21139 0.146722 4.14499C0.143305 4.11577 0.137718 4.08735 0.137834 4.05742C0.146369 1.8201 1.97376 0.0070939 4.21116 0.0157893L5.55453 0.0210102L25.9393 0.100233L26.1447 0.101031C26.6089 0.102836 26.984 0.480623 26.9822 0.94497L26.9697 4.16771L10.5345 4.10384C8.93746 4.09659 7.4881 4.74957 6.44271 5.80341ZM8.26029 33.6042C8.26096 33.68 8.26162 33.738 8.26243 33.775C8.26235 33.7977 8.25849 33.8196 8.25744 33.8423C8.30348 35.107 9.34225 36.1254 10.62 36.1304L31.7142 36.2124L31.7232 33.8889C31.725 33.4241 32.103 33.0495 32.5674 33.0513C33.0317 33.0531 33.4064 33.4307 33.4046 33.8954L33.3923 37.0599C33.3905 37.5237 33.0128 37.8989 32.5486 37.897L10.4863 37.8113C10.442 37.8111 10.4003 37.8048 10.3581 37.7975C8.24029 37.6569 6.56266 35.8899 6.57102 33.7386C6.57121 33.6898 6.57733 33.6419 6.57897 33.593C6.56283 31.0964 6.66246 12.1097 6.67338 10.0433C6.67012 10.0136 6.6643 9.98538 6.66441 9.95521C6.67311 7.71829 8.5005 5.90513 10.7379 5.91382L12.0813 5.91904L32.4662 5.99827L32.672 5.99907C33.1363 6.00087 33.511 6.37866 33.5092 6.843L33.4169 30.6031C33.4151 31.0669 33.0374 31.442 32.5732 31.4402C32.5684 31.4402 32.5631 31.4388 32.5584 31.4387C32.4967 31.4533 32.4327 31.4625 32.3662 31.4622L10.638 31.3778C9.37516 31.3728 8.33839 32.3601 8.26029 33.6042ZM11.2284 27.0484C11.2266 27.5127 11.6015 27.8907 12.0658 27.8925C12.5301 27.8943 12.908 27.5192 12.9098 27.0549L12.9761 9.97966C12.9779 9.51531 12.6031 9.13752 12.1387 9.13572C11.6744 9.13392 11.2966 9.50878 11.2948 9.97312L11.2284 27.0484Z" fill="white"/>
</svg>
