<svg width="27" height="20" viewBox="0 0 27 20" fill="none" xmlns="http://www.w3.org/2000/svg">
<path d="M1.69529 11.5478L3.42097 11.9408L4.71998 10.0676L2.25111 9.50717C1.95645 9.43948 1.64459 9.48206 1.38412 9.62554C1.12365 9.76902 0.935912 10.0017 0.862207 10.2723C0.788502 10.5429 0.834866 10.8293 0.9911 11.0685C1.14733 11.3077 1.40064 11.4801 1.69529 11.5478ZM24.2203 11.8513L18.5697 16.521L11.9266 11.799C11.7998 11.7095 11.654 11.6453 11.4986 11.6106L10.6149 11.4083L9.31462 13.2815L10.7073 13.5989L17.9202 18.7244C18.1344 18.8758 18.3994 18.9537 18.6694 18.9445C18.9395 18.9354 19.1976 18.8398 19.399 18.6744L25.7649 13.4106C25.877 13.3183 25.9681 13.2066 26.0329 13.0818C26.0977 12.957 26.1349 12.8217 26.1424 12.6837C26.15 12.5456 26.1277 12.4075 26.0768 12.2774C26.0259 12.1474 25.9474 12.0278 25.8459 11.9257C25.6406 11.7187 25.3544 11.5947 25.0498 11.5807C24.7452 11.5668 24.447 11.664 24.2203 11.8513ZM11.8164 6.72118L18.0038 10.3595C18.2551 10.507 18.5588 10.5597 18.8514 10.5064C19.144 10.4531 19.4028 10.2979 19.5737 10.0734L25.9384 1.65267C26.0245 1.53904 26.0853 1.41085 26.1173 1.27552C26.1492 1.14018 26.1517 1.00038 26.1245 0.864169C26.0973 0.727961 26.041 0.598046 25.9589 0.481921C25.8767 0.365797 25.7704 0.265761 25.6459 0.187587C25.3948 0.0282574 25.0851 -0.0330678 24.7849 0.017072C24.4846 0.0672118 24.2182 0.22472 24.0443 0.455024L18.3114 8.03743L12.0873 4.3782C11.829 4.22655 11.5158 4.17512 11.2163 4.23518C10.9179 4.29641 10.6579 4.46362 10.4933 4.70029L1.00148 18.3826C0.890172 18.5417 0.827742 18.7255 0.820783 18.9145C0.813823 19.1036 0.862592 19.2908 0.961938 19.4565C1.06128 19.6222 1.20752 19.7602 1.38518 19.8558C1.56285 19.9515 1.76536 20.0013 1.9713 20C2.16506 20.0004 2.35579 19.9559 2.52579 19.8705C2.69578 19.7851 2.83952 19.6617 2.94366 19.5116L11.8164 6.72118Z" fill="white"/>
</svg>
