<svg width="25" height="26" viewBox="0 0 25 26" fill="none" xmlns="http://www.w3.org/2000/svg">
<path fill-rule="evenodd" clip-rule="evenodd" d="M0.230469 2.6C0.230469 1.16406 1.48417 0 3.03069 0H18.3518L24.4991 5.70768V23.4C24.4991 24.8359 23.2453 26 21.6988 26H3.03069C1.48417 26 0.230469 24.8359 0.230469 23.4V2.6ZM11.4314 6.93333H5.83091V8.66667H11.4314V6.93333ZM18.8986 12.1333H5.83091V13.8667H18.8986V12.1333ZM10.1334 18.9069C9.37945 19.0949 8.79067 19.6295 8.58319 20.2074L6.81217 19.6593C7.22697 18.5039 8.31833 17.5649 9.64901 17.233C10.9691 16.9037 12.4741 17.1795 13.7772 18.2926C14.1687 18.1856 14.5565 18.1255 14.94 18.1064C15.9456 18.0563 16.8494 18.2919 17.6241 18.5916C18.1931 18.8117 18.7448 19.0901 19.2087 19.3241C19.3567 19.3988 19.4962 19.4691 19.6241 19.5315C20.2276 19.8257 20.5597 19.9333 20.7654 19.9333V21.6667C20.0376 21.6667 19.3196 21.3408 18.7564 21.0662C18.5826 20.9815 18.4144 20.8967 18.2484 20.813C17.8054 20.5896 17.3783 20.3743 16.9061 20.1916C16.2807 19.9496 15.6677 19.8059 15.0399 19.8373C14.9486 19.8418 14.8554 19.8501 14.7603 19.8628L14.7626 19.8858C14.8124 20.4488 14.5622 20.9118 14.2399 21.2443C13.6451 21.8579 12.6763 22.1797 11.9483 22.3026C11.5691 22.3666 11.1612 22.3935 10.8021 22.3447C10.6263 22.3208 10.3996 22.2707 10.1861 22.1527C9.95904 22.0272 9.68993 21.7871 9.62096 21.4029C9.55679 21.0454 9.70168 20.7508 9.82828 20.5696C9.95889 20.3828 10.1347 20.2212 10.3164 20.0817C10.67 19.8097 11.1852 19.5158 11.8735 19.1925L11.9237 19.1587C11.2735 18.806 10.6491 18.7782 10.1334 18.9069Z" fill="white"/>
</svg>
