<svg width="11" height="15" viewBox="0 0 11 15" fill="none" xmlns="http://www.w3.org/2000/svg">
<path d="M1.87455e-06 0.750451L1.28442e-06 14.2508C0.000420895 14.3875 0.0373472 14.5215 0.106802 14.6384C0.176258 14.7552 0.275614 14.8505 0.394177 14.914C0.512739 14.9775 0.646017 15.0068 0.779666 14.9987C0.913314 14.9906 1.04227 14.9454 1.15266 14.8681L10.703 8.11791C11.099 7.83815 11.099 7.16463 10.703 6.88413L1.15266 0.133934C1.0425 0.0558001 0.91348 0.00998076 0.779609 0.00145379C0.645738 -0.00707318 0.512138 0.0220184 0.393325 0.0855677C0.274511 0.149117 0.175028 0.244694 0.105684 0.361913C0.0363416 0.479133 -0.000209835 0.613512 1.87455e-06 0.750451Z" fill="white"/>
</svg>
