<svg width="25" height="24" viewBox="0 0 25 24" fill="none" xmlns="http://www.w3.org/2000/svg">
<path d="M19.2918 15.1332L17.8693 13.7107C17.5425 13.3589 17.3532 12.9014 17.3358 12.4216V9.62105C17.3358 6.02037 14.9354 2.95312 10.6679 2.95312C6.40044 2.95312 3.99999 5.93146 3.99999 9.62105V12.7327C3.99176 13.0141 3.88111 13.2828 3.68882 13.4884L2.04406 15.1332C1.87655 15.2973 1.78068 15.521 1.77734 15.7555V18.9561C1.77734 19.1919 1.87101 19.4181 2.03774 19.5848C2.20447 19.7515 2.43061 19.8452 2.6664 19.8452H7.60066C7.72436 20.5691 8.10011 21.2259 8.66144 21.6995C9.22277 22.1731 9.93351 22.4328 10.6679 22.4328C11.4023 22.4328 12.113 22.1731 12.6744 21.6995C13.2357 21.2259 13.6115 20.5691 13.7352 19.8452H18.6694C18.9052 19.8452 19.1313 19.7515 19.2981 19.5848C19.4648 19.4181 19.5585 19.1919 19.5585 18.9561V15.7555C19.5551 15.521 19.4593 15.2973 19.2918 15.1332Z" fill="#53ACFF"/>
<path fill-rule="evenodd" clip-rule="evenodd" d="M18.5836 11.0128C21.6247 11.0128 24.09 8.54752 24.09 5.50641C24.09 2.46531 21.6247 0 18.5836 0C15.5425 0 13.0771 2.46531 13.0771 5.50641C13.0771 8.54752 15.5425 11.0128 18.5836 11.0128Z" fill="#118F4B"/>
</svg>
