<svg width="11" height="8" viewBox="0 0 11 8" fill="none" xmlns="http://www.w3.org/2000/svg">
<path d="M0.502575 7.72727H9.54374C9.63528 7.72698 9.725 7.70104 9.80326 7.65225C9.88152 7.60346 9.94534 7.53366 9.98786 7.45037C10.0304 7.36708 10.05 7.27346 10.0446 7.17957C10.0392 7.08569 10.0089 6.9951 9.95712 6.91756L5.43654 0.208622C5.24919 -0.0695407 4.79813 -0.0695407 4.61028 0.208622L0.0896953 6.91756C0.0373694 6.99494 0.00668438 7.08557 0.000973897 7.17961C-0.00473659 7.27366 0.014746 7.36751 0.0573048 7.45097C0.0998636 7.53443 0.163871 7.60432 0.242372 7.65303C0.320874 7.70174 0.410868 7.72742 0.502575 7.72727Z" fill="#118F4B"/>
</svg>
