<svg width="10" height="11" viewBox="0 0 10 11" fill="none" xmlns="http://www.w3.org/2000/svg">
<path fill-rule="evenodd" clip-rule="evenodd" d="M0.909091 0C0.407018 0 0 0.44772 0 1V10C0 10.5523 0.407018 11 0.909091 11H9.09091C9.593 11 10 10.5523 10 10V6.5C10 6.22386 9.79645 6 9.54545 6C9.29445 6 9.09091 6.22386 9.09091 6.5V10H0.909091V1H4.09091C4.34195 1 4.54545 0.77614 4.54545 0.5C4.54545 0.22386 4.34195 0 4.09091 0H0.909091ZM9.86691 0.14645C9.91045 0.19439 9.94336 0.24964 9.96555 0.30861C9.98736 0.36669 9.99964 0.4303 10 0.497V0.5V3.5C10 3.77614 9.79645 4 9.54545 4C9.29445 4 9.09091 3.77614 9.09091 3.5V1.70711L4.41232 6.85355C4.23481 7.04882 3.94701 7.04882 3.7695 6.85355C3.59198 6.65829 3.59198 6.34171 3.7695 6.14645L8.44809 1H6.81818C6.56715 1 6.36364 0.77614 6.36364 0.5C6.36364 0.22386 6.56715 0 6.81818 0H9.54536C9.607 0 9.66582 0.01349 9.71945 0.03794C9.77309 0.06234 9.82327 0.09851 9.86691 0.14645Z" fill="#53ACFF"/>
</svg>
