<svg width="16" height="17" viewBox="0 0 16 17" fill="none" xmlns="http://www.w3.org/2000/svg">
<path d="M12.4444 4.62293C12.3883 4.61492 12.3323 4.61492 12.2762 4.62293C11.0343 4.58287 10.0488 3.56535 10.0488 2.31547C10.0488 1.04156 11.0824 0 12.3643 0C13.6382 0 14.6798 1.03355 14.6798 2.31547C14.6718 3.56535 13.6863 4.58287 12.4444 4.62293Z" fill="#53ACFF"/>
<path d="M15.0563 10.1757C14.1589 10.7766 12.901 11.001 11.7393 10.8487C12.0437 10.1917 12.204 9.46266 12.212 8.6935C12.212 7.8923 12.0357 7.13116 11.6992 6.46616C12.885 6.30592 14.1429 6.53026 15.0482 7.13116C16.3141 7.96441 16.3141 9.33446 15.0563 10.1757Z" fill="#53ACFF"/>
<path d="M3.55937 4.62293C3.61545 4.61492 3.67154 4.61492 3.72762 4.62293C4.96949 4.58287 5.95496 3.56535 5.95496 2.31547C5.95496 1.03355 4.92141 0 3.63949 0C2.36558 0 1.33203 1.03355 1.33203 2.31547C1.33203 3.56535 2.31751 4.58287 3.55937 4.62293Z" fill="#53ACFF"/>
<path d="M3.64947 8.69366C3.64947 9.47082 3.81772 10.2079 4.12218 10.8729C2.99249 10.9931 1.81472 10.7527 0.949424 10.1839C-0.316475 9.34263 -0.316475 7.97258 0.949424 7.13132C1.80671 6.55445 3.01652 6.32209 4.15423 6.45029C3.82574 7.1233 3.64947 7.88444 3.64947 8.69366Z" fill="#53ACFF"/>
<path d="M8.11031 11.1127C8.04621 11.1046 7.9741 11.1046 7.90199 11.1127C6.42778 11.0646 5.25 9.85477 5.25 8.36453C5.25801 6.84225 6.48387 5.6084 8.01416 5.6084C9.53644 5.6084 10.7703 6.84225 10.7703 8.36453C10.7623 9.85477 9.59253 11.0646 8.11031 11.1127Z" fill="#53ACFF"/>
<path d="M5.50697 12.7721C4.29716 13.5813 4.29716 14.9113 5.50697 15.7125C6.88505 16.6339 9.14444 16.6339 10.5225 15.7125C11.7323 14.9033 11.7323 13.5733 10.5225 12.7721C9.15245 11.8507 6.89306 11.8507 5.50697 12.7721Z" fill="#53ACFF"/>
</svg>
