<svg width="15" height="16" viewBox="0 0 15 16" fill="none" xmlns="http://www.w3.org/2000/svg">
<path d="M14.5804 1.46831C14.3084 1.12924 13.9214 0.934858 13.5185 0.934858H12.1413C12.0722 -0.142691 11.4071 0.00708708 11.1481 0.00708708C10.8748 0.00708708 7.50002 0.00708708 7.50002 0.00708708C7.50002 0.00708708 4.12528 0.00708708 3.85194 0.00708708C3.5929 0.00708708 2.92772 -0.142658 2.85866 0.934858H1.48142C1.07864 0.934858 0.691603 1.12931 0.419524 1.46831C0.0897582 1.87932 -0.0525367 2.47247 0.0173949 3.14133C0.0303441 3.43847 0.16675 4.96477 1.60206 6.05037C2.33149 6.60207 3.03257 6.88335 3.67036 7.02649C3.81014 7.05972 3.95155 7.08957 4.09648 7.11287C4.09848 7.11532 4.10044 7.11784 4.10249 7.12025C7.08664 10.5751 6.72221 8.57645 6.72221 11.7433C6.72221 12.9711 5.17619 12.5736 5.17619 13.516C5.17619 14.4583 3.97124 13.6828 4.08277 14.8008C4.15109 15.4862 5.99639 16 7.50008 16C9.00365 16 10.8491 15.4862 10.9174 14.8008C11.0289 13.6828 9.82384 14.4583 9.82384 13.516C9.82384 12.5736 8.27791 12.9711 8.27791 11.7433C8.27791 8.57642 7.91345 10.5751 10.8976 7.12025C10.9017 7.11545 10.9055 7.11036 10.9096 7.10552C11.6528 6.99964 12.5051 6.72587 13.3981 6.05041C14.8333 4.9648 14.9697 3.4385 14.9826 3.14136C15.0525 2.47247 14.9102 1.87926 14.5804 1.46831ZM13.8051 3.00951L13.7997 3.04148L13.8004 3.08509C13.7976 3.16969 13.7417 4.21047 12.7275 4.97753C12.4502 5.18736 12.1818 5.34639 11.9209 5.46989C11.8618 5.49619 11.803 5.52253 11.7426 5.54544C12.0989 4.44153 12.1568 3.20682 12.1578 2.2368H13.5185C13.5641 2.2368 13.6315 2.25298 13.6933 2.32988C13.7985 2.46106 13.8393 2.70873 13.8051 3.00951ZM6.66544 6.32859C6.55396 6.48327 6.38899 6.56385 6.22256 6.56385C6.09957 6.56385 5.97576 6.51992 5.87196 6.42932C4.45455 5.19258 4.33581 3.49484 4.33581 2.00064C4.33581 1.65751 4.58873 1.37932 4.90062 1.37932C5.21252 1.37932 5.46538 1.65751 5.46538 2.00064C5.46538 3.31167 5.55019 4.56243 6.57385 5.45565C6.81825 5.66892 6.85924 6.05975 6.66544 6.32859ZM2.27243 4.97753C1.25923 4.21118 1.20239 3.17166 1.19949 3.08534L1.20014 3.05569L1.19486 3.00947C1.16065 2.70876 1.20143 2.46103 1.30672 2.32985C1.36848 2.25295 1.4358 2.23677 1.48142 2.23677H2.84211C2.84302 3.06488 2.88702 4.08544 3.12102 5.05331C3.16004 5.2202 3.20328 5.38613 3.25411 5.54918C2.93876 5.41797 2.6121 5.23445 2.27243 4.97753Z" fill="#53ACFF"/>
</svg>
