<svg width="21" height="18" viewBox="0 0 21 18" fill="none" xmlns="http://www.w3.org/2000/svg">
<path fill-rule="evenodd" clip-rule="evenodd" d="M0.750658 8.37104C0.272864 8.84129 0.00295154 9.48296 1.77153e-05 10.1531C-0.00249699 10.8233 0.262805 11.4671 0.736827 11.9411C2.00592 13.2102 3.70041 14.9047 4.96195 16.1666C5.93724 17.1415 7.51564 17.1511 8.50266 16.188C10.9796 13.7705 15.307 9.54666 16.6059 8.27883C16.8481 8.04245 16.9852 7.71805 16.9852 7.3794C16.9852 5.60737 16.9852 0 16.9852 0H9.76797C9.43771 0 9.12086 0.129508 8.88573 0.36128C7.60114 1.62618 3.24986 5.90998 0.750658 8.37104ZM15.3087 1.67647V6.68283C15.3087 7.02274 15.1708 7.34797 14.9273 7.58477C13.641 8.83416 9.43981 12.9151 7.59904 14.7031C7.11244 15.1754 6.33666 15.17 5.85677 14.6901C4.85633 13.6901 3.218 12.0513 2.20667 11.04C1.97113 10.8044 1.83953 10.4846 1.8412 10.1514C1.84246 9.81825 1.977 9.49972 2.21505 9.26627C4.08222 7.43347 8.31112 3.28211 9.58021 2.03649C9.81534 1.80556 10.1318 1.67647 10.4612 1.67647C11.8032 1.67647 15.3087 1.67647 15.3087 1.67647ZM11.9947 2.70834C11.2609 2.71463 10.5488 3.13458 10.2068 3.77835C9.91006 4.33619 9.89245 5.03025 10.1573 5.60402C10.5077 6.36346 11.3522 6.87018 12.2035 6.78132C13.0593 6.69247 13.8376 6.01224 14.0074 5.14844C14.1314 4.51851 13.9395 3.83409 13.499 3.36677C13.1222 2.96735 12.5853 2.71798 12.0341 2.70876C12.0212 2.70834 12.0082 2.70834 11.9947 2.70834ZM11.9981 3.7641C12.4612 3.76703 12.8959 4.11993 12.9801 4.58599C13.009 4.74693 12.9981 4.91541 12.9424 5.06965C12.7777 5.52187 12.2634 5.82867 11.7839 5.71341C11.3066 5.59857 10.947 5.08935 11.0287 4.59437C11.1029 4.14633 11.509 3.77164 11.9801 3.7641C11.9859 3.7641 11.9922 3.7641 11.9981 3.7641Z" fill="#53ACFF"/>
<path fill-rule="evenodd" clip-rule="evenodd" d="M16.9859 1.0957V2.77259H18.395V7.77895C18.395 8.11886 18.2576 8.44409 18.014 8.6809C16.7278 9.93029 12.5265 14.0108 10.6858 15.7988C10.1992 16.2715 9.42297 16.2657 8.9435 15.7862L8.92925 15.7719L8.50343 16.1881C8.22555 16.4589 7.90116 16.6529 7.55664 16.7703L8.04868 17.2623C9.02397 18.2376 10.6024 18.2473 11.589 17.2837C14.066 14.8662 18.3933 10.6428 19.6926 9.37495C19.9349 9.13815 20.0715 8.81376 20.0715 8.47511C20.0715 6.7035 20.0715 1.0957 20.0715 1.0957H16.9859Z" fill="#53ACFF"/>
</svg>
