<svg width="41" height="40" viewBox="0 0 41 40" fill="none" xmlns="http://www.w3.org/2000/svg">
<path fill-rule="evenodd" clip-rule="evenodd" d="M20.1282 6.17676C33.4054 6.17676 28.2314 27.9509 20.1282 27.9509C12.4755 27.9509 6.85108 6.17676 20.1282 6.17676Z" fill="#FFE8BE"/>
<path d="M19.9893 39.1275C30.6365 39.1275 39.2677 30.5858 39.2677 20.0491C39.2677 9.5124 30.6365 0.970703 19.9893 0.970703C9.34216 0.970703 0.710938 9.5124 0.710938 20.0491C0.710938 30.5858 9.34216 39.1275 19.9893 39.1275Z" fill="#485A69"/>
<path fill-rule="evenodd" clip-rule="evenodd" d="M33.6518 33.5111C33.2725 32.6084 33.3436 31.7094 30.3046 30.3085C28.874 29.9738 25.1824 29.4941 24.4849 28.2092C24.1317 27.5597 24.2166 26.6441 24.2166 24.9418L16.1496 24.8535C16.1496 26.5687 16.2176 27.4831 15.8227 28.1253C15.0802 29.3336 10.2481 30.2146 8.74892 30.6098C6.19531 31.7329 6.4873 32.4158 6.15039 33.3302C7.93238 35.1494 10.0627 36.5991 12.4171 37.5946C14.7714 38.5902 17.3026 39.1116 19.8628 39.1284C22.4229 39.1452 24.9609 38.6572 27.3284 37.6927C29.6959 36.7283 31.8455 35.3067 33.6518 33.5111Z" fill="#F9DCA4"/>
<path fill-rule="evenodd" clip-rule="evenodd" d="M33.6518 33.5101C33.2924 32.6556 33.3367 31.8042 30.7656 30.5279C30.6233 30.4329 30.4678 30.3586 30.304 30.3075C29.9995 30.2359 29.4555 30.1309 29.1859 30.0778C28.4578 34.4819 17.1528 40.4895 11.1204 30.0488C10.4715 30.1995 9.11203 30.5131 8.74892 30.6088C6.19531 31.7319 6.4873 32.4154 6.15039 33.3292C7.93238 35.1485 10.0627 36.5982 12.4171 37.5937C14.7714 38.5892 17.3026 39.1106 19.8628 39.1275C22.4229 39.1443 24.9609 38.6562 27.3284 37.6918C29.6959 36.7273 31.8455 35.3058 33.6518 33.5101Z" fill="#9F82BB"/>
<mask id="mask0_1370_17679" style="mask-type:luminance" maskUnits="userSpaceOnUse" x="6" y="30" width="28" height="10">
<path fill-rule="evenodd" clip-rule="evenodd" d="M33.6498 33.5111C33.2905 32.6566 33.3348 31.8051 30.7637 30.5289C30.6213 30.4339 30.4658 30.3596 30.302 30.3085C29.9975 30.2369 29.4535 30.1319 29.184 30.0788C28.4559 34.4829 17.1509 40.4905 11.1184 30.0498C10.4696 30.2005 9.11008 30.5141 8.74697 30.6098C6.19336 31.7329 6.48534 32.4164 6.14844 33.3302C7.93043 35.1494 10.0608 36.5991 12.4151 37.5947C14.7695 38.5902 17.3006 39.1116 19.8608 39.1284C22.421 39.1453 24.9589 38.6572 27.3264 37.6927C29.6939 36.7283 31.8436 35.3067 33.6498 33.5111Z" fill="white"/>
</mask>
<g mask="url(#mask0_1370_17679)">
<path d="M10.1438 33.3279C10.6816 33.3279 11.1176 32.8964 11.1176 32.3641C11.1176 31.8319 10.6816 31.4004 10.1438 31.4004C9.60593 31.4004 9.16992 31.8319 9.16992 32.3641C9.16992 32.8964 9.60593 33.3279 10.1438 33.3279Z" fill="white"/>
<path d="M11.1067 37.1776C11.6446 37.1776 12.0806 36.7461 12.0806 36.2138C12.0806 35.6815 11.6446 35.25 11.1067 35.25C10.5688 35.25 10.1328 35.6815 10.1328 36.2138C10.1328 36.7461 10.5688 37.1776 11.1067 37.1776Z" fill="white"/>
<path d="M15.7141 37.3738C16.2519 37.3738 16.6879 36.9423 16.6879 36.41C16.6879 35.8778 16.2519 35.4463 15.7141 35.4463C15.1762 35.4463 14.7402 35.8778 14.7402 36.41C14.7402 36.9423 15.1762 37.3738 15.7141 37.3738Z" fill="white"/>
<path d="M20.5637 39.6052C21.1015 39.6052 21.5375 39.1737 21.5375 38.6415C21.5375 38.1092 21.1015 37.6777 20.5637 37.6777C20.0258 37.6777 19.5898 38.1092 19.5898 38.6415C19.5898 39.1737 20.0258 39.6052 20.5637 39.6052Z" fill="white"/>
<path d="M25.4348 37.0691C25.9727 37.0691 26.4087 36.6377 26.4087 36.1054C26.4087 35.5731 25.9727 35.1416 25.4348 35.1416C24.897 35.1416 24.4609 35.5731 24.4609 36.1054C24.4609 36.6377 24.897 37.0691 25.4348 37.0691Z" fill="white"/>
<path d="M30.0579 37.1688C30.5957 37.1688 31.0318 36.7373 31.0318 36.205C31.0318 35.6727 30.5957 35.2412 30.0579 35.2412C29.52 35.2412 29.084 35.6727 29.084 36.205C29.084 36.7373 29.52 37.1688 30.0579 37.1688Z" fill="white"/>
<path d="M30.3938 33.1492C30.9316 33.1492 31.3676 32.7177 31.3676 32.1854C31.3676 31.6532 30.9316 31.2217 30.3938 31.2217C29.8559 31.2217 29.4199 31.6532 29.4199 32.1854C29.4199 32.7177 29.8559 33.1492 30.3938 33.1492Z" fill="white"/>
</g>
<path fill-rule="evenodd" clip-rule="evenodd" d="M28.9319 23.7951C29.7824 24.1116 30.7179 24.1237 31.5765 23.8294C32.4351 23.5351 33.1626 22.9529 33.633 22.1836L35.9414 23.2659C35.9414 23.2659 34.313 27.0551 30.7518 26.2543C29.4254 25.9561 28.5863 25.606 27.8201 25.4627C25.3258 24.9966 24.4573 27.3496 27.1931 28.001C28.6998 28.3591 30.6589 27.9751 31.1349 27.0884C31.9834 28.2159 30.584 30.154 29.335 30.1076C25.9066 29.9792 24.1841 28.5104 24.2053 26.5945C24.2271 24.5977 25.7107 22.7572 28.9319 23.7951Z" fill="#E9573E"/>
<path fill-rule="evenodd" clip-rule="evenodd" d="M15.8461 25.1567C15.7093 25.3831 15.6677 25.6535 15.7301 25.9099C15.7884 26.6543 15.6928 27.4026 15.4493 28.1092C13.9158 30.669 22.2916 34.9762 25.5845 29.0786C26.015 28.4401 24.1321 27.8542 24.7373 25.8865C24.7726 25.8021 24.7863 25.7105 24.7771 25.6196C24.7679 25.5288 24.7362 25.4416 24.6846 25.3659C24.6331 25.2902 24.5634 25.2283 24.4818 25.1858C24.4002 25.1432 24.3092 25.1213 24.2169 25.1221C24.2169 25.1221 20.8828 27.8888 15.8461 25.1567Z" fill="#E9573E"/>
<mask id="mask1_1370_17679" style="mask-type:luminance" maskUnits="userSpaceOnUse" x="15" y="25" width="11" height="8">
<path fill-rule="evenodd" clip-rule="evenodd" d="M15.85 25.1567C15.7133 25.3831 15.6716 25.6535 15.734 25.9099C15.7923 26.6543 15.6967 27.4026 15.4532 28.1092C13.9197 30.669 22.2955 34.9762 25.5884 29.0786C26.0189 28.4401 24.136 27.8542 24.7412 25.8865C24.7765 25.8021 24.7902 25.7105 24.781 25.6196C24.7719 25.5288 24.7401 25.4416 24.6885 25.3659C24.637 25.2902 24.5673 25.2283 24.4857 25.1858C24.4041 25.1432 24.3131 25.1213 24.2208 25.1221C24.2208 25.1221 20.8867 27.8888 15.85 25.1567Z" fill="white"/>
</mask>
<g mask="url(#mask1_1370_17679)">
<path opacity="0.11" fill-rule="evenodd" clip-rule="evenodd" d="M24.2194 24.9135L25.2744 25.4389C25.2993 25.9761 25.3299 28.2791 25.7123 28.8576C24.585 31.4199 16.8936 30.9618 15.8086 24.8135L24.2194 24.9135Z" fill="black"/>
</g>
<path fill-rule="evenodd" clip-rule="evenodd" d="M12.6319 15.9023C10.7864 16.6988 12.3561 20.4775 13.5178 20.4608C13.0358 18.9827 12.7383 17.4519 12.6319 15.9023Z" fill="#F9DCA4"/>
<path fill-rule="evenodd" clip-rule="evenodd" d="M27.8521 15.9014C29.6988 16.6991 28.1285 20.4771 26.9668 20.4604C27.4488 18.9822 27.7461 17.4511 27.8521 15.9014Z" fill="#F9DCA4"/>
<path fill-rule="evenodd" clip-rule="evenodd" d="M20.1259 6.32129C25.5675 6.32129 27.8478 10.1493 27.9876 14.5744C28.1791 20.6314 24.447 27.8059 20.1265 27.8059C16.0337 27.8059 12.1992 20.3856 12.432 14.267C12.5942 9.97398 14.8115 6.32129 20.1259 6.32129Z" fill="#FFE8BE"/>
<path fill-rule="evenodd" clip-rule="evenodd" d="M24.6446 11.2122C24.536 11.6617 22.6644 15.0853 19.8506 16.2362C20.3222 15.423 21.0797 14.4506 21.1346 13.5195C19.7857 15.4786 14.2823 17.4321 11.0274 16.477C10.2968 4.54582 19.5418 4.83354 20.1663 4.86689C20.7914 4.83354 30.0594 4.65696 29.3288 16.5869C25.6884 15.9139 24.4437 13.1645 24.6446 11.2122Z" fill="#ECBE6A"/>
<path fill-rule="evenodd" clip-rule="evenodd" d="M11.1641 13.1827C11.957 1.76955 28.5883 2.20978 29.1822 13.1827C26.4396 5.54018 13.5068 5.65811 11.1641 13.1827Z" fill="#E9573E"/>
<path fill-rule="evenodd" clip-rule="evenodd" d="M27.9496 16.1939C27.9496 16.1939 26.5215 22.804 21.9358 25.3503C36.6149 21.5 31.8477 5.40126 26.0517 5.39262C24.253 0.537796 10.7974 1.87329 8.92568 11.2273C7.05399 20.5813 15.1166 24.6644 15.7555 25.0404C14.769 23.6182 13.9751 22.0743 13.394 20.448C12.7536 20.0624 12.2766 19.4596 12.052 18.7519C11.8224 18.0732 11.7768 17.3468 11.9198 16.6452C11.4668 16.5643 11.1187 16.4754 11.1187 16.4754C11.035 15.4439 11.0475 14.407 11.1561 13.3778C11.3994 10.9735 12.2723 7.76169 15.4173 6.0014C17.6153 4.77149 22.3544 4.42697 25.2075 6.20392C28.5529 8.28712 29.4631 12.8042 29.2329 16.4699L27.9496 16.1939Z" fill="#D6A956"/>
<path d="M40.6601 27.8562C40.3312 27.2969 39.7262 26.917 39.0253 26.917H32.3816V27.8562H40.6601ZM23.8398 36.3094H40.9234V37.2487H23.8398V36.3094ZM32.3816 32.5525H40.9234V33.4917H32.3816V32.5525ZM32.3816 30.674H40.9234V31.6132H32.3816V30.674ZM23.8398 34.431H40.9234V35.3702H23.8398V34.431ZM25.738 39.1272H39.0253C39.7262 39.1272 40.3312 38.7473 40.6601 38.1879H24.1032C24.4321 38.7473 25.0371 39.1272 25.738 39.1272ZM32.3816 28.7955H40.9234V29.7347H32.3816V28.7955Z" fill="#B22334"/>
<path d="M23.8721 37.5678C23.8802 37.6114 23.8892 37.6551 23.9001 37.6979C23.9124 37.7453 23.9276 37.7908 23.9438 37.8369C23.986 37.9585 24.0373 38.0759 24.1018 38.1858L24.1032 38.1881H40.6601L40.661 38.1863C40.7247 38.0755 40.7775 37.959 40.8186 37.8383C40.8498 37.7501 40.8739 37.6597 40.8907 37.5678C40.9102 37.4645 40.9234 37.3583 40.9234 37.2489H23.8398C23.8398 37.3583 23.8531 37.464 23.8721 37.5678ZM23.8398 35.3704H40.9234V36.3097H23.8398V35.3704ZM23.8398 33.4919V34.4312H40.9234V33.4919H32.3816H23.8398ZM32.3816 31.6134H40.9234V32.5527H32.3816V31.6134ZM32.3816 29.7349H40.9234V30.6742H32.3816V29.7349ZM23.9006 28.3467C23.9124 28.2988 23.9291 28.2533 23.9442 28.2073C23.9278 28.2531 23.9132 28.2997 23.9006 28.3467ZM32.3816 28.7957H40.9234C40.9234 28.6863 40.9102 28.5801 40.8907 28.4763C40.8741 28.3844 40.8498 28.2939 40.8181 28.2058C40.777 28.0846 40.724 27.9676 40.6601 27.8564H32.3816V28.7957Z" fill="#EEEEEE"/>
<path d="M32.3816 26.917H25.738C25.2346 26.917 24.7518 27.1149 24.3958 27.4672C24.0398 27.8195 23.8398 28.2973 23.8398 28.7955V33.4917H32.3816V26.917Z" fill="#3C3B6E"/>
<path d="M24.791 28.1974L25.0843 28.4083L24.9723 28.7487L25.2651 28.5383L25.5584 28.7487L25.4464 28.4083L25.7396 28.1974H25.3771L25.2651 27.8564L25.1536 28.1974H24.791ZM25.7401 29.1366L26.0334 29.3475L25.9214 29.688L26.2142 29.4776L26.5074 29.688L26.3955 29.3475L26.6887 29.1366H26.3262L26.2142 28.7957L26.1027 29.1366H25.7401ZM27.6383 29.1366L27.9316 29.3475L27.8196 29.688L28.1124 29.4776L28.4056 29.688L28.2936 29.3475L28.5869 29.1366H28.2243L28.1124 28.7957L28.0008 29.1366H27.6383ZM29.5365 29.1366L29.8297 29.3475L29.7177 29.688L30.0105 29.4776L30.3038 29.688L30.1918 29.3475L30.4851 29.1366H30.1225L30.0105 28.7957L29.899 29.1366H29.5365ZM25.7401 31.0151L26.0334 31.226L25.9214 31.5665L26.2142 31.3561L26.5074 31.5665L26.3955 31.226L26.6887 31.0151H26.3262L26.2142 30.6742L26.1027 31.0151H25.7401ZM27.6383 31.0151L27.9316 31.226L27.8196 31.5665L28.1124 31.3561L28.4056 31.5665L28.2936 31.226L28.5869 31.0151H28.2243L28.1124 30.6742L28.0008 31.0151H27.6383ZM29.5365 31.0151L29.8297 31.226L29.7177 31.5665L30.0105 31.3561L30.3038 31.5665L30.1918 31.226L30.4851 31.0151H30.1225L30.0105 30.6742L29.899 31.0151H29.5365ZM26.6892 28.1974L26.9825 28.4083L26.8705 28.7487L27.1633 28.5383L27.4565 28.7487L27.3445 28.4083L27.6378 28.1974H27.2753L27.1633 27.8564L27.0517 28.1974H26.6892ZM28.5874 28.1974L28.8806 28.4083L28.7686 28.7487L29.0614 28.5383L29.3547 28.7487L29.2427 28.4083L29.536 28.1974H29.1734L29.0614 27.8564L28.9499 28.1974H28.5874ZM30.4855 28.1974L30.7788 28.4083L30.6668 28.7487L30.9596 28.5383L31.2529 28.7487L31.1409 28.4083L31.4342 28.1974H31.0716L30.9596 27.8564L30.8481 28.1974H30.4855ZM24.791 30.0759L25.0843 30.2867L24.9723 30.6272L25.2651 30.4168L25.5584 30.6272L25.4464 30.2867L25.7396 30.0759H25.3771L25.2651 29.7349L25.1536 30.0759H24.791ZM26.8705 30.6272L27.1633 30.4168L27.4565 30.6272L27.3445 30.2867L27.6378 30.0759H27.2753L27.1633 29.7349L27.0517 30.0759H26.6892L26.9825 30.2867L26.8705 30.6272ZM28.5874 30.0759L28.8806 30.2867L28.7686 30.6272L29.0614 30.4168L29.3547 30.6272L29.2427 30.2867L29.536 30.0759H29.1734L29.0614 29.7349L28.9499 30.0759H28.5874ZM30.4855 30.0759L30.7788 30.2867L30.6668 30.6272L30.9596 30.4168L31.2529 30.6272L31.1409 30.2867L31.4342 30.0759H31.0716L30.9596 29.7349L30.8481 30.0759H30.4855ZM24.791 31.9544L25.0843 32.1652L24.9723 32.5057L25.2651 32.2953L25.5584 32.5057L25.4464 32.1652L25.7396 31.9544H25.3771L25.2651 31.6134L25.1536 31.9544H24.791ZM26.8705 32.5057L27.1633 32.2953L27.4565 32.5057L27.3445 32.1652L27.6378 31.9544H27.2753L27.1633 31.6134L27.0517 31.9544H26.6892L26.9825 32.1652L26.8705 32.5057ZM28.5874 31.9544L28.8806 32.1652L28.7686 32.5057L29.0614 32.2953L29.3547 32.5057L29.2427 32.1652L29.536 31.9544H29.1734L29.0614 31.6134L28.9499 31.9544H28.5874ZM30.4855 31.9544L30.7788 32.1652L30.6668 32.5057L30.9596 32.2953L31.2529 32.5057L31.1409 32.1652L31.4342 31.9544H31.0716L30.9596 31.6134L30.8481 31.9544H30.4855Z" fill="white"/>
</svg>
