<svg width="41" height="40" viewBox="0 0 41 40" fill="none" xmlns="http://www.w3.org/2000/svg">
<path d="M19.9893 38.2516C30.6365 38.2516 39.2677 29.7099 39.2677 19.1731C39.2677 8.63643 30.6365 0.0947266 19.9893 0.0947266C9.34216 0.0947266 0.710938 8.63643 0.710938 19.1731C0.710938 29.7099 9.34216 38.2516 19.9893 38.2516Z" fill="#FFC200"/>
<path fill-rule="evenodd" clip-rule="evenodd" d="M33.5211 32.7615C29.8829 36.3104 24.97 38.2849 19.8616 38.2512C14.7533 38.2175 9.86741 36.1784 6.27734 32.5819C6.73648 31.3253 7.62822 30.269 8.79602 29.5985C9.58309 29.0226 10.4365 28.5413 11.3384 28.1648C9.96707 23.5014 13.6949 21.2089 15.1211 20.5488C15.1211 22.7018 17.1581 21.2731 19.6861 21.3002C21.7675 21.3231 25.8833 23.3964 25.8833 20.6612C28.173 21.3317 30.6686 25.65 28.951 28.3031C29.6552 28.6439 30.3206 29.0582 30.9356 29.5392C32.1381 30.2964 33.0486 31.4308 33.5211 32.7615Z" fill="#677079"/>
<path fill-rule="evenodd" clip-rule="evenodd" d="M15.7056 23.9766L25.0142 24.0321V26.1542L25.0098 26.1869C25.0033 26.2831 24.9887 26.3785 24.9661 26.4722L24.9349 26.6827L24.9162 26.7266C24.3135 29.8594 21.6763 31.0702 20.0479 31.9136C18.3322 30.9887 15.9065 29.3222 15.7137 26.374L15.7056 26.3376V26.2141C15.7043 26.1715 15.7035 26.1289 15.7031 26.0863C15.7031 26.1085 15.705 26.1295 15.7056 26.1518V23.9766Z" fill="#F9DCA4"/>
<path opacity="0.11" fill-rule="evenodd" clip-rule="evenodd" d="M25.0128 23.9375V26.4103C25.011 26.6395 24.9912 26.8682 24.9535 27.0944C24.9063 27.3744 24.8267 27.648 24.7165 27.91C21.4822 30.3272 16.3288 28.3447 15.5059 24.216L25.0128 23.9375Z" fill="black"/>
<path fill-rule="evenodd" clip-rule="evenodd" d="M12.0076 15.6758C8.92552 16.4599 11.5459 20.1768 13.4843 20.1608C12.7026 18.7748 12.201 17.2515 12.0076 15.6758Z" fill="#F9DCA4"/>
<path fill-rule="evenodd" clip-rule="evenodd" d="M28.0614 15.6758C31.1434 16.4599 28.5231 20.1768 26.584 20.1602C27.3659 18.7744 27.8677 17.2513 28.0614 15.6758Z" fill="#F9DCA4"/>
<path fill-rule="evenodd" clip-rule="evenodd" d="M19.887 7.10938C32.6912 7.10938 27.7013 27.1424 19.887 27.1424C12.5062 27.1424 7.08271 7.10938 19.887 7.10938Z" fill="#FFE8BE"/>
<path fill-rule="evenodd" clip-rule="evenodd" d="M13.8399 13.7426C13.9492 13.8611 14.0302 14.0023 14.077 14.1559C14.1238 14.3094 14.1353 14.4714 14.1105 14.6299C14.0857 14.7885 14.0253 14.9394 13.9338 15.0718C13.8423 15.2042 13.722 15.3146 13.5817 15.3949C12.677 16.1315 12.6439 18.7 12.6439 18.7C12.2946 18.3567 12.3027 16.518 11.5453 15.4554C10.7878 14.3928 10.2775 6.95773 14.5131 4.25402C14.2528 4.55699 14.0653 4.91436 13.9645 5.29931C13.8636 5.68427 13.8522 6.08681 13.931 6.47676C13.931 6.47676 16.8733 2.3011 21.7547 2.4215C21.3677 2.63032 21.0295 2.91749 20.7622 3.2643C20.4948 3.61111 20.3043 4.00977 20.2031 4.43431C20.2031 4.43431 24.4705 2.69193 28.0268 4.76463C27.1022 5.01753 26.2277 5.42402 25.4407 5.96676C27.1676 6.01369 28.8366 6.33104 30.095 7.43871C29.8241 7.52476 29.5735 7.66364 29.3578 7.84717C29.1421 8.03069 28.9658 8.25513 28.8393 8.50723C28.7127 8.75933 28.6385 9.03397 28.621 9.31493C28.6035 9.59589 28.6431 9.87747 28.7374 10.143C29.2714 12.3059 29.3213 14.3181 28.8041 15.3998C28.2869 16.4815 28.043 15.7832 27.7192 18.0517C27.7033 18.2049 27.6516 18.3524 27.5683 18.4825C27.4849 18.6126 27.3721 18.7217 27.2388 18.8012C27.2263 18.9654 27.4771 16.4822 26.8301 15.8209C26.1838 15.1602 26.5899 14.3483 26.8482 13.868C28.6513 10.5172 23.2514 8.99894 20.2998 9.00265C17.7399 9.00574 11.5652 10.1572 13.8399 13.7426Z" fill="#8A5C42"/>
<path fill-rule="evenodd" clip-rule="evenodd" d="M13.0586 30.4487C13.0773 30.4721 19.5584 38.7734 27.1774 30.3252C26.2571 32.827 22.2879 34.8139 20.0175 34.8077C15.6815 34.7954 13.2819 31.3501 13.0586 30.4487Z" fill="#434955"/>
<path fill-rule="evenodd" clip-rule="evenodd" d="M23.3789 37.9575C23.1231 38.0019 22.8661 38.0408 22.6071 38.076V32.5581C22.6166 32.4656 22.6623 32.3806 22.7343 32.321C22.8064 32.2615 22.8991 32.2322 22.9927 32.2395C23.0864 32.232 23.1793 32.2612 23.2515 32.3208C23.3237 32.3804 23.3694 32.4655 23.3789 32.5581V37.9575ZM17.2522 38.0599C16.9935 38.0233 16.7363 37.9821 16.4805 37.9365V32.5581C16.49 32.4656 16.5356 32.3806 16.6077 32.321C16.6797 32.2615 16.7725 32.2322 16.866 32.2395C16.9598 32.2319 17.0529 32.261 17.1252 32.3206C17.1975 32.3801 17.2434 32.4654 17.2529 32.5581L17.2522 38.0599Z" fill="#E6E6E6"/>
<path d="M23.0723 37.1363C23.0723 37.6345 23.2709 38.1123 23.6244 38.4646C23.9779 38.8169 24.4573 39.0148 24.9573 39.0148H38.1522C38.6522 39.0148 39.1316 38.8169 39.4851 38.4646C39.8386 38.1123 40.0372 37.6345 40.0372 37.1363V35.2578H23.0723V37.1363Z" fill="#FFCD05"/>
<path d="M23.0723 31.0322H40.0372V35.2588H23.0723V31.0322Z" fill="#ED1F24"/>
<path d="M38.1522 26.8047H24.9573C24.4573 26.8047 23.9779 27.0026 23.6244 27.3549C23.2709 27.7072 23.0723 28.185 23.0723 28.6832V31.0313H40.0372V28.6832C40.0372 28.185 39.8386 27.7072 39.4851 27.3549C39.1316 27.0026 38.6522 26.8047 38.1522 26.8047Z" fill="#141414"/>
</svg>
