<svg width="10" height="10" viewBox="0 0 10 10" fill="none" xmlns="http://www.w3.org/2000/svg">
<path d="M9.66205 0.337951C9.21145 -0.11265 8.48086 -0.11265 8.0303 0.337951L4.99998 3.36832L1.96966 0.337982C1.51904 -0.11262 0.78858 -0.11262 0.337963 0.337982C-0.112655 0.788584 -0.112655 1.51917 0.337963 1.9697L3.36813 5.00002L0.337963 8.03034C-0.112655 8.4808 -0.112655 9.21142 0.337963 9.66204C0.78858 10.1127 1.5192 10.1127 1.96982 9.66204L4.99998 6.63187L8.03015 9.66204C8.48083 10.1127 9.21142 10.1127 9.66202 9.66204C10.1126 9.21142 10.1126 8.48096 9.66202 8.03034L6.63168 5.00002L9.66205 1.9697C10.1127 1.51914 10.1127 0.788553 9.66205 0.337951Z" fill="white"/>
</svg>
