<svg width="18" height="18" viewBox="0 0 18 18" fill="none" xmlns="http://www.w3.org/2000/svg">
<path d="M13.3829 4.9725C13.3226 4.96389 13.2622 4.96389 13.2019 4.9725C11.8664 4.92942 10.8066 3.83517 10.8066 2.49105C10.8066 1.12108 11.9181 0.000976562 13.2967 0.000976562C14.6667 0.000976562 15.7868 1.11246 15.7868 2.49105C15.7782 3.83517 14.7184 4.92942 13.3829 4.9725Z" fill="white"/>
<path d="M16.1922 10.9436C15.2272 11.5898 13.8745 11.8311 12.6251 11.6674C12.9525 10.9608 13.1248 10.1768 13.1335 9.34961C13.1335 8.488 12.9439 7.66946 12.582 6.95432C13.8572 6.782 15.21 7.02325 16.1836 7.66946C17.5449 8.56554 17.5449 10.0389 16.1922 10.9436Z" fill="white"/>
<path d="M3.82889 4.9725C3.8892 4.96389 3.94951 4.96389 4.00983 4.9725C5.34533 4.92942 6.40512 3.83517 6.40512 2.49105C6.40512 1.11246 5.29364 0.000976562 3.91505 0.000976562C2.54508 0.000976562 1.43359 1.11246 1.43359 2.49105C1.43359 3.83517 2.49338 4.92942 3.82889 4.9725Z" fill="white"/>
<path d="M3.92466 9.34978C3.92466 10.1855 4.1056 10.9782 4.43302 11.6934C3.21814 11.8226 1.95156 11.5641 1.02102 10.9524C-0.340339 10.0477 -0.340339 8.57433 1.02102 7.66963C1.94295 7.04926 3.24399 6.79939 4.46748 6.93725C4.11422 7.66101 3.92466 8.47955 3.92466 9.34978Z" fill="white"/>
<path d="M8.72052 11.9515C8.65159 11.9429 8.57405 11.9429 8.4965 11.9515C6.91112 11.8998 5.64453 10.5988 5.64453 8.99619C5.65315 7.35912 6.97144 6.03223 8.61713 6.03223C10.2542 6.03223 11.5811 7.35912 11.5811 8.99619C11.5725 10.5988 10.3145 11.8998 8.72052 11.9515Z" fill="white"/>
<path d="M5.92109 13.7353C4.62005 14.6056 4.62005 16.0358 5.92109 16.8975C7.40309 17.8883 9.83285 17.8883 11.3148 16.8975C12.6159 16.0272 12.6159 14.5969 11.3148 13.7353C9.84147 12.7445 7.41171 12.7445 5.92109 13.7353Z" fill="white"/>
</svg>
