<svg width="17" height="16" viewBox="0 0 17 16" fill="none" xmlns="http://www.w3.org/2000/svg">
<path fill-rule="evenodd" clip-rule="evenodd" d="M2.16423 0.686247C3.22542 -0.36058 4.9727 -0.174242 5.86126 1.00332L6.96052 2.46007C7.68353 3.41822 7.61972 4.75736 6.7615 5.60397L6.55333 5.8093C6.54427 5.8355 6.52221 5.91784 6.54671 6.07433C6.6018 6.42676 6.89845 7.17433 8.14372 8.40276C9.38855 9.63076 10.1474 9.92481 10.5077 9.97964C10.671 10.0045 10.7564 9.98128 10.7828 9.97211L11.1385 9.62125C11.9014 8.86866 13.0738 8.72794 14.0184 9.23743L15.6839 10.1357C17.1099 10.9048 17.4703 12.8279 16.3018 13.9805L15.0635 15.2021C14.6733 15.587 14.1486 15.9079 13.5083 15.9672C11.9313 16.1131 8.25417 15.9269 4.39056 12.1156C0.783406 8.55722 0.0911983 5.45415 0.00361531 3.92525C-0.0406687 3.15215 0.32756 2.49807 0.795959 2.03601L2.16423 0.686247ZM4.8145 1.78076C4.37285 1.19549 3.54969 1.14895 3.08621 1.60617L1.71794 2.95593C1.43034 3.23964 1.29196 3.55231 1.3091 3.85165C1.37869 5.06641 1.93774 7.86647 5.31253 11.1956C8.85305 14.6882 12.1231 14.7924 13.3869 14.6755C13.6451 14.6516 13.9019 14.5185 14.1416 14.2822L15.3799 13.0606C15.8833 12.5641 15.7723 11.6599 15.0593 11.2754L13.3939 10.3772C12.934 10.1292 12.3952 10.211 12.0604 10.5412L11.6634 10.9329L11.2025 10.4729C11.6634 10.9329 11.6628 10.9335 11.6622 10.9341L11.6609 10.9353L11.6582 10.9379L11.6525 10.9433L11.6398 10.9551C11.6307 10.9634 11.6201 10.9725 11.6083 10.9823C11.5846 11.0017 11.5555 11.0237 11.5207 11.0469C11.4509 11.0932 11.3588 11.1437 11.2429 11.1864C11.0068 11.2737 10.6955 11.3206 10.3095 11.2619C9.55383 11.1469 8.55291 10.6358 7.22178 9.3227C5.89108 8.01004 5.37156 7.02155 5.25454 6.27321C5.1947 5.89056 5.24243 5.58155 5.33146 5.34713C5.37509 5.23224 5.42651 5.14089 5.47369 5.07179C5.49723 5.03734 5.51962 5.00853 5.53939 4.98513C5.54927 4.97343 5.55851 4.96307 5.56691 4.95401L5.57888 4.9414L5.58437 4.93581L5.58697 4.93319L5.58825 4.93193C5.58887 4.93132 5.58949 4.9307 6.05052 5.39065L5.58949 4.9307L5.83951 4.68406C6.21318 4.31548 6.26549 3.70365 5.91374 3.23752L4.8145 1.78076Z" fill="white"/>
</svg>
