<svg width="31" height="41" viewBox="0 0 31 41" fill="none" xmlns="http://www.w3.org/2000/svg">
<path d="M3.72503e-06 2.05123L2.11204e-06 38.9523C0.00118656 39.3259 0.10525 39.6921 0.300989 40.0115C0.496727 40.3309 0.77673 40.5914 1.11086 40.7649C1.44499 40.9385 1.82059 41.0185 2.19724 40.9964C2.57389 40.9743 2.93731 40.8509 3.2484 40.6395L30.1631 22.189C31.279 21.4243 31.279 19.5833 30.1631 18.8166L3.2484 0.366085C2.93796 0.15252 2.57435 0.0272807 2.19708 0.00397365C1.81981 -0.0193334 1.4433 0.0601835 1.10846 0.233885C0.773622 0.407587 0.493259 0.668829 0.297838 0.989229C0.102417 1.30963 -0.000591351 1.67693 3.72503e-06 2.05123Z" fill="#53ACFF" fill-opacity="0.5"/>
</svg>
