<svg width="22" height="20" viewBox="0 0 22 20" fill="none" xmlns="http://www.w3.org/2000/svg">
<path fill-rule="evenodd" clip-rule="evenodd" d="M0.822789 9.17542C0.299083 9.69086 0.00323516 10.3942 1.94176e-05 11.1288C-0.00273693 11.8633 0.288058 12.5689 0.807629 13.0885C2.19867 14.4796 4.05598 16.3369 5.43875 17.7201C6.50775 18.7886 8.23782 18.7992 9.31969 17.7435C12.0347 15.0938 16.7779 10.464 18.2016 9.07435C18.4671 8.81526 18.6173 8.45969 18.6173 8.0885C18.6173 6.14619 18.6173 0 18.6173 0H10.7066C10.3446 0 9.99729 0.141952 9.73957 0.395995C8.33154 1.78244 3.56214 6.47787 0.822789 9.17542ZM16.7797 1.83756V7.32499C16.7797 7.69756 16.6286 8.05405 16.3617 8.3136C14.9518 9.68305 10.3469 14.1561 8.32924 16.1159C7.79589 16.6336 6.94555 16.6277 6.41955 16.1017C5.32299 15.0056 3.52723 13.2093 2.41871 12.1008C2.16054 11.8426 2.01629 11.4921 2.01812 11.1269C2.0195 10.7617 2.16697 10.4126 2.4279 10.1567C4.47449 8.14776 9.10975 3.59749 10.5008 2.23218C10.7585 1.97906 11.1053 1.83756 11.4664 1.83756C12.9374 1.83756 16.7797 1.83756 16.7797 1.83756ZM13.1473 2.96859C12.3429 2.97548 11.5624 3.43579 11.1876 4.14141C10.8623 4.75286 10.843 5.51361 11.1334 6.14252C11.5174 6.97494 12.4431 7.53034 13.3761 7.43295C14.3142 7.33556 15.1673 6.58997 15.3533 5.64316C15.4893 4.9527 15.2789 4.20251 14.7961 3.69029C14.3831 3.25249 13.7946 2.97915 13.1905 2.96905C13.1763 2.96859 13.162 2.96859 13.1473 2.96859ZM13.151 4.12579C13.6586 4.12901 14.135 4.51582 14.2274 5.02666C14.2591 5.20306 14.2471 5.38774 14.186 5.5568C14.0055 6.05248 13.4418 6.38875 12.9163 6.26242C12.393 6.13655 11.9989 5.57839 12.0884 5.03585C12.1698 4.54476 12.6149 4.13406 13.1313 4.12579C13.1377 4.12579 13.1446 4.12579 13.151 4.12579Z" fill="#8A8E91"/>
<path fill-rule="evenodd" clip-rule="evenodd" d="M18.6186 1.20117V3.0392H20.1631V8.52662C20.1631 8.89919 20.0124 9.25568 19.7455 9.51523C18.3356 10.8847 13.7307 15.3573 11.713 17.3171C11.1797 17.8353 10.3289 17.8288 9.80333 17.3033L9.78771 17.2877L9.32097 17.7438C9.01639 18.0406 8.66082 18.2533 8.2832 18.3819L8.82253 18.9213C9.89153 19.9903 11.6216 20.0008 12.703 18.9447C15.418 16.2949 20.1612 11.6656 21.5853 10.276C21.8509 10.0164 22.0006 9.66086 22.0006 9.28967C22.0006 7.34783 22.0006 1.20117 22.0006 1.20117H18.6186Z" fill="#8A8E91"/>
</svg>
