<svg width="22" height="24" viewBox="0 0 22 24" fill="none" xmlns="http://www.w3.org/2000/svg">
<path d="M21.3846 2.15353C20.9857 1.65622 20.418 1.37112 19.8272 1.37112H17.8072C17.7059 -0.209279 16.7305 0.0103944 16.3506 0.0103944C15.9497 0.0103944 11 0.0103944 11 0.0103944C11 0.0103944 6.05041 0.0103944 5.64952 0.0103944C5.26959 0.0103944 4.29398 -0.209232 4.1927 1.37112H2.17275C1.58201 1.37112 1.01435 1.65632 0.615301 2.15353C0.131645 2.75634 -0.0770538 3.62629 0.0255126 4.60728C0.0445047 5.04309 0.244567 7.28166 2.34969 8.87388C3.41953 9.68304 4.44777 10.0956 5.3832 10.3055C5.5882 10.3543 5.79561 10.398 6.00818 10.4322C6.0111 10.4358 6.01398 10.4395 6.01698 10.443C10.3937 15.5102 9.85925 12.5788 9.85925 17.2235C9.85925 19.0242 7.59175 18.4413 7.59175 19.8235C7.59175 21.2055 5.82448 20.0681 5.98807 21.7079C6.08827 22.7131 8.7947 23.4667 11.0001 23.4667C13.2054 23.4667 15.912 22.7131 16.0122 21.7079C16.1756 20.0681 14.4083 21.2055 14.4083 19.8235C14.4083 18.4413 12.1409 19.0242 12.1409 17.2235C12.1409 12.5787 11.6064 15.5102 15.9832 10.443C15.9892 10.436 15.9948 10.4285 16.0008 10.4214C17.0907 10.2661 18.3408 9.86461 19.6505 8.87393C21.7554 7.28171 21.9555 5.04313 21.9745 4.60733C22.0771 3.62629 21.8683 2.75625 21.3846 2.15353ZM20.2475 4.41394L20.2395 4.46083L20.2406 4.52479C20.2365 4.64888 20.1544 6.17535 18.6671 7.30038C18.2603 7.60812 17.8667 7.84136 17.4839 8.02251C17.3974 8.06108 17.311 8.09971 17.2225 8.13332C17.7451 6.51424 17.8299 4.70334 17.8314 3.28064H19.8271C19.8941 3.28064 19.9929 3.30437 20.0834 3.41716C20.2378 3.60956 20.2976 3.9728 20.2475 4.41394ZM9.77597 9.28194C9.61248 9.5088 9.37052 9.62698 9.12642 9.62698C8.94603 9.62698 8.76445 9.56254 8.61221 9.42966C6.53334 7.61578 6.35919 5.12577 6.35919 2.93427C6.35919 2.43101 6.73014 2.02301 7.18758 2.02301C7.64503 2.02301 8.01589 2.43101 8.01589 2.93427C8.01589 4.85712 8.14028 6.69156 9.64165 8.00162C10.0001 8.31442 10.0602 8.88764 9.77597 9.28194ZM3.3329 7.30038C1.84687 6.17639 1.76351 4.65177 1.75926 4.52517L1.7602 4.48168L1.75247 4.41389C1.70228 3.97284 1.76209 3.60951 1.91652 3.41711C2.0071 3.30432 2.10584 3.28059 2.17275 3.28059H4.16843C4.16976 4.49515 4.2343 5.99198 4.57749 7.41152C4.63472 7.65629 4.69815 7.89965 4.7727 8.1388C4.31018 7.94636 3.83108 7.67719 3.3329 7.30038Z" fill="#8A8E91"/>
</svg>
