<svg width="30" height="23" viewBox="0 0 30 23" fill="#fff" xmlns="http://www.w3.org/2000/svg">
<path d="M28.4991 0.297293L1.49833 0.297295C1.22496 0.298161 0.957 0.374371 0.723293 0.51772C0.489586 0.661069 0.298981 0.866129 0.171997 1.11083C0.0450125 1.35553 -0.0135449 1.6306 0.00263018 1.90643C0.0188053 2.18227 0.109101 2.44842 0.263794 2.67624L13.7642 22.3871C14.3237 23.2043 15.6707 23.2043 16.2317 22.3871L29.7321 2.67624C29.8884 2.44889 29.98 2.18261 29.9971 1.90631C30.0141 1.63002 29.956 1.35428 29.8289 1.10907C29.7018 0.863849 29.5106 0.658526 29.2762 0.51541C29.0417 0.372293 28.773 0.296857 28.4991 0.297293Z" fill="white"/>
</svg>