<svg width="71" height="71" viewBox="0 0 71 71" fill="none" xmlns="http://www.w3.org/2000/svg">
<path d="M67.53 70.9987V64.0729L70.9987 60.6041V67.53L67.53 70.9987ZM0 3.46873L3.46873 0H10.3946L6.92585 3.46873H0Z" fill="#3680C5"/>
<path d="M3.46875 0H30.3137L70.9987 40.6966V67.5416L3.46875 0Z" fill="#53ACFF"/>
<path d="M40.904 18.5318L39.7148 19.6669L38.1736 18.0524L33.2693 22.7338L31.8524 21.2495L36.7568 16.568L35.2156 14.9535L36.4048 13.8184L40.904 18.5318ZM38.2116 28.0331C37.6648 27.4602 37.2952 26.8066 37.1029 26.0722C36.9161 25.3436 36.9247 24.611 37.1285 23.8745C37.3437 23.1382 37.7493 22.4856 38.3454 21.9167C38.9414 21.3477 39.6093 20.9757 40.3489 20.8005C41.0941 20.6311 41.8263 20.6566 42.5454 20.877C43.2701 21.1032 43.9059 21.5028 44.4527 22.0757C44.9996 22.6486 45.3664 23.2993 45.5531 24.028C45.7454 24.7624 45.7341 25.492 45.5192 26.217C45.3098 26.9477 44.9071 27.5975 44.3111 28.1665C43.715 28.7354 43.0443 29.1103 42.2988 29.291C41.5592 29.4661 40.8298 29.4435 40.1106 29.2231C39.3915 29.0027 38.7585 28.606 38.2116 28.0331ZM39.5657 26.7405C40.0297 27.2266 40.5619 27.4597 41.1621 27.4397C41.7679 27.4255 42.337 27.1643 42.8694 26.6561C43.4075 26.1424 43.6949 25.5861 43.7315 24.9871C43.7793 24.3885 43.5713 23.8461 43.1073 23.36C42.6378 22.8681 42.103 22.6265 41.503 22.6352C40.9085 22.6496 40.3393 22.9165 39.7954 23.4357C39.2572 23.9494 38.9642 24.5056 38.9163 25.1043C38.8797 25.7033 39.0962 26.2487 39.5657 26.7405ZM50.5999 32.617C50.2469 32.954 49.8455 33.1823 49.3957 33.302C48.9517 33.4162 48.4798 33.391 47.98 33.2266C47.4802 33.0622 46.9928 32.7312 46.5178 32.2335L45.6395 31.3134L43.4521 33.4014L42.0352 31.9171L48.1287 26.1005L50.4239 28.505C50.8879 28.9911 51.1962 29.482 51.3487 29.9778C51.5013 30.4737 51.5101 30.9464 51.3752 31.3959C51.2402 31.8454 50.9818 32.2525 50.5999 32.617ZM47.5906 30.9938C47.8612 31.2774 48.1294 31.4251 48.3951 31.4369C48.6607 31.4488 48.9151 31.3387 49.1581 31.1067C49.4012 30.8747 49.523 30.6257 49.5235 30.3598C49.524 30.0938 49.389 29.8191 49.1183 29.5355L48.3477 28.7283L46.82 30.1866L47.5906 30.9938ZM53.628 34.1383L55.0081 32.8209L57.3033 35.2253L50.9667 41.2739L49.4918 39.7288L54.4482 34.9976L53.628 34.1383Z" fill="white"/>
</svg>
