<svg width="71" height="71" viewBox="0 0 71 71" fill="none" xmlns="http://www.w3.org/2000/svg">
<path d="M67.53 70.9987V64.0729L70.9987 60.6041V67.53L67.53 70.9987ZM0 3.46873L3.46873 0H10.3946L6.92585 3.46873H0Z" fill="#1F3243"/>
<path d="M3.46875 0H30.3137L70.9987 40.6966V67.5416L3.46875 0Z" fill="#295780"/>
<path d="M40.904 18.5318L39.7148 19.6669L38.1736 18.0524L33.2693 22.7338L31.8524 21.2495L36.7568 16.568L35.2156 14.9535L36.4048 13.8184L40.904 18.5318ZM38.2116 28.0331C37.6648 27.4602 37.2952 26.8066 37.1029 26.0722C36.9161 25.3436 36.9247 24.611 37.1285 23.8745C37.3437 23.1382 37.7493 22.4856 38.3454 21.9167C38.9414 21.3477 39.6093 20.9757 40.3489 20.8005C41.0941 20.6311 41.8263 20.6566 42.5454 20.877C43.2701 21.1032 43.9059 21.5028 44.4527 22.0757C44.9996 22.6486 45.3664 23.2993 45.5531 24.028C45.7454 24.7624 45.7341 25.492 45.5192 26.217C45.3098 26.9477 44.9071 27.5975 44.3111 28.1665C43.715 28.7354 43.0443 29.1103 42.2988 29.291C41.5592 29.4661 40.8298 29.4435 40.1106 29.2231C39.3915 29.0027 38.7585 28.606 38.2116 28.0331ZM39.5657 26.7405C40.0297 27.2266 40.5619 27.4597 41.1621 27.4397C41.7679 27.4255 42.337 27.1643 42.8694 26.6561C43.4075 26.1424 43.6949 25.5861 43.7315 24.9871C43.7793 24.3885 43.5713 23.8461 43.1073 23.36C42.6378 22.8681 42.103 22.6265 41.503 22.6352C40.9085 22.6496 40.3393 22.9165 39.7954 23.4357C39.2572 23.9494 38.9642 24.5056 38.9163 25.1043C38.8797 25.7033 39.0962 26.2487 39.5657 26.7405ZM50.5999 32.617C50.2469 32.954 49.8455 33.1823 49.3957 33.302C48.9517 33.4162 48.4798 33.391 47.98 33.2266C47.4802 33.0622 46.9928 32.7312 46.5178 32.2335L45.6395 31.3134L43.4521 33.4014L42.0352 31.9171L48.1287 26.1005L50.4239 28.505C50.8879 28.9911 51.1962 29.482 51.3487 29.9778C51.5013 30.4737 51.5101 30.9464 51.3752 31.3959C51.2402 31.8454 50.9818 32.2525 50.5999 32.617ZM47.5906 30.9938C47.8612 31.2774 48.1294 31.4251 48.3951 31.4369C48.6607 31.4488 48.9151 31.3387 49.1581 31.1067C49.4012 30.8747 49.523 30.6257 49.5235 30.3598C49.524 30.0938 49.389 29.8191 49.1183 29.5355L48.3477 28.7283L46.82 30.1866L47.5906 30.9938ZM49.9602 37.8385C50.3042 37.8861 50.4622 37.9067 50.434 37.9004C51.4441 38.0201 52.2543 38.0983 52.8645 38.1352C53.4803 38.1778 54.0608 38.1545 54.6061 38.0653C55.1514 37.9762 55.5802 37.7824 55.8927 37.4841C56.13 37.2577 56.2627 37.0259 56.2908 36.7889C56.319 36.5519 56.2281 36.3235 56.0182 36.1036C55.8083 35.8837 55.5587 35.7902 55.2693 35.8231C54.9913 35.8562 54.7018 36.0164 54.4009 36.3036L53.0338 34.8714C53.5367 34.4134 54.047 34.1254 54.5646 34.0073C55.0878 33.895 55.5822 33.9263 56.0478 34.1012C56.5189 34.2819 56.945 34.5719 57.3262 34.9712C57.9835 35.6598 58.3014 36.3462 58.2798 37.0304C58.2638 37.7204 57.9722 38.336 57.4051 38.8773C56.7859 39.4684 56.0085 39.8068 55.0728 39.8925C54.143 39.9728 53.1143 39.9262 51.9866 39.7529L54.2238 42.0965L53.0172 43.2482L48.8578 38.8908L49.9602 37.8385Z" fill="white"/>
</svg>
