<svg width="71" height="71" viewBox="0 0 71 71" fill="none" xmlns="http://www.w3.org/2000/svg">
<path d="M67.53 70.9987V64.0729L70.9987 60.6041V67.53L67.53 70.9987ZM0 3.46873L3.46873 0H10.3946L6.92585 3.46873H0Z" fill="#242D37"/>
<path d="M3.46875 0H30.3137L70.9987 40.6966V67.5416L3.46875 0Z" fill="#364452"/>
<path d="M40.904 18.5318L39.7148 19.6669L38.1736 18.0524L33.2693 22.7338L31.8524 21.2495L36.7568 16.568L35.2156 14.9535L36.4048 13.8184L40.904 18.5318ZM38.2116 28.0331C37.6648 27.4602 37.2952 26.8066 37.1029 26.0722C36.9161 25.3436 36.9247 24.611 37.1285 23.8745C37.3437 23.1382 37.7493 22.4856 38.3454 21.9167C38.9414 21.3477 39.6093 20.9757 40.3489 20.8005C41.0941 20.6311 41.8263 20.6566 42.5454 20.877C43.2701 21.1032 43.9059 21.5028 44.4527 22.0757C44.9996 22.6486 45.3664 23.2993 45.5531 24.028C45.7454 24.7624 45.7341 25.492 45.5192 26.217C45.3098 26.9477 44.9071 27.5975 44.3111 28.1665C43.715 28.7354 43.0443 29.1103 42.2988 29.291C41.5592 29.4661 40.8298 29.4435 40.1106 29.2231C39.3915 29.0027 38.7585 28.606 38.2116 28.0331ZM39.5657 26.7405C40.0297 27.2266 40.5619 27.4597 41.1621 27.4397C41.7679 27.4255 42.337 27.1643 42.8694 26.6561C43.4075 26.1424 43.6949 25.5861 43.7315 24.9871C43.7793 24.3885 43.5713 23.8461 43.1073 23.36C42.6378 22.8681 42.103 22.6265 41.503 22.6352C40.9085 22.6496 40.3393 22.9165 39.7954 23.4357C39.2572 23.9494 38.9642 24.5056 38.9163 25.1043C38.8797 25.7033 39.0962 26.2487 39.5657 26.7405ZM50.5999 32.617C50.2469 32.954 49.8455 33.1823 49.3957 33.302C48.9517 33.4162 48.4798 33.391 47.98 33.2266C47.4802 33.0622 46.9928 32.7312 46.5178 32.2335L45.6395 31.3134L43.4521 33.4014L42.0352 31.9171L48.1287 26.1005L50.4239 28.505C50.8879 28.9911 51.1962 29.482 51.3487 29.9778C51.5013 30.4737 51.5101 30.9464 51.3752 31.3959C51.2402 31.8454 50.9818 32.2525 50.5999 32.617ZM47.5906 30.9938C47.8612 31.2774 48.1294 31.4251 48.3951 31.4369C48.6607 31.4488 48.9151 31.3387 49.1581 31.1067C49.4012 30.8747 49.523 30.6257 49.5235 30.3598C49.524 30.0938 49.389 29.8191 49.1183 29.5355L48.3477 28.7283L46.82 30.1866L47.5906 30.9938ZM53.4188 34.7361C54.0601 34.1682 54.7309 33.915 55.4311 33.9765C56.1313 34.0381 56.7935 34.3958 57.4177 35.0497C57.832 35.4837 58.1103 35.9259 58.2526 36.3762C58.4004 36.8323 58.4187 37.2628 58.3074 37.6676C58.2017 38.0782 57.9868 38.4382 57.6627 38.7475C57.2808 39.1121 56.8772 39.3149 56.4518 39.3559C56.0323 39.3914 55.6576 39.3233 55.3277 39.1516L55.293 39.1847C55.4979 39.6195 55.5642 40.0539 55.4919 40.4879C55.4195 40.9219 55.1837 41.3295 54.7844 41.7107C54.4256 42.0531 54.0273 42.273 53.5893 42.3704C53.1627 42.4679 52.7193 42.4322 52.2593 42.263C51.8047 42.0997 51.3703 41.801 50.956 41.367C50.2932 40.6726 49.9336 39.9541 49.8773 39.2115C49.8265 38.4748 50.1344 37.7661 50.801 37.0857L52.1764 38.5266C51.9273 38.7754 51.7938 39.0411 51.7759 39.3236C51.7638 39.6006 51.8848 39.8721 52.1389 40.1383C52.3543 40.364 52.5837 40.4769 52.827 40.4769C53.0816 40.4771 53.316 40.3751 53.5301 40.1707C53.8079 39.9056 53.9219 39.6253 53.8722 39.3299C53.8338 39.0348 53.6295 38.6933 53.2595 38.3056L52.9943 38.0279L54.2009 36.8761L54.466 37.1539C54.7477 37.449 55.0234 37.6393 55.293 37.7248C55.5739 37.8106 55.8446 37.7292 56.105 37.4806C56.3133 37.2817 56.4201 37.0692 56.4254 36.843C56.4306 36.6168 56.3366 36.4024 56.1433 36.1999C55.9334 35.98 55.7094 35.8786 55.4713 35.8957C55.2388 35.9185 55.0159 36.0152 54.8026 36.1857L53.4188 34.7361Z" fill="white"/>
</svg>
