<svg width="32" height="29" viewBox="0 0 32 29" fill="none" xmlns="http://www.w3.org/2000/svg">
<path d="M30.4095 0.116209L2.08159 0.00611629C1.6642 0.00449415 1.26326 0.168746 0.966969 0.462739C0.670682 0.756732 0.503318 1.15638 0.501696 1.57377L0.403836 26.7541C0.402213 27.1715 0.566465 27.5725 0.860458 27.8688C1.15445 28.1651 1.5541 28.3324 1.97149 28.334L30.2994 28.4441C30.7168 28.4458 31.1177 28.2815 31.414 27.9875C31.7103 27.6935 31.8777 27.2939 31.8793 26.8765L31.9772 1.6961C31.9788 1.27871 31.8145 0.877769 31.5205 0.581482C31.2265 0.285195 30.8269 0.117832 30.4095 0.116209ZM5.65534 9.00167C5.5056 8.85591 5.38638 8.68178 5.30464 8.48946C5.22291 8.29713 5.1803 8.09045 5.17929 7.88148C5.17829 7.67251 5.21891 7.46543 5.2988 7.27232C5.37868 7.07922 5.49622 6.90396 5.64456 6.75677C5.7929 6.60958 5.96907 6.4934 6.16279 6.41502C6.35651 6.33664 6.56389 6.29763 6.77285 6.30026C6.98181 6.30289 7.18815 6.3471 7.37984 6.43033C7.57152 6.51356 7.74471 6.63412 7.88931 6.785L9.13246 8.03785L10.3853 6.7947C10.5311 6.64495 10.7052 6.52573 10.8975 6.444C11.0898 6.36227 11.2965 6.31965 11.5055 6.31865C11.7145 6.31765 11.9215 6.35827 12.1147 6.43815C12.3078 6.51804 12.483 6.63558 12.6302 6.78392C12.7774 6.93226 12.8936 7.10843 12.972 7.30214C13.0503 7.49586 13.0893 7.70325 13.0867 7.91221C13.0841 8.12117 13.0399 8.32751 12.9566 8.51919C12.8734 8.71088 12.7529 8.88407 12.602 9.02866L11.3491 10.2718L12.5923 11.5247C12.8778 11.8226 13.0349 12.2208 13.0297 12.6334C13.0245 13.046 12.8575 13.4401 12.5645 13.7307C12.2716 14.0214 11.8762 14.1854 11.4636 14.1874C11.0509 14.1893 10.654 14.0292 10.3583 13.7413L9.11516 12.4885L7.86231 13.7316C7.56438 14.0172 7.16622 14.1742 6.7536 14.169C6.34097 14.1639 5.9469 13.9968 5.65624 13.7039C5.36558 13.411 5.2016 13.0156 5.19962 12.6029C5.19764 12.1903 5.35781 11.7934 5.64564 11.4977L6.89849 10.2545L5.65534 9.00167ZM27.1947 17.4155C27.1931 17.8329 27.0257 18.2325 26.7294 18.5265C26.4331 18.8205 26.0322 18.9848 25.6148 18.9831C25.1974 18.9815 24.7977 18.8142 24.5038 18.5179C24.2098 18.2216 24.0455 17.8206 24.0471 17.4033L24.0568 14.9072L23.7535 15.2082C21.5579 17.3993 18.9494 19.1329 16.0791 20.3088C13.2088 21.4846 10.1338 22.0794 7.03203 22.0585L6.71728 22.0573C6.29989 22.0557 5.90024 21.8883 5.60624 21.592C5.31225 21.2957 5.148 20.8948 5.14962 20.4774C5.15124 20.06 5.31861 19.6604 5.61489 19.3664C5.91118 19.0724 6.31212 18.9081 6.72951 18.9097L7.04427 18.911C9.73223 18.9287 12.397 18.4131 14.8844 17.3941C17.3718 16.3751 19.6324 14.8728 21.5353 12.9743L21.8402 12.6733L19.3442 12.6636C18.9268 12.662 18.5271 12.4946 18.2331 12.1983C17.9391 11.902 17.7749 11.5011 17.7765 11.0837C17.7781 10.6663 17.9455 10.2667 18.2418 9.97266C18.5381 9.67867 18.939 9.51441 19.3564 9.51604L25.6515 9.5405C26.0689 9.54212 26.4685 9.70949 26.7625 10.0058C27.0565 10.3021 27.2208 10.703 27.2191 11.1204L27.1947 17.4155Z" fill="white"/>
</svg>
