<svg width="30" height="23" viewBox="0 0 30 23" fill="none" xmlns="http://www.w3.org/2000/svg">
<path d="M1.5009 22.7027L28.5017 22.7027C28.775 22.7018 29.043 22.6256 29.2767 22.4823C29.5104 22.3389 29.701 22.1339 29.828 21.8892C29.955 21.6445 30.0135 21.3694 29.9974 21.0936C29.9812 20.8177 29.8909 20.5516 29.7362 20.3238L16.2358 0.612931C15.6763 -0.20431 14.3293 -0.20431 13.7683 0.612931L0.267868 20.3238C0.111601 20.5511 0.0199624 20.8174 0.00290847 21.0937C-0.0141455 21.37 0.0440377 21.6457 0.171136 21.8909C0.298235 22.1362 0.489388 22.3415 0.723827 22.4846C0.958267 22.6277 1.22703 22.7031 1.5009 22.7027Z" fill="white"/>
</svg>
