<svg width="22" height="23" viewBox="0 0 22 23" fill="none" xmlns="http://www.w3.org/2000/svg">
<path d="M17.1126 6.35704C17.0354 6.34602 16.9583 6.34602 16.8812 6.35704C15.1735 6.30195 13.8184 4.90274 13.8184 3.18403C13.8184 1.43226 15.2396 0 17.0024 0C18.7542 0 20.1864 1.42124 20.1864 3.18403C20.1754 4.90274 18.8203 6.30195 17.1126 6.35704Z" fill="white" fill-opacity="0.47"/>
<path d="M20.7042 13.9923C19.4702 14.8186 17.7405 15.1271 16.143 14.9177C16.5616 14.0143 16.782 13.0117 16.793 11.9541C16.793 10.8523 16.5506 9.80567 16.0879 8.89122C17.7185 8.67088 19.4482 8.97936 20.6932 9.80567C22.4339 10.9515 22.4339 12.8355 20.7042 13.9923Z" fill="white" fill-opacity="0.47"/>
<path d="M4.89487 6.35704C4.97199 6.34602 5.04911 6.34602 5.12623 6.35704C6.83393 6.30195 8.18907 4.90274 8.18907 3.18403C8.18907 1.42124 6.76782 0 5.00504 0C3.25328 0 1.83203 1.42124 1.83203 3.18403C1.83203 4.90274 3.18717 6.30195 4.89487 6.35704Z" fill="white" fill-opacity="0.47"/>
<path d="M5.01842 11.9543C5.01842 13.023 5.24979 14.0366 5.66845 14.951C4.115 15.1163 2.49544 14.7857 1.30556 14.0035C-0.435187 12.8467 -0.435187 10.9627 1.30556 9.80588C2.48442 9.01263 4.14805 8.69311 5.71252 8.8694C5.26081 9.79486 5.01842 10.8415 5.01842 11.9543Z" fill="white" fill-opacity="0.47"/>
<path d="M11.152 15.2809C11.0638 15.2698 10.9647 15.2698 10.8655 15.2809C8.83833 15.2148 7.21875 13.5511 7.21875 11.5019C7.22977 9.40859 8.91545 7.71191 11.0198 7.71191C13.1131 7.71191 14.8098 9.40859 14.8098 11.5019C14.7987 13.5511 13.1902 15.2148 11.152 15.2809Z" fill="white" fill-opacity="0.47"/>
<path d="M7.57194 17.5626C5.90831 18.6753 5.90831 20.5042 7.57194 21.6059C9.46695 22.8729 12.5739 22.8729 14.4688 21.6059C16.1325 20.4932 16.1325 18.6643 14.4688 17.5626C12.5849 16.2956 9.47797 16.2956 7.57194 17.5626Z" fill="white" fill-opacity="0.47"/>
</svg>
