<svg width="32" height="29" viewBox="0 0 32 29" fill="none" xmlns="http://www.w3.org/2000/svg">
<path d="M30.4098 0.116209L2.08189 0.00611629C1.6645 0.00449415 1.26356 0.168746 0.967275 0.462739C0.670988 0.756732 0.503624 1.15638 0.502002 1.57377L0.404142 26.7541C0.40252 27.1715 0.566772 27.5725 0.860764 27.8688C1.15476 28.1651 1.55441 28.3324 1.9718 28.334L30.2997 28.4441C30.7171 28.4458 31.1181 28.2815 31.4143 27.9875C31.7106 27.6935 31.878 27.2939 31.8796 26.8765L31.9775 1.6961C31.9791 1.27871 31.8148 0.877769 31.5208 0.581482C31.2269 0.285195 30.8272 0.117832 30.4098 0.116209ZM5.65565 9.00167C5.5059 8.85591 5.38668 8.68178 5.30495 8.48946C5.22322 8.29713 5.1806 8.09045 5.1796 7.88148C5.1786 7.67251 5.21922 7.46543 5.2991 7.27232C5.37899 7.07922 5.49653 6.90396 5.64487 6.75677C5.79321 6.60958 5.96937 6.4934 6.16309 6.41502C6.35681 6.33664 6.5642 6.29763 6.77316 6.30026C6.98212 6.30289 7.18846 6.3471 7.38014 6.43033C7.57183 6.51355 7.74502 6.63412 7.88961 6.785L9.13277 8.03785L10.3856 6.7947C10.5314 6.64495 10.7055 6.52573 10.8978 6.444C11.0902 6.36227 11.2968 6.31965 11.5058 6.31865C11.7148 6.31765 11.9219 6.35827 12.115 6.43815C12.3081 6.51804 12.4833 6.63558 12.6305 6.78392C12.7777 6.93226 12.8939 7.10843 12.9723 7.30214C13.0506 7.49586 13.0897 7.70325 13.087 7.91221C13.0844 8.12117 13.0402 8.32751 12.957 8.51919C12.8737 8.71088 12.7532 8.88407 12.6023 9.02866L11.3494 10.2718L12.5926 11.5247C12.8781 11.8226 13.0352 12.2208 13.03 12.6334C13.0248 13.046 12.8578 13.4401 12.5648 13.7307C12.2719 14.0214 11.8765 14.1854 11.4639 14.1874C11.0512 14.1893 10.6543 14.0292 10.3586 13.7413L9.11547 12.4885L7.86261 13.7316C7.56468 14.0172 7.16653 14.1742 6.7539 14.169C6.34128 14.1639 5.9472 13.9968 5.65655 13.7039C5.36589 13.411 5.20191 13.0156 5.19993 12.6029C5.19795 12.1903 5.35812 11.7934 5.64595 11.4977L6.8988 10.2545L5.65565 9.00167ZM27.195 17.4155C27.1934 17.8329 27.026 18.2325 26.7297 18.5265C26.4334 18.8205 26.0325 18.9848 25.6151 18.9831C25.1977 18.9815 24.7981 18.8142 24.5041 18.5179C24.2101 18.2216 24.0458 17.8206 24.0474 17.4033L24.0571 14.9072L23.7538 15.2082C21.5582 17.3992 18.9497 19.1329 16.0794 20.3088C13.2091 21.4846 10.1341 22.0794 7.03234 22.0585L6.71758 22.0573C6.30019 22.0557 5.90054 21.8883 5.60655 21.592C5.31256 21.2957 5.1483 20.8948 5.14993 20.4774C5.15155 20.06 5.31891 19.6604 5.6152 19.3664C5.91149 19.0724 6.31243 18.9081 6.72982 18.9097L7.04457 18.911C9.73254 18.9287 12.3973 18.4131 14.8847 17.3941C17.3721 16.3751 19.6327 14.8728 21.5356 12.9743L21.8405 12.6733L19.3445 12.6636C18.9271 12.662 18.5274 12.4946 18.2334 12.1983C17.9394 11.902 17.7752 11.5011 17.7768 11.0837C17.7784 10.6663 17.9458 10.2667 18.2421 9.97266C18.5384 9.67867 18.9393 9.51441 19.3567 9.51604L25.6518 9.5405C26.0692 9.54212 26.4688 9.70949 26.7628 10.0058C27.0568 10.3021 27.2211 10.703 27.2195 11.1204L27.195 17.4155Z" fill="white"/>
</svg>
