<svg width="34" height="38" viewBox="0 0 34 38" fill="none" xmlns="http://www.w3.org/2000/svg">
<path d="M6.44204 5.80341L6.44874 4.08155C6.45054 3.61744 6.07544 3.23941 5.61133 3.23761C5.14699 3.2358 4.76968 3.61091 4.76788 4.07501L4.70151 21.1504C4.70125 21.2183 4.71119 21.2838 4.72586 21.3473C4.71946 22.7474 4.71353 24.1484 4.70795 25.4816L4.11105 25.4793C2.84832 25.4744 1.81146 26.4616 1.73336 27.7063C1.73403 27.7822 1.73477 27.8395 1.73559 27.877C1.73598 27.8998 1.73205 27.9211 1.7306 27.9434C1.77671 29.209 2.8154 30.227 4.09266 30.2319L4.69101 30.2343C4.68904 30.8646 4.6878 31.4314 4.68688 31.9156L3.95886 31.9128C3.91521 31.9126 3.87351 31.9063 3.83085 31.8995C1.7128 31.759 0.0354096 29.9919 0.0437722 27.8401C0.0439618 27.7913 0.0498436 27.7439 0.0513975 27.695C0.0355037 25.1983 0.134891 6.21139 0.146051 4.14499C0.142634 4.11577 0.137048 4.08735 0.137164 4.05742C0.145699 1.8201 1.97309 0.0070939 4.21049 0.0157893L5.55386 0.0210102L25.9386 0.100233L26.144 0.101031C26.6083 0.102836 26.9834 0.480623 26.9816 0.94497L26.969 4.16771L10.5339 4.10384C8.93679 4.09659 7.48743 4.74957 6.44204 5.80341ZM8.25962 33.6042C8.26029 33.68 8.26094 33.738 8.26176 33.775C8.26168 33.7977 8.25782 33.8196 8.25677 33.8423C8.30281 35.107 9.34158 36.1254 10.6193 36.1304L31.7135 36.2124L31.7225 33.8889C31.7243 33.4241 32.1024 33.0495 32.5667 33.0513C33.031 33.0531 33.4057 33.4307 33.4039 33.8954L33.3916 37.0599C33.3898 37.5237 33.0122 37.8989 32.5479 37.897L10.4857 37.8113C10.4413 37.8111 10.3996 37.8048 10.3574 37.7975C8.23962 37.6569 6.56199 35.8899 6.57035 33.7386C6.57054 33.6898 6.57666 33.6419 6.5783 33.593C6.56216 31.0964 6.66179 12.1097 6.67271 10.0433C6.66945 10.0136 6.66362 9.98538 6.66374 9.95521C6.67244 7.71829 8.49983 5.90513 10.7372 5.91382L12.0806 5.91904L32.4656 5.99827L32.6714 5.99907C33.1356 6.00087 33.5103 6.37866 33.5085 6.843L33.4162 30.6031C33.4144 31.0669 33.0368 31.442 32.5725 31.4402C32.5677 31.4402 32.5625 31.4388 32.5577 31.4387C32.496 31.4533 32.432 31.4625 32.3656 31.4622L10.6373 31.3778C9.37449 31.3728 8.33771 32.3601 8.25962 33.6042ZM11.2278 27.0484C11.226 27.5127 11.6008 27.8907 12.0652 27.8925C12.5294 27.8943 12.9073 27.5192 12.9091 27.0549L12.9755 9.97966C12.9773 9.51531 12.6024 9.13752 12.1381 9.13572C11.6737 9.13392 11.2959 9.50878 11.2941 9.97312L11.2278 27.0484Z" fill="white"/>
</svg>
