<svg width="38" height="38" viewBox="0 0 38 38" fill="none" xmlns="http://www.w3.org/2000/svg">
<path d="M37.611 31.5446L35.496 22.3909C34.4221 18.3215 30.7499 15.481 26.5413 15.4646L12.0311 15.4082C7.82244 15.3918 4.12764 18.2038 3.02277 22.2647L0.836663 31.4016C0.275769 34.0231 1.7804 36.6464 4.32691 37.4862L4.45239 37.5266C6.80933 38.304 9.38814 37.3241 10.6353 35.1784L12.5175 32.4185C12.9901 31.6048 13.8619 31.1048 14.8024 31.1085L23.6478 31.1428C24.5885 31.1465 25.4557 31.6532 25.9226 32.4706L27.7832 35.245C29.0136 37.4004 31.5847 38.4003 33.9477 37.6413L34.0735 37.6018C36.6265 36.7818 38.1515 34.1703 37.611 31.5446ZM14.5539 25.3261L11.5411 25.3144L11.5294 28.3274L8.90637 28.3172L8.91808 25.3042L5.90573 25.2925L5.91592 22.6708L8.92827 22.6825L8.93997 19.6707L11.563 19.6809L11.5513 22.6927L14.5641 22.7044L14.5539 25.3261ZM27.8515 19.1165C28.7638 19.1201 29.5002 19.8615 29.4967 20.7739C29.4931 21.685 28.751 22.4207 27.8387 22.4172C26.9276 22.4136 26.1919 21.6722 26.1954 20.761C26.199 19.8487 26.9405 19.113 27.8515 19.1165ZM24.5253 25.7062C23.6142 25.7026 22.8778 24.9606 22.8814 24.0477C22.8849 23.1372 23.6271 22.4009 24.5381 22.4044C25.4498 22.408 26.1856 23.15 26.182 24.0605C26.1785 24.9734 25.4369 25.7097 24.5253 25.7062ZM27.813 29.019C26.902 29.0154 26.1662 28.274 26.1698 27.3628C26.1733 26.4505 26.9148 25.7148 27.8259 25.7183C28.7382 25.7219 29.4746 26.4633 29.471 27.3757C29.4675 28.2868 28.7254 29.0225 27.813 29.019ZM31.1271 25.7318C30.216 25.7283 29.4803 24.9862 29.4839 24.0733C29.4874 23.1628 30.2289 22.4265 31.1399 22.4301C32.0517 22.4336 32.788 23.1757 32.7844 24.0861C32.7809 24.9991 32.0389 25.7354 31.1271 25.7318Z" fill="white"/>
<path d="M12.4659 4.38877C14.427 3.04917 16.7894 2.27039 19.3379 2.27978C21.8863 2.29028 24.242 3.08731 26.1932 4.44212C26.694 4.78968 27.3819 4.66547 27.7301 4.1654C28.0776 3.66407 27.954 2.9767 27.4533 2.62854C25.1518 1.02967 22.3544 0.0830748 19.3465 0.071975C16.3384 0.0596943 13.5332 0.984513 11.2201 2.56545C10.7166 2.90971 10.5877 3.59668 10.9313 4.10011C11.2756 4.60354 11.9625 4.73251 12.4659 4.38877Z" fill="white"/>
<path d="M24.6599 8.32104C24.9578 7.89159 24.8516 7.30167 24.4229 7.00366L24.4223 7.00366C22.9766 5.99821 21.2159 5.40245 19.3254 5.3957C17.4348 5.38776 15.6696 5.96974 14.2155 6.96399C13.7838 7.25858 13.673 7.84774 13.9677 8.27882C14.2623 8.71058 14.8514 8.82131 15.2825 8.52664C16.4357 7.73955 17.8204 7.2829 19.318 7.28806C20.8155 7.29454 22.1961 7.76187 23.3424 8.55797C23.7719 8.85598 24.3613 8.74982 24.6599 8.32104Z" fill="white"/>
<path d="M17.2108 11.3613C16.8508 11.6069 16.7583 12.0975 17.0033 12.457C17.249 12.8171 17.7396 12.9096 18.099 12.6646C18.4424 12.4306 18.8514 12.2954 19.2986 12.2971C19.7452 12.2989 20.1537 12.4378 20.494 12.6733C20.8516 12.9217 21.3429 12.833 21.5913 12.4755C21.8398 12.1179 21.7511 11.6266 21.3935 11.3782C20.8025 10.9669 20.079 10.7232 19.3048 10.7202C18.5298 10.7165 17.8051 10.9558 17.2108 11.3613Z" fill="white"/>
</svg>
